<svg width="272" height="182" viewBox="0 0 272 182" fill="none" xmlns="http://www.w3.org/2000/svg">
<g clip-path="url(#clip0_1794_3783)">
<path fill-rule="evenodd" clip-rule="evenodd" d="M182.515 101.424C182.742 101.659 183.002 101.834 183.281 101.978C184.476 102.785 186.12 102.674 187.191 101.62C188.412 100.416 188.432 98.45 187.23 97.2199C187.003 96.9856 186.743 96.8099 186.464 96.6667C185.269 95.8596 183.626 95.9768 182.554 97.0247C181.333 98.2287 181.313 100.194 182.508 101.424H182.515Z" fill="#FF8200" fill-opacity="0.25"/>
<path fill-rule="evenodd" clip-rule="evenodd" d="M170.761 80.4475C170.533 80.2132 170.273 80.0374 169.994 79.8942C168.799 79.0872 167.156 79.2043 166.084 80.2522C164.863 81.4563 164.844 83.4219 166.045 84.652C166.273 84.8863 166.532 85.062 166.805 85.2052C168.007 86.0122 169.643 85.8951 170.715 84.8472C171.936 83.6431 171.956 81.6776 170.754 80.4475H170.761Z" fill="#FF8200" fill-opacity="0.25"/>
<path fill-rule="evenodd" clip-rule="evenodd" d="M162.524 72.0582C162.297 71.8239 162.037 71.6482 161.765 71.505C160.563 70.6979 158.926 70.8086 157.855 71.8629C156.634 73.067 156.614 75.0326 157.809 76.2627C158.037 76.497 158.296 76.6727 158.576 76.8159C159.771 77.623 161.414 77.5058 162.485 76.458C163.706 75.2539 163.726 73.2883 162.524 72.0582Z" fill="#FF8200" fill-opacity="0.25"/>
<path fill-rule="evenodd" clip-rule="evenodd" d="M154.114 63.623C152.912 62.3994 150.944 62.3799 149.723 63.5775C148.496 64.7815 148.483 66.7471 149.684 67.9772C150.886 69.2073 152.847 69.2203 154.075 68.0228C155.296 66.8187 155.315 64.8531 154.12 63.623H154.114Z" fill="#FF8200" fill-opacity="0.25"/>
<path fill-rule="evenodd" clip-rule="evenodd" d="M176.806 87.7763C175.923 87.6852 175.007 87.965 174.319 88.6354C173.091 89.8395 173.072 91.805 174.273 93.0351C174.5 93.2694 174.767 93.4387 175.039 93.5884C176.241 94.3954 177.878 94.2783 178.949 93.2304C180.17 92.0263 180.196 90.0608 178.995 88.8372C178.696 88.5313 178.352 88.3035 177.982 88.1473C177.676 87.978 177.352 87.8609 177.014 87.8023C176.981 87.8414 176.962 87.8804 176.936 87.9195C176.923 87.9195 176.91 87.9195 176.897 87.9195C176.864 87.8739 176.826 87.8349 176.8 87.7828L176.806 87.7763Z" fill="#FF8200" fill-opacity="0.25"/>
<path fill-rule="evenodd" clip-rule="evenodd" d="M141.443 59.5878C142.644 60.8114 144.612 60.8309 145.833 59.6268C147.054 58.4228 147.074 56.4572 145.872 55.2336C144.671 54.0035 142.703 53.9905 141.482 55.188C140.261 56.3921 140.241 58.3577 141.436 59.5878H141.443Z" fill="#FF8200" fill-opacity="0.25"/>
<path fill-rule="evenodd" clip-rule="evenodd" d="M108.195 26.121C108.422 26.3553 108.689 26.531 108.961 26.6742C110.156 27.4812 111.8 27.3641 112.871 26.3162C114.099 25.1121 114.118 23.1466 112.917 21.9165C112.689 21.6821 112.43 21.5064 112.15 21.3632C110.955 20.5562 109.312 20.6733 108.24 21.7212C107.013 22.9253 106.993 24.8908 108.195 26.1144V26.121Z" fill="#FF8200" fill-opacity="0.25"/>
<path fill-rule="evenodd" clip-rule="evenodd" d="M121.145 30.306C120.918 30.0717 120.658 29.896 120.386 29.7528C119.184 28.9457 117.547 29.0564 116.476 30.1107C115.255 31.3148 115.235 33.2804 116.43 34.5105C116.658 34.7448 116.917 34.9205 117.197 35.0637C118.392 35.8708 120.035 35.7601 121.107 34.7058C122.328 33.5017 122.347 31.5361 121.145 30.306Z" fill="#FF8200" fill-opacity="0.25"/>
<path fill-rule="evenodd" clip-rule="evenodd" d="M101.474 13.6962L101.584 13.6116C101.779 13.7352 101.682 13.9565 101.636 14.1453C101.299 14.2429 101.428 13.8719 101.467 13.6962H101.474Z" fill="#FF8200" fill-opacity="0.25"/>
<path fill-rule="evenodd" clip-rule="evenodd" d="M104.506 13.4879C103.304 12.2643 101.343 12.2448 100.115 13.4488C98.8879 14.6529 98.8684 16.6185 100.07 17.8486C101.271 19.0722 103.239 19.0917 104.46 17.8876C105.681 16.6836 105.701 14.718 104.499 13.4879H104.506Z" fill="#FF8200" fill-opacity="0.25"/>
<path fill-rule="evenodd" clip-rule="evenodd" d="M127.199 37.641C126.315 37.5499 125.4 37.8298 124.711 38.5001C123.49 39.7042 123.471 41.6698 124.672 42.8999C124.9 43.1342 125.159 43.3099 125.439 43.4531C126.64 44.2602 128.277 44.1495 129.349 43.0951C130.57 41.8911 130.589 39.9255 129.387 38.6954C129.089 38.3895 128.745 38.1617 128.374 38.012C128.069 37.8428 127.744 37.7256 127.407 37.667C127.374 37.7061 127.355 37.7452 127.329 37.7842C127.329 37.7842 127.303 37.7842 127.29 37.7842C127.257 37.7386 127.218 37.6996 127.199 37.654V37.641Z" fill="#FF8200" fill-opacity="0.25"/>
<path fill-rule="evenodd" clip-rule="evenodd" d="M88.0105 -3.0501C87.7832 -3.2844 87.5234 -3.46014 87.2442 -3.60332C86.0491 -4.41038 84.4059 -4.29322 83.3343 -3.24535C82.1133 -2.04128 82.0938 -0.0757012 83.2953 1.15441C83.5227 1.38871 83.7825 1.56444 84.0552 1.70763C85.2568 2.51468 86.8934 2.40404 87.9651 1.34966C89.1926 0.14558 89.2056 -1.81999 88.004 -3.0501H88.0105Z" fill="#FF8200" fill-opacity="0.25"/>
<path fill-rule="evenodd" clip-rule="evenodd" d="M96.2716 5.09858C95.0701 3.86847 93.1022 3.85545 91.8812 5.05301C90.6602 6.25709 90.6407 8.22266 91.8422 9.45277C93.0438 10.6829 95.0052 10.6959 96.2327 9.49833C97.4537 8.29425 97.4732 6.32869 96.2716 5.09858Z" fill="#FF8200" fill-opacity="0.25"/>
<path fill-rule="evenodd" clip-rule="evenodd" d="M135.084 48.7642V48.5299C135.064 48.2956 135.129 48.5819 135.123 48.7902C135.11 48.7837 135.097 48.7707 135.084 48.7577V48.7642Z" fill="#FF8200" fill-opacity="0.25"/>
<path fill-rule="evenodd" clip-rule="evenodd" d="M137.624 47.0851C137.396 46.8507 137.13 46.675 136.857 46.5318C135.662 45.7248 134.019 45.8354 132.948 46.8898C131.727 48.0939 131.707 50.0594 132.909 51.2896C133.136 51.5239 133.396 51.6996 133.669 51.8428C134.87 52.6498 136.507 52.5392 137.578 51.4848C138.799 50.2807 138.819 48.3152 137.624 47.0851Z" fill="#FF8200" fill-opacity="0.25"/>
<path fill-rule="evenodd" clip-rule="evenodd" d="M94.7318 72.2079L94.8427 72.3321C94.8427 72.3321 94.8688 72.3321 94.8818 72.3321C94.7775 72.221 94.6014 72.1099 94.7318 72.2145V72.2079Z" fill="#FF8200" fill-opacity="0.25"/>
</g>
<g clip-path="url(#clip1_1794_3783)">
<path fill-rule="evenodd" clip-rule="evenodd" d="M215.87 157.405C217.771 165.409 225.325 167.196 230.973 161.724C231.053 161.651 230.98 161.519 230.881 161.546C230.04 161.711 228.437 161.73 228.636 159.416C228.861 156.812 229.596 154.9 227.325 152.012C226.074 150.417 224.816 149.843 224.432 149.692C224.385 149.672 224.332 149.718 224.345 149.764C224.465 150.206 224.829 151.775 224.206 153.021C224.193 153.054 224.14 153.047 224.134 153.014C223.882 152.085 223.127 150.753 221.902 149.415C219.651 146.962 215.579 145.334 211.189 148.023C211.149 148.05 211.163 148.116 211.216 148.116C213.632 148.155 214.91 151.023 215.096 152.184C215.413 154.214 215.513 155.836 215.877 157.392L215.87 157.405Z" fill="#FF8200" fill-opacity="0.25"/>
<path fill-rule="evenodd" clip-rule="evenodd" d="M271.958 182.057L233.462 143.402L233.283 181.879L271.958 182.057Z" fill="#FF8200" fill-opacity="0.25"/>
<path fill-rule="evenodd" clip-rule="evenodd" d="M213.401 151.439C213.48 151.498 213.507 151.472 213.454 151.393C213.083 150.76 211.606 148.637 209.097 149.461C208.395 149.692 207.693 149.639 207.408 149.599C207.369 149.599 207.349 149.645 207.382 149.665C207.918 150.1 209.249 151.175 211.017 150.865C211.692 150.819 212.639 150.865 213.401 151.432V151.439Z" fill="#FF8200" fill-opacity="0.25"/>
<path fill-rule="evenodd" clip-rule="evenodd" d="M233.283 181.865L194.741 143.158L194.562 181.681L233.283 181.865Z" fill="#FF8200" fill-opacity="0.25"/>
<path fill-rule="evenodd" clip-rule="evenodd" d="M233.41 143.316L194.921 104.661L194.742 143.138L233.41 143.316Z" fill="#FF8200" fill-opacity="0.25"/>
</g>
<g clip-path="url(#clip2_1794_3783)">
<path fill-rule="evenodd" clip-rule="evenodd" d="M199.399 95.8406L200.011 -35.7586L128.53 -107.978L127.918 23.3584L199.399 95.8406Z" fill="#FF8200" fill-opacity="0.25"/>
<path fill-rule="evenodd" clip-rule="evenodd" d="M262.435 9.19487V8.85416C262.406 8.50372 262.503 8.92231 262.493 9.24355C262.474 9.23381 262.455 9.21434 262.435 9.19487Z" fill="#FF8200" fill-opacity="0.25"/>
<path fill-rule="evenodd" clip-rule="evenodd" d="M266.217 6.68332C265.877 6.33289 265.488 6.07005 265.07 5.85589C263.282 4.64883 260.824 4.82405 259.221 6.39129C257.394 8.19215 257.365 11.1319 259.162 12.9717C259.502 13.3222 259.891 13.585 260.299 13.7992C262.097 15.0062 264.546 14.8407 266.149 13.2638C267.986 11.4629 268.005 8.52312 266.207 6.68332H266.217Z" fill="#FF8200" fill-opacity="0.25"/>
<path fill-rule="evenodd" clip-rule="evenodd" d="M278.577 18.871C276.779 17.0312 273.835 17.0117 272.008 18.8028C270.181 20.6037 270.152 23.5435 271.949 25.3833C273.747 27.2231 276.682 27.2425 278.518 25.4514C280.345 23.6505 280.374 20.7108 278.577 18.871Z" fill="#FF8200" fill-opacity="0.25"/>
<path fill-rule="evenodd" clip-rule="evenodd" d="M250.629 -7.44126C249.308 -7.57754 247.937 -7.15896 246.907 -6.15632C245.081 -4.35546 245.051 -1.41567 246.839 0.424132C247.18 0.77457 247.568 1.0374 247.986 1.25155C249.774 2.45862 252.233 2.29314 253.836 0.716167C255.663 -1.0847 255.692 -4.02448 253.894 -5.86428C253.447 -6.3218 252.932 -6.6625 252.388 -6.89613C251.931 -7.14922 251.445 -7.32444 250.94 -7.41205C250.892 -7.35364 250.862 -7.29524 250.833 -7.23684C250.833 -7.23684 250.794 -7.23684 250.775 -7.23684C250.726 -7.30498 250.668 -7.36338 250.639 -7.43152L250.629 -7.44126Z" fill="#FF8200" fill-opacity="0.25"/>
<path fill-rule="evenodd" clip-rule="evenodd" d="M201.021 97.8362L274.135 171.798L404.698 172.382L332.518 98.7901L201.021 97.8362Z" fill="#FF8200" fill-opacity="0.25"/>
</g>
<defs>
<clipPath id="clip0_1794_3783">
<rect width="188.114" height="190.263" fill="white" transform="translate(0 -87.752)"/>
</clipPath>
<clipPath id="clip1_1794_3783">
<rect width="77.3953" height="77.3953" fill="white" transform="translate(194.562 104.661)"/>
</clipPath>
<clipPath id="clip2_1794_3783">
<rect width="288.082" height="292.382" fill="white" transform="translate(127.918 -120)"/>
</clipPath>
</defs>
</svg>
