<svg width="30" height="30" viewBox="0 0 30 30" fill="none" xmlns="http://www.w3.org/2000/svg">
<path d="M14.9525 22.4825H23.465C23.7965 22.5011 24.1272 22.4345 24.4256 22.289C24.724 22.1434 24.9802 21.9239 25.1697 21.6513C25.3592 21.3787 25.4758 21.0621 25.5082 20.7317C25.5406 20.4013 25.4879 20.068 25.355 19.7638C24.905 18.4038 23.1112 16.7725 23.1112 15.1675C23.1112 11.605 23.1112 10.6675 21.3562 8.57253C20.7883 7.8982 20.0841 7.35165 19.29 6.96878L18.3112 6.49378C18.147 6.39465 18.0053 6.26226 17.8953 6.1051C17.7853 5.94795 17.7094 5.76952 17.6725 5.58128C17.5747 4.94679 17.2392 4.37326 16.734 3.97701C16.2289 3.58077 15.592 3.39148 14.9525 3.44753C14.3245 3.40982 13.705 3.60755 13.215 4.0021C12.725 4.39666 12.3996 4.9597 12.3025 5.58128C12.2584 5.77602 12.1721 5.95869 12.0496 6.11638C11.9271 6.27406 11.7715 6.4029 11.5937 6.49378L10.615 6.96878C9.82127 7.35179 9.11755 7.89833 8.54998 8.57253C6.79623 10.6675 6.79623 11.605 6.79623 15.1675C6.79623 16.7725 5.08373 18.24 4.63373 19.6813C4.36248 20.5525 4.21248 22.4825 6.48373 22.4825H14.9525Z" stroke="black" stroke-width="1.5" stroke-linecap="round" stroke-linejoin="round"/>
<path d="M19.0322 22.4825C19.0429 23.0211 18.9447 23.5563 18.7435 24.056C18.5423 24.5557 18.2423 25.0096 17.8614 25.3905C17.4805 25.7714 17.0266 26.0715 16.5269 26.2726C16.0272 26.4738 15.492 26.572 14.9534 26.5613C14.4147 26.5727 13.8793 26.475 13.3793 26.2741C12.8794 26.0731 12.4253 25.7731 12.0443 25.392C11.6634 25.011 11.3635 24.5567 11.1627 24.0567C10.9619 23.5567 10.8643 23.0212 10.8759 22.4825" stroke="black" stroke-width="1.5" stroke-linecap="round" stroke-linejoin="round"/>
</svg>
