<svg width="327" height="180" viewBox="0 0 327 180" fill="none" xmlns="http://www.w3.org/2000/svg">
<g clip-path="url(#clip0_2172_10126)">
<path d="M315.311 156.417C291.966 164.992 246.909 164.983 162.539 164.983C78.1678 164.983 -9.79909 165.727 9.76587 156.417C29.3308 147.107 78.1678 147.85 162.539 147.85C246.909 147.85 338.657 147.833 315.311 156.417Z" fill="#E4E4E4"/>
<path d="M278.638 88.1453C281.949 87.613 284.933 86.9963 287.934 86.6753C296.518 85.7713 300.743 90.4601 300.273 99.0605C299.695 109.663 299.687 120.317 302.302 130.742C304.314 138.759 302.051 141.817 293.743 141.894C287.649 141.944 282.494 142.46 277.632 147.883C269.451 157.024 254.655 157.726 245.384 149.632C240.128 145.045 234.956 142.789 227.58 143.431C226.783 143.82 226.498 145.476 225.685 146.718C220.186 155.031 212.508 159.339 202.599 158.883C192.7 158.435 185.172 153.586 180.847 144.597C179.237 141.251 177.376 140.305 173.931 140.373C167.024 140.508 160.1 140.255 153.184 140.01C150.594 139.917 148.943 140.694 147.35 142.975C136.293 158.875 115.446 158.942 104.255 143.254C100.6 138.126 95.1514 138.523 92.3936 143.997C87.4311 153.865 79.3838 159.137 68.3942 158.875C57.6226 158.621 49.743 153.18 45.4762 143.228C44.0176 139.815 42.6513 138.759 38.8959 139.215C27.3698 140.609 25.861 138.59 28.8116 127.109C31.3515 117.241 36.3476 108.937 44.3278 102.626C46.4151 100.978 47.7647 99.0605 48.8292 96.6781C53.1128 87.0639 59.6344 79.8068 70.2635 77.4244C72.8957 76.833 73.2896 75.2194 73.5746 73.0904C74.9326 62.9101 77.6486 53.2115 82.4518 44.0197C89.2752 30.967 100.726 24.3013 113.945 20.2208C131.448 14.8392 149.487 14.3999 167.602 15.4728C176.857 16.0219 186.069 16.3937 195.022 19.5111C216.087 26.8527 229.264 47.1709 227.026 69.4998C226.859 71.1811 226.699 72.8623 226.557 74.4083C228.192 75.929 229.952 75.3545 231.57 75.3461C240.179 75.3038 248.779 75.0926 257.388 75.1095C268.118 75.1349 273.432 78.4297 278.646 88.1453H278.638Z" fill="black"/>
<path d="M222.408 71.569C220.639 70.6481 218.745 71.0283 216.926 71.0536C202.918 71.2226 188.919 71.5521 174.912 71.6281C166.949 71.6704 163.579 68.1136 163.596 60.0624C163.604 55.1201 164.442 50.2792 165.39 45.4214C166.798 38.1728 171.308 34.7174 178.081 33.4501C186.296 31.9041 194.527 32.0055 202.784 32.977C204.955 33.2305 207.118 33.636 210.505 34.1683C205.173 28.2798 199.817 25.137 193.739 23.4558C172.716 17.6264 151.365 18.2685 130.007 20.8621C118.514 22.2646 107.416 25.3482 97.9013 32.3434C83.2737 43.0981 79.6272 59.2091 77.1712 76.0719C82.5528 77.0266 87.7248 74.1626 93.5926 76.6887C86.6016 78.7247 80.2895 79.2739 74.0025 80.0173C63.9099 81.217 55.5105 87.9165 53.1299 96.4155C67.2294 91.8788 80.9433 93.1713 93.7687 100.158C107.751 107.779 112.948 120.443 111.238 135.92H159.094C155.624 116.387 164.685 104.813 181.308 98.291C180.252 85.8466 183.672 80.4144 194.351 77.694C197.436 76.9083 200.663 76.5619 203.849 76.3676C208.904 76.055 213.967 76.0128 219.03 75.9199C221.972 75.8607 223.581 74.8554 222.408 71.569Z" fill="#CE0A24"/>
<path d="M238.813 87.6646C237.472 87.0985 236.147 87.5801 234.865 87.8842C221.092 91.1622 207.294 94.3641 193.564 97.8364C187.017 99.4922 180.73 102.069 174.854 105.44C163.545 111.937 158.348 124.373 161.844 135.955H177.821C177.88 134.688 177.922 133.852 177.947 133.007C178.416 119.996 186.43 110.095 198.61 107.476C210.488 104.924 222.483 111.1 227.706 122.649C228.687 124.829 229.793 125.606 232.232 125.513C237.094 125.336 241.956 125.133 246.843 125.978C250.523 126.62 254.455 123.384 254.723 119.726C255.117 114.505 254.807 109.292 252.996 104.333C246.48 104.891 241.749 99.3261 238.804 87.6392L238.813 87.6646Z" fill="#A51428"/>
<path d="M219.214 67.2606C222.785 67.0156 223.581 66.0525 223.456 62.8083C223.238 57.4521 221.804 52.4507 219.885 47.5338C217.387 41.1299 213.547 37.024 206.028 36.3144C196.246 35.3935 186.556 34.4811 176.899 36.7537C173.789 37.4887 170.788 38.6799 169.732 42.4056C168.047 48.3364 167.385 54.4107 167.317 60.5188C167.259 65.7568 169.572 67.9027 174.761 67.9703C182.004 68.0716 215.643 67.5056 219.214 67.2606Z" fill="#FDFDFD"/>
<path d="M95.1342 135.076C109.091 135.811 109.468 134.738 106.669 120.713C106.476 119.733 105.923 118.821 105.487 117.9C94.3127 94.4477 58.8208 89.1168 41.8796 108.599C35.3496 116.101 31.9882 125.216 31.2002 135.743C35.7352 135.701 39.39 136.089 42.8855 134.763C45.0231 116.793 54.5792 106.824 69.3745 106.968C83.9602 107.12 93.6086 117.528 95.1342 135.067V135.076Z" fill="#A51428"/>
<path d="M275.897 99.4492C275.871 82.9749 270.976 78.2016 255.233 78.0411C238.016 77.8637 220.856 79.0634 203.681 79.7477C197.905 79.9758 192.272 81.0825 187.645 85.0701C183.965 88.2383 183.235 91.9386 185.306 96.3402C201.87 91.3219 218.711 88.6184 235.191 84.3774C238.938 83.4143 242.693 82.3751 246.616 82.3075C253.071 82.1977 256.767 85.8389 256.608 92.2681C256.55 94.5998 256.315 96.9316 256.156 99.4576H275.897V99.4492Z" fill="#CE0A24"/>
<path d="M229.859 130.175C229.038 139.645 229.046 139.916 234.277 139.814C254.655 139.426 275.033 138.843 295.411 138.378C298.094 138.319 299.594 137.364 299.292 134.441C299.049 132.008 298.865 129.904 295.495 129.55C274.002 127.328 252.526 128.096 231.041 129.566C230.74 129.583 230.455 129.854 229.859 130.166V130.175Z" fill="#CE0A24"/>
<path d="M215.357 133.351C215.29 125.435 208.961 119.175 201.107 119.243C193.244 119.31 187.041 125.68 187.108 133.613C187.175 141.538 193.487 147.781 201.358 147.722C209.204 147.654 215.416 141.284 215.357 133.36V133.351Z" fill="#ACABA6"/>
<path d="M65.7872 147.706C73.6585 148.086 80.2556 142.096 80.6328 134.222C81.01 126.289 75.0668 119.64 67.2542 119.26C59.3913 118.871 52.7858 124.87 52.4086 132.744C52.0314 140.685 57.9663 147.325 65.7872 147.706Z" fill="#ACABA6"/>
<path d="M297.037 105.54C292.511 107.018 289.971 104.762 287.917 101.56C285.88 98.3753 285.084 94.8017 285.076 91.076C282.661 90.7887 280.708 90.6029 278.847 91.5068C278.613 96.5167 279.602 100.487 284.304 103.47C288.387 106.063 291.086 110.152 292.394 115.247C293.249 118.584 293.207 122.554 296.861 125.968C297.918 118.812 297.574 112.543 297.037 105.54Z" fill="#A51428"/>
<path d="M258.243 123.966C269.14 124.54 279.811 125.098 290.583 125.664C291.178 121.693 289.309 120.57 286.123 120.528C277.883 120.426 269.643 120.308 261.403 120.08C259.006 120.012 257.958 120.891 258.243 123.966Z" fill="#E8E8E8"/>
<path d="M258.779 112.004C257.823 115.113 258.72 116.692 262.191 116.735C269.92 116.844 277.64 117.132 285.369 117.25C286.559 117.267 288.11 117.791 288.831 116.126C286.785 112.51 278.755 111.412 258.779 111.995V112.004Z" fill="#E8E8E8"/>
<path d="M284.145 108.067C280.373 103.21 266.123 101.292 257.371 104.536C257.187 106.766 257.983 108.084 260.431 108.076C268.294 108.05 276.165 108.067 284.145 108.067Z" fill="#E8E8E8"/>
<path d="M122.856 42.4321C122.671 40.4636 122.202 38.3854 119.863 37.5405C114.213 35.496 102.467 36.9318 99 41.5001C95.5336 46.0684 93.6172 57.0815 93.6172 62.6321C93.6172 68.4276 95.7799 71.4521 101.388 72.8799C106.686 74.2316 112.134 73.919 117.466 73.3783C120.861 73.0319 123.241 70.5904 123.384 66.8224C123.526 63.0967 123.5 59.7346 123.5 56.0004C123.5 55.9611 123.407 55.3725 123.5 55.0004C123.274 50.5988 123.275 46.8168 122.864 42.4321H122.856Z" fill="#FDFDFD"/>
<path d="M155.5 52C154.673 40.4465 149.5 36 137.5 36C133 35.9999 130.086 40.1995 129.499 44.4997C128.82 49.5349 128.992 52.6112 128.648 57.6802C127.675 72.0761 131.5 72.9997 145.162 72.4225C153.335 70.8342 155.249 71.9721 155.5 63C155.894 60.8964 155.693 54.6921 155.5 52Z" fill="#FDFDFD"/>
<path d="M89 83.2041C93.8535 80.3317 150.931 78.6843 153.797 81.337C132.313 85.1219 110.669 84.1165 89 83.2041Z" fill="#ED676E"/>
<path d="M200.176 138.506C197.167 138.177 194.996 136.783 195.172 133.387C195.348 129.889 197.293 127.456 200.847 127.473C204.276 127.49 205.994 130.024 205.944 133.277C205.893 136.783 203.513 138.261 200.176 138.498V138.506Z" fill="#FDFDFD"/>
<path d="M65.6868 138.505C62.7194 138.286 60.4477 137.035 60.4561 133.631C60.4561 130.108 62.3841 127.641 65.888 127.472C69.3332 127.294 71.1355 129.803 71.2361 133.031C71.3367 136.52 69.0566 138.142 65.6784 138.505H65.6868Z" fill="#FDFDFD"/>
<path d="M245.382 87.0183C243.185 87.2126 241.685 89.933 244.677 94.2078C247.578 98.3222 248.399 98.5165 248.466 98.5165C248.533 98.5165 249.355 98.3222 252.255 94.2078C255.248 89.9668 253.756 87.2126 251.551 87.0183C249.388 86.7902 248.492 88.7671 248.466 88.8347C248.433 88.7671 247.544 86.824 245.382 87.0183Z" fill="#F6E272"/>
<path d="M290.96 91.0159C289.153 91.1846 287.918 93.5468 290.381 97.2587C292.768 100.831 293.444 101 293.499 101C293.554 101 294.23 100.831 296.617 97.2587C299.08 93.5761 297.852 91.1846 296.038 91.0159C294.258 90.8178 293.52 92.5344 293.499 92.5931C293.471 92.5344 292.74 90.8472 290.96 91.0159Z" fill="#F6E272"/>
<mask id="mask0_2172_10126" style="mask-type:luminance" maskUnits="userSpaceOnUse" x="167" y="35" width="57" height="33">
<path d="M219.214 67.2606C222.785 67.0156 223.581 66.0525 223.456 62.8083C223.238 57.4521 221.804 52.4507 219.885 47.5338C217.387 41.1299 213.547 37.024 206.028 36.3144C196.246 35.3935 186.556 34.4811 176.899 36.7537C173.789 37.4887 170.788 38.6799 169.732 42.4056C168.047 48.3364 167.385 54.4107 167.317 60.5188C167.259 65.7568 169.572 67.9027 174.761 67.9703C182.004 68.0716 215.643 67.5056 219.214 67.2606Z" fill="white"/>
</mask>
<g mask="url(#mask0_2172_10126)">
<path d="M190.596 61.5585C190.596 61.4402 190.479 61.4571 190.471 61.5585C190.471 61.6176 190.462 61.6852 190.454 61.7528C190.429 61.8035 190.42 61.8711 190.454 61.9133C190.496 62.7075 191.007 63.5861 191.426 64.1775C192.072 65.1152 192.901 65.977 193.798 66.6697C194.637 67.3203 195.55 67.8779 196.514 68.3003C196.171 68.3256 195.886 68.4354 195.911 68.7396C195.944 69.1198 196.263 69.3056 196.54 69.5168C196.967 69.8379 197.436 70.0913 197.906 70.3532C198.895 70.9023 199.926 71.3417 200.991 71.6036C200.789 71.6036 200.597 71.6289 200.404 71.6458C200.362 71.6458 200.312 71.6543 200.278 71.6627C200.27 71.6627 200.253 71.6712 200.245 71.6712C200.219 71.6712 200.194 71.688 200.169 71.6965C200.152 71.6965 200.144 71.7049 200.136 71.7134L200.085 71.7556C200.085 71.7556 200.069 71.781 200.06 71.7894C200.06 71.7894 200.043 71.7979 200.043 71.8148C200.043 71.8148 200.018 71.857 200.018 71.8908C199.934 72.2963 200.898 72.423 201.1 72.4737C201.51 72.5836 201.913 72.6765 202.323 72.761H202.307C202.349 72.761 202.391 72.7694 202.424 72.7779C202.81 72.8539 203.204 72.9131 203.589 72.9637C203.698 72.9806 203.807 72.9891 203.916 72.9975C204.36 73.0398 204.796 73.0736 205.249 73.0736C205.006 73.1412 204.746 73.2172 204.503 73.3017C204.184 73.4115 203.765 73.5213 203.489 73.7325C203.455 73.7579 203.422 73.7917 203.38 73.8255L203.355 73.8424C203.355 73.8424 203.287 73.9269 203.254 73.9691C203.254 73.9691 203.254 73.9775 203.246 73.9775C203.22 74.0198 203.195 74.062 203.187 74.1127V74.1296C203.179 74.1803 203.187 74.2225 203.187 74.2648V74.2732C203.204 74.3239 203.237 74.3746 203.304 74.4169C203.858 74.7886 204.654 74.7717 205.291 74.7294C205.903 74.6872 206.515 74.6112 207.118 74.5013C207.118 74.5013 207.185 74.4929 207.219 74.4844C207.521 74.4253 207.822 74.3662 208.124 74.2817C207.873 75.38 207.982 76.6641 208.46 77.5089C208.493 77.5681 208.527 77.6272 208.56 77.6779C208.569 77.6948 208.585 77.7117 208.594 77.7286C208.61 77.7624 208.636 77.7877 208.652 77.8131C208.652 77.8131 208.652 77.8046 208.652 77.7962C208.753 77.9229 208.879 78.0074 209.063 77.982C209.298 77.9567 209.44 77.5174 209.499 77.3484C209.616 77.002 209.725 76.6557 209.826 76.3008C209.893 76.0643 209.968 75.8277 210.035 75.5996C210.069 75.4813 210.103 75.3715 210.144 75.2532C210.245 74.9491 210.346 74.6534 210.463 74.3577C210.689 74.89 210.999 75.3884 211.284 75.7432C211.335 75.8024 211.427 75.9376 211.528 76.0389C211.528 76.0389 211.569 76.0812 211.595 76.0981C211.595 76.0981 211.603 76.1065 211.611 76.1065C211.637 76.1234 211.653 76.1319 211.678 76.1403H211.695C211.712 76.1403 211.737 76.1403 211.754 76.1403C211.754 76.1403 211.771 76.1403 211.779 76.1403C211.796 76.1403 211.821 76.1319 211.838 76.115C211.846 76.115 211.855 76.115 211.863 76.1065C211.863 76.1065 211.88 76.1065 211.88 76.0981C212.316 75.7179 212.575 75.1434 212.961 74.7125C213.053 74.7632 213.145 74.8055 213.238 74.8562C213.405 74.9406 213.581 75.0251 213.757 75.1096C214.294 75.3546 214.864 75.6503 215.409 75.2363C215.912 74.8562 216.255 74.2394 216.524 73.6734C216.607 73.4875 216.691 73.2848 216.758 73.0905C216.758 73.0736 216.758 73.0567 216.767 73.0398C216.8 72.9384 216.817 72.837 216.842 72.7356C216.851 72.6934 216.859 72.6512 216.867 72.6089C216.892 72.4653 216.901 72.3217 216.884 72.178C217.152 72.2372 217.412 72.3132 217.672 72.4062C217.915 72.4906 218.317 72.6849 218.577 72.5244C218.929 72.3132 219.265 71.9077 219.516 71.5782C219.86 71.1389 220.12 70.6405 220.371 70.142V70.1251C220.53 69.8041 220.74 69.4746 220.807 69.1113C220.849 68.8748 220.639 68.672 220.463 68.5622C220.287 68.4523 220.12 68.2834 219.944 68.1398C220.321 68.1566 220.707 68.1398 221.084 68.0891C221.318 68.0553 221.553 68.0046 221.779 67.9454C221.805 67.937 221.83 67.937 221.855 67.9285C221.855 67.9285 221.838 67.9285 221.83 67.9285C222.878 67.6582 223.875 67.1597 224.713 66.467C225.342 65.9432 226.138 65.2166 226.407 64.3971C226.457 64.2451 226.474 64.1099 226.465 64.0001V63.9832C226.465 63.9578 226.465 63.9325 226.449 63.9071C226.449 63.8818 226.432 63.8564 226.423 63.8311C226.423 63.8058 226.407 63.7889 226.39 63.772L226.34 63.7044L226.306 63.6621C226.306 63.6621 226.231 63.6114 226.189 63.5861C226.172 63.5861 226.155 63.5777 226.138 63.5692C226.105 63.5608 226.063 63.5439 226.029 63.5439C226.004 63.5439 225.988 63.5439 225.962 63.5354C225.92 63.5354 225.879 63.5354 225.828 63.5354C225.803 63.5354 225.786 63.5354 225.761 63.5354C225.694 63.5354 225.619 63.5523 225.543 63.5692C224.093 63.8987 222.769 64.6506 221.318 65.0054C219.893 65.3518 218.46 65.318 217.027 65.0561C216.691 64.997 216.356 64.9294 216.021 64.8534C216.121 64.8196 216.23 64.7858 216.331 64.7435C216.373 64.7351 216.406 64.7097 216.44 64.7013C216.498 64.6759 216.566 64.6506 216.624 64.6168C216.674 64.5999 216.716 64.5746 216.758 64.5492C216.809 64.5239 216.859 64.4901 216.909 64.4563C216.951 64.4309 216.993 64.4056 217.027 64.3802L217.043 64.3633C217.119 64.3127 217.194 64.2451 217.253 64.1775C217.496 63.8818 217.312 63.6621 216.951 63.6114C216.557 63.5608 216.163 63.4932 215.769 63.4256C215.317 63.3411 214.872 63.2482 214.428 63.1299C212.827 62.7075 211.301 62.0823 209.75 61.5078L209.734 61.4909C203.891 58.3228 196.481 58.5256 190.579 61.6007C190.579 61.567 190.579 61.5332 190.579 61.4994H190.596V61.5585Z" fill="black"/>
<path d="M180.679 64.1271C180.604 64.0342 180.704 63.9666 180.78 64.0426C180.822 64.0849 180.872 64.1355 180.914 64.1862C180.973 64.2116 181.015 64.2707 181.015 64.3214C181.484 64.9804 181.652 66.0195 181.71 66.7799C181.803 67.9626 181.702 69.2045 181.451 70.3535C181.216 71.4349 180.855 72.4825 180.361 73.4709C180.646 73.2597 180.939 73.1584 181.115 73.4203C181.342 73.7413 181.199 74.1046 181.115 74.4594C180.981 75.0001 180.788 75.5154 180.579 76.0392C180.151 77.1375 179.623 78.1682 178.953 79.0891C179.112 78.9624 179.279 78.8441 179.447 78.7343C179.481 78.7089 179.523 78.6836 179.556 78.6667C179.573 78.6582 179.581 78.6498 179.59 78.6498C179.615 78.6329 179.64 78.6244 179.665 78.616C179.682 78.6075 179.69 78.6075 179.707 78.6075H179.774C179.774 78.6075 179.808 78.616 179.816 78.6244C179.824 78.6244 179.841 78.6244 179.849 78.6329C179.849 78.6329 179.891 78.6582 179.917 78.6751C180.252 78.9455 179.556 79.6889 179.439 79.8663C179.187 80.2296 178.927 80.5675 178.659 80.9055L178.668 80.897C178.642 80.9308 178.617 80.9562 178.584 80.99C178.332 81.311 178.064 81.6151 177.787 81.9108C177.712 81.9953 177.636 82.0798 177.553 82.1558C177.234 82.4853 176.907 82.7979 176.555 83.102C176.798 82.9922 177.041 82.8824 177.293 82.7894C177.62 82.6712 178.022 82.4684 178.374 82.46C178.416 82.46 178.466 82.46 178.517 82.46H178.55C178.6 82.46 178.659 82.4769 178.709 82.4938C178.709 82.4938 178.718 82.4938 178.726 82.4938C178.776 82.5107 178.818 82.5275 178.86 82.5613C178.86 82.5613 178.869 82.5698 178.877 82.5698C178.919 82.6036 178.944 82.6374 178.961 82.6881V82.6965C178.978 82.7556 178.986 82.8148 178.961 82.8908C178.768 83.5582 178.123 84.0736 177.595 84.4622C177.083 84.8339 176.555 85.1803 176.01 85.4929H176.019C176.019 85.4929 175.952 85.5183 175.926 85.5351C175.65 85.6872 175.365 85.8393 175.08 85.9745C175.985 86.6926 176.723 87.7909 176.89 88.7878C176.907 88.8553 176.916 88.9229 176.924 88.9821C176.924 89.0074 176.924 89.0243 176.924 89.0497C176.932 89.0834 176.932 89.1172 176.932 89.1595C176.932 89.151 176.932 89.1426 176.932 89.1426C176.932 89.3116 176.89 89.4552 176.731 89.565C176.53 89.6917 176.136 89.4383 175.985 89.3453C175.675 89.151 175.365 88.9314 175.055 88.7202C174.853 88.5765 174.644 88.4414 174.434 88.2978C174.334 88.2302 174.233 88.1626 174.124 88.095C173.856 87.9176 173.579 87.7486 173.303 87.5881C173.47 88.1626 173.537 88.7709 173.546 89.2524C173.546 89.3369 173.563 89.4974 173.546 89.6495V89.6664C173.546 89.6664 173.537 89.734 173.529 89.7593V89.7762C173.529 89.7762 173.512 89.8184 173.495 89.8438L173.487 89.8607C173.47 89.8776 173.462 89.8945 173.445 89.9029C173.445 89.9029 173.437 89.9198 173.428 89.9198C173.412 89.9283 173.386 89.9367 173.361 89.9367C173.353 89.9367 173.345 89.9452 173.336 89.9452C173.328 89.9452 173.319 89.9452 173.311 89.9452C172.724 89.9367 172.154 89.6495 171.576 89.5566C171.534 89.6579 171.492 89.7593 171.45 89.8607C171.375 90.0381 171.299 90.224 171.207 90.4014C170.947 90.959 170.679 91.5757 169.983 91.6095C169.346 91.6348 168.675 91.3729 168.105 91.0942C167.913 91.0012 167.728 90.8998 167.544 90.7816V90.79C167.527 90.7816 167.519 90.7731 167.502 90.7647C167.41 90.7055 167.326 90.6464 167.25 90.5788C167.217 90.5535 167.175 90.5281 167.15 90.4943C167.049 90.3929 166.94 90.2831 166.856 90.1564C166.68 90.3845 166.521 90.621 166.379 90.866C166.245 91.1026 166.052 91.525 165.75 91.5673C165.331 91.6348 164.811 91.525 164.4 91.4321C163.847 91.3138 163.319 91.0857 162.808 90.8491C162.808 90.8407 162.799 90.8407 162.791 90.8407C162.456 90.6886 162.078 90.5619 161.793 90.3169C161.609 90.1564 161.651 89.8438 161.71 89.641C161.777 89.4383 161.793 89.1848 161.844 88.9567C161.559 89.2186 161.248 89.4636 160.913 89.6748C160.704 89.8016 160.486 89.9198 160.268 90.0212C160.243 90.0381 160.226 90.0466 160.201 90.055L160.217 90.0381C159.22 90.5197 158.105 90.7816 157.007 90.7816C156.169 90.7816 155.087 90.7224 154.341 90.2493C154.199 90.1648 154.107 90.0719 154.039 89.9705C154.031 89.9705 154.031 89.9536 154.031 89.9536C154.014 89.9283 154.006 89.9114 153.998 89.886C153.981 89.8607 153.972 89.8354 153.964 89.81C153.956 89.7847 153.947 89.7678 153.947 89.7424V89.5988C153.956 89.5566 153.972 89.5059 153.989 89.4636C153.989 89.4467 154.006 89.4298 154.014 89.4214C154.031 89.3876 154.056 89.3538 154.081 89.3285C154.098 89.3116 154.107 89.2947 154.123 89.2778C154.157 89.244 154.19 89.2102 154.224 89.1848C154.241 89.1679 154.257 89.1595 154.274 89.1426C154.333 89.1003 154.4 89.0581 154.467 89.0243C155.817 88.3315 157.351 88.0443 158.717 87.36C160.067 86.6926 161.165 85.7126 162.129 84.5467C162.355 84.2764 162.573 83.9976 162.791 83.7188C162.69 83.761 162.581 83.8032 162.481 83.837C162.439 83.8539 162.405 83.8624 162.363 83.8708C162.296 83.8962 162.229 83.9131 162.162 83.93C162.112 83.9469 162.07 83.9553 162.02 83.9638C161.953 83.9807 161.894 83.9807 161.835 83.9891C161.793 83.9891 161.743 84.006 161.693 84.006H161.668H161.676C161.575 84.006 161.483 84.006 161.391 83.9891C161.005 83.9131 161.014 83.6089 161.265 83.3386C161.542 83.026 161.81 82.7134 162.07 82.4008C162.372 82.0291 162.665 81.6574 162.933 81.2687C163.914 79.8663 164.719 78.3541 165.566 76.8672V76.8418C168.131 70.4211 174.091 65.6478 180.704 64.1947C180.688 64.1693 180.671 64.1355 180.646 64.1102H180.637L180.679 64.1271Z" fill="black"/>
<path d="M149.06 68.5285C149.328 69.1283 149.647 69.7282 149.965 70.328C150.963 72.0345 152.237 73.6059 153.821 74.8056C155.406 76.0475 157.267 76.8839 159.128 77.4837C160.31 77.8554 161.533 78.1258 162.707 78.4046C162.841 78.4468 162.975 78.2694 162.891 78.1258C162.799 77.9906 162.757 77.847 162.707 77.8047C162.347 77.2049 162.12 76.5122 161.978 75.7772C161.525 73.2427 162.338 70.3364 164.383 68.7228C166.337 67.2443 169.103 67.2021 171.048 68.7228C171.366 69.0016 171.685 69.2804 171.953 69.6014C170.771 72.1359 170.821 74.907 171.182 76.7065C171.408 77.9484 171.634 78.3708 171.819 78.8777C172.858 82.1979 175.717 85.6617 176.714 86.9458C178.181 88.8467 182.305 93.2229 183.957 94.9548H192.591C194.142 93.2229 197.939 88.8721 199.305 86.9881C200.261 85.6532 204.067 80.6687 204.796 76.7487C205.567 72.6428 204.888 64.0171 193.228 63.5609C193.32 61.4403 200.437 41.1052 191.551 37.8695C191.644 37.8273 191.686 37.7766 191.778 37.6837C192.817 36.6192 197.084 31.6853 194.41 25.045C191.736 18.4975 185.021 18.4975 181.434 19.3677C180.118 19.7394 178.936 20.3815 178.349 20.7025C176.035 22.2739 174.225 24.6225 173.68 27.4865C173.093 30.5786 173.998 33.9917 176.262 36.1123C176.714 36.5262 176.899 36.6699 176.991 36.6192C176.949 36.6614 177.083 36.0616 178.081 35.1407C178.399 34.8619 180.126 33.3412 182.482 34.1692C183.839 34.6338 184.435 35.3181 184.887 36.3404C185.114 36.805 185.206 37.4049 185.206 37.954C185.164 37.954 185.114 37.9962 185.072 37.9962C183.303 39.103 181.4 41.6375 181.853 47.6358C182.356 54.5972 182.892 60.3167 183.169 63.5524C182.129 63.5947 181.132 63.6876 180.218 63.8312C181.668 57.5119 181.35 50.221 174.501 45.887C167.971 41.7389 158.809 43.0737 153.042 48.0582C147.233 53.0427 145.917 61.6684 149.052 68.5369L149.06 68.5285Z" fill="black"/>
<path d="M186.933 37.253C187.93 37.0671 188.928 37.0671 189.749 37.2107C191.476 35.783 192.742 33.6118 193.195 31.0773C193.698 28.264 193.061 25.5858 191.468 23.7441C189.741 21.8094 187.52 20.8379 184.846 20.8379H184.485C181.903 20.8801 180.311 21.48 178.358 23.102C177.586 23.7441 175.818 25.5014 175.591 28.264C175.457 29.7847 175.633 30.8914 175.818 31.5842C175.86 31.7193 175.86 31.8123 175.91 31.9052C176.044 32.505 176.178 32.919 176.773 33.8399L176.815 33.7976C177.586 33.0626 178.45 32.5557 179.397 32.2769C180.076 32.0911 180.805 31.9981 181.576 31.9981C181.895 31.9981 183.798 32.2769 185.114 33.333C186.841 34.7607 186.883 36.1463 186.925 36.8813V37.253H186.933ZM188.207 73.6061C188.165 73.5132 186.891 70.6999 183.806 71.0209C180.679 71.2997 178.542 75.2198 182.809 81.2603C186.933 87.115 188.115 87.3938 188.207 87.3938C188.299 87.3938 189.481 87.115 193.605 81.2603C197.872 75.1691 195.735 71.2997 192.608 71.0209C189.523 70.7421 188.257 73.5132 188.207 73.6061ZM168.424 45.6506C161.483 44.451 153.906 47.543 150.779 54.0905C148.147 59.6748 149.278 67.329 153.545 71.7559C155.498 73.7835 157.535 74.941 160.075 75.4901C160.117 75.4901 159.715 73.7413 160.167 71.8911C160.67 69.7706 161.668 67.2361 164.61 66.0787C169.103 64.2792 171.685 66.4926 173.227 67.5994C174.225 66.4926 174.904 66.028 175.952 65.4788C176.765 65.0649 177.268 64.879 178.039 64.6931C178.944 62.6655 179.305 58.7878 178.944 56.6672C178.441 53.9469 178.081 51.5476 175.499 49.106C173.546 47.2642 170.964 46.1068 168.424 45.6506Z" fill="#A51428"/>
<path d="M168.835 49.8915C168.835 50.6265 169.422 51.2263 170.151 51.2263C170.88 51.2263 171.467 50.6265 171.467 49.8915C171.467 49.1565 170.88 48.5566 170.151 48.5566C169.422 48.5566 168.835 49.1565 168.835 49.8915Z" fill="white"/>
<path d="M175.138 53.2118C175.138 52.4768 174.551 51.877 173.822 51.877C173.093 51.877 172.506 52.4768 172.506 53.2118C172.506 53.9468 173.093 54.5466 173.822 54.5466C174.551 54.5466 175.138 53.9468 175.138 53.2118Z" fill="white"/>
<path d="M173.822 57.9169C173.822 58.6519 174.409 59.2517 175.138 59.2517C175.868 59.2517 176.454 58.6519 176.454 57.9169C176.412 57.1819 175.817 56.582 175.138 56.582C174.409 56.582 173.822 57.1819 173.822 57.9169Z" fill="white"/>
<path d="M172.875 62.6239C172.875 63.3589 173.462 63.9587 174.191 63.9587C174.92 63.9587 175.507 63.3589 175.507 62.6239C175.507 61.8889 174.92 61.2891 174.191 61.2891C173.462 61.2891 172.875 61.8889 172.875 62.6239Z" fill="white"/>
<path d="M183.764 48.8183C183.998 48.4888 184.451 48.4128 184.744 48.6409C185.013 48.8352 185.071 49.2238 184.904 49.528L184.862 49.5533L184.82 49.6124C184.82 49.6462 184.778 49.6716 184.778 49.6716C184.686 49.7899 184.518 49.9588 184.308 50.1616C183.982 50.4742 183.236 50.998 182.867 51.3021C182.741 51.4119 182.707 51.4373 182.682 51.395C182.649 51.3866 182.691 51.3612 182.724 51.2007C182.875 50.753 183.194 49.8236 183.37 49.4519C183.495 49.1393 183.722 48.8436 183.764 48.8183Z" fill="white"/>
<path d="M186.681 47.9816H186.698C188.894 47.2128 189.691 44.3826 189.338 42.2536C189.162 41.1891 188.802 40.0148 188.056 39.2038C187.57 38.6715 187.084 38.4857 186.48 38.5195C186.027 38.6546 185.625 38.8405 185.239 39.0855C184.762 39.5079 184.393 40.0402 184.108 40.7245C183.63 41.8481 183.244 43.166 183.269 44.3995C183.278 44.7205 183.328 45.0669 183.42 45.4217C183.228 45.3457 183.026 45.2781 182.825 45.2021C183.538 45.5738 184.233 45.9793 184.887 46.4693C185.717 47.0945 186.446 47.8633 187.125 48.649C186.991 48.4209 186.84 48.1928 186.681 47.9816Z" fill="black"/>
<path d="M189.221 43.5219C189.104 45.1102 188.274 47.3912 186.531 47.7883C186.07 47.2307 185.525 46.7322 184.997 46.3014C184.569 45.9634 184.116 45.7184 183.639 45.5157C183.454 44.7131 183.463 43.8429 183.605 43.1502C183.806 42.1702 184.074 41.1564 184.577 40.2777C184.988 39.5427 185.483 39.1119 186.137 38.7063C186.707 38.6219 187.26 38.6303 187.721 39.0527C188.132 39.4413 188.45 39.9229 188.668 40.4467C189.062 41.4098 189.305 42.4658 189.23 43.5134L189.221 43.5219Z" fill="white"/>
<path d="M185.667 42.7188C186.48 42.7188 187.142 43.3946 187.142 44.2226C187.142 45.0505 186.48 45.7264 185.667 45.7264C184.854 45.7264 184.191 45.0505 184.191 44.2226C184.191 43.3946 184.854 42.7188 185.667 42.7188Z" fill="black"/>
<path d="M191.317 42.4747C191.174 43.3872 191.409 44.2489 191.652 45.1275C191.845 45.8541 192.13 46.7242 192.7 47.248C193.027 47.5522 193.496 47.8056 193.94 47.7296C193.915 47.7718 193.89 47.8141 193.873 47.8563C193.848 47.9155 193.932 48.0422 193.999 48.0084C194.293 47.8648 194.502 47.493 194.687 47.2311C194.687 47.2227 194.703 47.2143 194.703 47.2143C194.728 47.1805 194.754 47.1382 194.787 47.096C195.03 46.758 195.273 46.4117 195.542 46.0822C195.583 46.023 195.474 45.8794 195.424 45.9386C195.307 46.0653 195.206 46.1836 195.089 46.3103C195.148 46.0146 195.173 45.702 195.173 45.4063C195.198 43.8856 194.72 41.9256 193.546 40.878C193.153 40.5316 192.474 40.3204 192.021 40.6837C191.468 41.1146 191.367 41.7989 191.325 42.4663L191.317 42.4747Z" fill="black"/>
<path d="M191.451 42.482C191.518 41.9328 191.636 41.333 192.055 41.0035C192.734 40.4713 193.497 40.8937 193.924 41.5357C194.678 42.6509 195.056 44.1632 194.989 45.5065C194.972 45.8613 194.922 46.3006 194.779 46.6808C194.712 46.7653 194.645 46.8497 194.578 46.9427C194.469 47.0778 194.335 47.2215 194.217 47.3651C193.404 47.8213 192.65 47.1539 192.273 46.3851C191.694 45.1854 191.409 43.8083 191.46 42.482H191.451Z" fill="white"/>
<path d="M192.532 43.209C193.245 43.209 193.823 43.7919 193.823 44.5185C193.823 45.245 193.245 45.828 192.532 45.828C191.82 45.828 191.241 45.245 191.241 44.5185C191.241 43.7919 191.82 43.209 192.532 43.209Z" fill="black"/>
<path d="M191.627 56.9209C191.467 54.6483 189.975 51.7421 189.942 51.6914C189.916 51.7421 188.424 54.6399 188.257 56.9209C188.181 57.977 189.011 58.8725 189.942 58.8725C190.872 58.8725 191.702 57.9685 191.627 56.9209Z" fill="#A51428"/>
<path d="M189.616 50.5931C190.051 47.991 189.381 46.2676 189.381 46.2676C191.803 47.3321 193.74 49.3681 193.74 49.3681C192.264 50.1369 189.616 50.5847 189.616 50.5847V50.5931Z" fill="white"/>
</g>
</g>
<defs>
<clipPath id="clip0_2172_10126">
<rect width="312" height="150" fill="white" transform="translate(7 15)"/>
</clipPath>
</defs>
</svg>
