<svg width="25" height="23" viewBox="0 0 25 23" fill="none" xmlns="http://www.w3.org/2000/svg">
<path d="M22.4273 16.2433H2.77067C2.4345 16.2433 2.18083 15.9221 2.24682 15.5795L4.10297 5.94149C4.15247 5.68239 4.37315 5.49609 4.62682 5.49609H20.5753C20.8289 5.49609 21.0496 5.68239 21.0991 5.94149L22.9553 15.5795C23.0212 15.9221 22.7676 16.2433 22.4314 16.2433H22.4273Z" fill="black"/>
<path d="M19.6036 8.64258H13.0534C12.8427 8.64258 12.6719 8.81994 12.6719 9.03872V11.7967C12.6719 12.0155 12.8427 12.1929 13.0534 12.1929H19.6036C19.8143 12.1929 19.9851 12.0155 19.9851 11.7967V9.03872C19.9851 8.81994 19.8143 8.64258 19.6036 8.64258Z" fill="white"/>
<path d="M7.37427 8.64258H5.59443C5.38371 8.64258 5.21289 8.81994 5.21289 9.03872V10.8867C5.21289 11.1055 5.38371 11.2828 5.59443 11.2828H7.37427C7.58499 11.2828 7.75581 11.1055 7.75581 10.8867V9.03872C7.75581 8.81994 7.58499 8.64258 7.37427 8.64258Z" fill="white"/>
<path d="M7.37427 11.9102H5.59443C5.38371 11.9102 5.21289 12.0875 5.21289 12.3063V14.1543C5.21289 14.373 5.38371 14.5504 5.59443 14.5504H7.37427C7.58499 14.5504 7.75581 14.373 7.75581 14.1543V12.3063C7.75581 12.0875 7.58499 11.9102 7.37427 11.9102Z" fill="white"/>
<path d="M10.6106 8.64258H8.83076C8.62004 8.64258 8.44922 8.81994 8.44922 9.03872V10.8867C8.44922 11.1055 8.62004 11.2828 8.83076 11.2828H10.6106C10.8213 11.2828 10.9921 11.1055 10.9921 10.8867V9.03872C10.9921 8.81994 10.8213 8.64258 10.6106 8.64258Z" fill="white"/>
<path d="M10.6106 11.9102H8.83076C8.62004 11.9102 8.44922 12.0875 8.44922 12.3063V14.1543C8.44922 14.373 8.62004 14.5504 8.83076 14.5504H10.6106C10.8213 14.5504 10.9921 14.373 10.9921 14.1543V12.3063C10.9921 12.0875 10.8213 11.9102 10.6106 11.9102Z" fill="white"/>
<path d="M23.6385 17.1055H1.56068C1.0299 17.1055 0.599609 17.5522 0.599609 18.1033V22.0026C0.599609 22.5537 1.0299 23.0005 1.56068 23.0005H23.6385C24.1693 23.0005 24.5996 22.5537 24.5996 22.0026V18.1033C24.5996 17.5522 24.1693 17.1055 23.6385 17.1055Z" fill="black"/>
<path d="M17 4H15V5H17V4Z" fill="black"/>
<rect x="12" width="8" height="4" fill="black"/>
</svg>
