<svg width="22" height="22" viewBox="0 0 22 22" fill="none" xmlns="http://www.w3.org/2000/svg">
<path fill-rule="evenodd" clip-rule="evenodd" d="M11 0.25C5.063 0.25 0.25 5.063 0.25 11C0.25 16.937 5.063 21.75 11 21.75C16.937 21.75 21.75 16.937 21.75 11C21.75 5.063 16.937 0.25 11 0.25ZM11.75 5C11.75 4.80109 11.671 4.61032 11.5303 4.46967C11.3897 4.32902 11.1989 4.25 11 4.25C10.8011 4.25 10.6103 4.32902 10.4697 4.46967C10.329 4.61032 10.25 4.80109 10.25 5V11C10.25 11.414 10.586 11.75 11 11.75H17C17.1989 11.75 17.3897 11.671 17.5303 11.5303C17.671 11.3897 17.75 11.1989 17.75 11C17.75 10.8011 17.671 10.6103 17.5303 10.4697C17.3897 10.329 17.1989 10.25 17 10.25H11.75V5Z" fill="black"/>
</svg>
