<svg width="40" height="40" viewBox="0 0 40 40" fill="none" xmlns="http://www.w3.org/2000/svg">
<circle cx="20" cy="20" r="20" fill="#FFEF94"/>
<path d="M8.80469 25.9492V29.7231H8.83975C9.21546 30.7334 12.707 31.5221 16.965 31.5221C21.223 31.5221 24.7145 30.7334 25.0902 29.7231H25.1253V25.9492H8.80469Z" fill="#88BA25"/>
<path d="M25.1253 25.9512C25.1253 26.8898 21.4734 27.6524 16.965 27.6524C12.4565 27.6524 8.80469 26.8898 8.80469 25.9512C8.80469 25.0126 12.4565 24.25 16.965 24.25C21.4734 24.25 25.1253 25.0126 25.1253 25.9512Z" fill="#468655"/>
<path d="M23.1444 26.0562C23.1444 26.7667 20.3742 27.3468 16.9628 27.3468C13.5514 27.3468 10.7812 26.7667 10.7812 26.0562C10.7812 25.3457 13.5464 24.7656 16.9628 24.7656C20.3792 24.7656 23.1444 25.3457 23.1444 26.0562Z" fill="#26785E"/>
<path d="M16.9639 27.3478C20.0376 27.3478 22.5293 26.8283 22.5293 26.1875C22.5293 25.5468 20.0376 25.0273 16.9639 25.0273C13.8902 25.0273 11.3984 25.5468 11.3984 26.1875C11.3984 26.8283 13.8902 27.3478 16.9639 27.3478Z" fill="#26785E"/>
<path d="M8 21.3125V25.0864H8.03507C8.41077 26.0967 11.9023 26.8854 16.1603 26.8854C20.4183 26.8854 23.9098 26.0967 24.2855 25.0864H24.3206V21.3125H8Z" fill="#88BA25"/>
<path d="M24.3206 21.3106C24.3206 22.2492 20.6688 23.0118 16.1603 23.0118C11.6518 23.0118 8 22.2492 8 21.3106C8 20.372 11.6518 19.6094 16.1603 19.6094C20.6688 19.6094 24.3206 20.372 24.3206 21.3106Z" fill="#468655"/>
<path d="M22.3397 21.4078C22.3397 22.1182 19.5695 22.6983 16.1582 22.6983C12.7468 22.6983 9.97656 22.1182 9.97656 21.4078C9.97656 20.6973 12.7468 20.1172 16.1582 20.1172C19.5695 20.1172 22.3397 20.6973 22.3397 21.4078Z" fill="#26785E"/>
<path d="M21.7246 21.5391C21.7246 22.1779 19.235 22.6993 16.1592 22.6993C13.0834 22.6993 10.5938 22.1779 10.5938 21.5391C10.5938 20.9003 13.0834 20.3789 16.1592 20.3789C19.235 20.3789 21.7246 20.9003 21.7246 21.5391Z" fill="#26785E"/>
<path d="M7 16.6602V20.4341H7.03507C7.41077 21.4444 10.9023 22.233 15.1603 22.233C19.4183 22.233 22.9098 21.4444 23.2855 20.4341H23.3206V16.6602H7Z" fill="#88BA25"/>
<path d="M23.3206 16.6621C23.3206 17.6007 19.6637 18.3633 15.1603 18.3633C10.6569 18.3633 7 17.6007 7 16.6621C7 15.7235 10.6518 14.9609 15.1603 14.9609C19.6688 14.9609 23.3206 15.7235 23.3206 16.6621Z" fill="#468655"/>
<path d="M21.3397 16.7671C21.3397 17.4776 18.5695 18.0577 15.1582 18.0577C11.7468 18.0577 8.97656 17.4776 8.97656 16.7671C8.97656 16.0567 11.7468 15.4766 15.1582 15.4766C18.5695 15.4766 21.3397 16.0567 21.3397 16.7671Z" fill="#26785E"/>
<path d="M20.7246 16.8946C20.7246 17.5333 18.235 18.0548 15.1592 18.0548C12.0834 18.0548 9.59375 17.5333 9.59375 16.8946C9.59375 16.2558 12.0834 15.7344 15.1592 15.7344C18.235 15.7344 20.7246 16.2558 20.7246 16.8946Z" fill="#26785E"/>
<path d="M8.80469 11.7031V15.477H8.83975C9.21546 16.4873 12.707 17.276 16.965 17.276C21.223 17.276 24.7145 16.4873 25.0902 15.477H25.1253V11.7031H8.80469Z" fill="#88BA25"/>
<path d="M25.1253 11.7012C25.1253 12.6398 21.4684 13.4024 16.965 13.4024C12.4615 13.4024 8.80469 12.6398 8.80469 11.7012C8.80469 10.7626 12.4565 10 16.965 10C21.4734 10 25.1253 10.7626 25.1253 11.7012Z" fill="#468655"/>
<path d="M23.1444 11.9351C23.1444 12.6456 20.3792 13.2257 16.9628 13.2257C13.5464 13.2257 10.7812 12.6456 10.7812 11.9351C10.7812 11.2246 13.5464 10.6445 16.9628 10.6445C20.3792 10.6445 23.1444 11.2246 23.1444 11.9351Z" fill="#26785E"/>
<path d="M16.2031 26.4297V30.2036H16.2382C16.6139 31.2139 20.1054 32.0026 24.3634 32.0026C28.6214 32.0026 32.113 31.2139 32.4887 30.2036H32.5237V26.4297H16.2031Z" fill="#FFAA00"/>
<path d="M32.5237 26.4278C32.5237 27.3664 28.8669 28.129 24.3634 28.129C19.86 28.129 16.2031 27.3664 16.2031 26.4278C16.2031 25.4892 19.855 24.7266 24.3634 24.7266C28.8719 24.7266 32.5237 25.4892 32.5237 26.4278Z" fill="#FFE045"/>
<path d="M30.5429 26.5328C30.5429 27.2432 27.7727 27.8233 24.3613 27.8233C20.9499 27.8233 18.1797 27.2432 18.1797 26.5328C18.1797 25.8223 20.9499 25.2422 24.3613 25.2422C27.7727 25.2422 30.5429 25.8223 30.5429 26.5328Z" fill="#F2B100"/>
<path d="M29.9277 26.6563C29.9277 27.2951 27.4381 27.8165 24.3623 27.8165C21.2865 27.8165 18.7969 27.2951 18.7969 26.6563C18.7969 26.0175 21.2865 25.4961 24.3623 25.4961C27.4381 25.4961 29.9277 26.0175 29.9277 26.6563Z" fill="#F2B100"/>
<path d="M16.6797 22.0703V25.8442H16.7148C17.0905 26.8545 20.582 27.6432 24.84 27.6432C29.098 27.6432 32.5895 26.8545 32.9652 25.8442H33.0003V22.0703H16.6797Z" fill="#FFAA00"/>
<path d="M33.0003 22.0723C33.0003 23.0109 29.3434 23.7735 24.84 23.7735C20.3365 23.7735 16.6797 23.0109 16.6797 22.0723C16.6797 21.1337 20.3315 20.3711 24.84 20.3711C29.3484 20.3711 33.0003 21.1337 33.0003 22.0723Z" fill="#FFE045"/>
<path d="M31.0194 22.1773C31.0194 22.8877 28.2492 23.4678 24.8378 23.4678C21.4264 23.4678 18.6562 22.8877 18.6562 22.1773C18.6562 21.4668 21.4264 20.8867 24.8378 20.8867C28.2492 20.8867 31.0194 21.4668 31.0194 22.1773Z" fill="#F2B100"/>
<path d="M30.4043 22.3008C30.4043 22.9396 27.9146 23.461 24.8389 23.461C21.7631 23.461 19.2734 22.9396 19.2734 22.3008C19.2734 21.6621 21.7631 21.1406 24.8389 21.1406C27.9146 21.1406 30.4043 21.6621 30.4043 22.3008Z" fill="#F2B100"/>
<path d="M30.5473 13.6453C30.853 13.3085 31.3626 12 31.3626 12C31.3626 12 31.937 13.2796 32.2613 13.6068C32.5856 13.9243 33.8456 14.4535 33.8456 14.4535C33.8456 14.4535 32.6134 15.05 32.2984 15.3867C31.9926 15.7235 31.483 17.032 31.483 17.032C31.483 17.032 30.9086 15.7524 30.5843 15.4252C30.26 15.1077 29 14.5785 29 14.5785C29 14.5785 30.2323 13.982 30.5473 13.6453Z" fill="#008852"/>
<path d="M26.1834 8.26074C26.4172 8.00269 26.807 7 26.807 7C26.807 7 27.2463 7.98057 27.4943 8.22388C27.7423 8.46718 28.706 8.87268 28.706 8.87268C28.706 8.87268 27.7636 9.32979 27.5226 9.58783C27.2888 9.84588 26.8991 10.8486 26.8991 10.8486C26.8991 10.8486 26.4597 9.868 26.2117 9.61732C25.9637 9.37402 25 8.96852 25 8.96852C25 8.96852 25.9425 8.51141 26.1763 8.25337L26.1834 8.26074Z" fill="#008852"/>
</svg>
