<svg width="160" height="103" viewBox="0 0 160 103" fill="none" xmlns="http://www.w3.org/2000/svg">
<path d="M159.91 0H0V102.99H159.91V0Z" fill="#DA0049"/>
<path d="M159.91 0H0V102.99H159.91V0Z" fill="#FF0B8D"/>
<g style="mix-blend-mode:multiply" opacity="0.35">
<path d="M160 31.7069C149.016 30.427 141.081 34.0266 138.982 36.9564C136.264 40.756 135.864 46.0955 137.993 50.2551C139.082 52.3749 140.791 54.3347 140.851 56.7144C140.971 61.544 134.515 64.0537 133.375 68.7533C132.216 73.5528 137.103 78.3223 135.864 83.1019C135.084 86.0916 132.086 88.0114 129.078 88.7013C126.069 89.3913 122.931 89.1513 119.863 89.4613C114.676 89.9712 109.659 92.091 105.671 95.4407C103.772 97.0405 102.003 99.1403 101.963 101.62C101.963 102.1 102.033 102.55 102.133 103H159.85L159.98 31.7069H160Z" fill="#5EA58D"/>
</g>
<path d="M151.295 93.1509L149.116 96.3406C148.846 96.7405 148.297 96.8405 147.897 96.5706C147.497 96.3006 147.397 95.7506 147.667 95.3507L149.846 92.161C150.116 91.761 150.665 91.661 151.065 91.931C151.465 92.201 151.565 92.7509 151.295 93.1509Z" fill="white"/>
<path d="M139.422 94.2607L137.243 97.4504C136.973 97.8504 136.424 97.9504 136.024 97.6804C135.624 97.4104 135.524 96.8605 135.794 96.4605L137.973 93.2708C138.242 92.8709 138.792 92.7709 139.192 93.0409C139.592 93.3108 139.692 93.8608 139.422 94.2607Z" fill="white"/>
<path d="M150.525 85.7316L148.347 88.9213C148.077 89.3212 147.527 89.4212 147.127 89.1513C146.727 88.8813 146.628 88.3313 146.897 87.9314L149.076 84.7417C149.346 84.3417 149.896 84.2417 150.295 84.5117C150.695 84.7817 150.795 85.3316 150.525 85.7316Z" fill="white"/>
<path d="M157.871 85.7316L155.692 88.9213C155.422 89.3212 154.873 89.4212 154.473 89.1513C154.073 88.8813 153.973 88.3313 154.243 87.9314L156.422 84.7417C156.692 84.3417 157.241 84.2417 157.641 84.5117C158.041 84.7817 158.141 85.3316 157.871 85.7316Z" fill="white"/>
<path d="M143.18 82.7518L141.001 85.9415C140.731 86.3415 140.181 86.4415 139.782 86.1715C139.382 85.9015 139.282 85.3516 139.552 84.9516L141.73 81.7619C142 81.362 142.55 81.262 142.95 81.532C143.35 81.8019 143.449 82.3519 143.18 82.7518Z" fill="white"/>
<path d="M149.346 69.7532L147.167 72.9429C146.897 73.3428 146.347 73.4428 145.948 73.1729C145.548 72.9029 145.448 72.3529 145.718 71.953L147.896 68.7633C148.166 68.3633 148.716 68.2633 149.116 68.5333C149.516 68.8033 149.615 69.3532 149.346 69.7532Z" fill="white"/>
<path d="M142.24 68.4132L140.061 71.6029C139.792 72.0029 139.242 72.1029 138.842 71.8329C138.442 71.5629 138.342 71.013 138.612 70.613L140.791 67.4233C141.061 67.0234 141.611 66.9234 142.01 67.1933C142.41 67.4633 142.51 68.0133 142.24 68.4132Z" fill="white"/>
<path d="M147.646 55.9645L145.468 59.1542C145.198 59.5541 144.648 59.6541 144.248 59.3842C143.849 59.1142 143.749 58.5642 144.018 58.1643L146.197 54.9746C146.467 54.5746 147.017 54.4746 147.417 54.7446C147.816 55.0146 147.916 55.5645 147.646 55.9645Z" fill="white"/>
<path d="M146.707 45.3855L144.528 48.5752C144.258 48.9752 143.709 49.0752 143.309 48.8052C142.909 48.5352 142.809 47.9853 143.079 47.5853L145.258 44.3956C145.528 43.9956 146.077 43.8957 146.477 44.1656C146.877 44.4356 146.977 44.9855 146.707 45.3855Z" fill="white"/>
<path d="M157.701 69.7532L155.522 72.9429C155.252 73.3428 154.703 73.4428 154.303 73.1729C153.903 72.9029 153.803 72.3529 154.073 71.953L156.252 68.7633C156.522 68.3633 157.071 68.2633 157.471 68.5333C157.871 68.8033 157.971 69.3532 157.701 69.7532Z" fill="white"/>
<path d="M156.002 55.9645L153.823 59.1542C153.553 59.5541 153.004 59.6541 152.604 59.3842C152.204 59.1142 152.104 58.5642 152.374 58.1643L154.553 54.9746C154.823 54.5746 155.372 54.4746 155.772 54.7446C156.172 55.0146 156.272 55.5645 156.002 55.9645Z" fill="white"/>
<path d="M155.062 45.3855L152.884 48.5752C152.614 48.9752 152.064 49.0752 151.664 48.8052C151.265 48.5352 151.165 47.9853 151.434 47.5853L153.613 44.3956C153.883 43.9956 154.433 43.8957 154.833 44.1656C155.232 44.4356 155.332 44.9855 155.062 45.3855Z" fill="white"/>
<path d="M127.678 96.4905L125.499 99.6802C125.229 100.08 124.679 100.18 124.28 99.9102C123.88 99.6402 123.78 99.0902 124.05 98.6903L126.228 95.5006C126.498 95.1006 127.048 95.0006 127.448 95.2706C127.848 95.5406 127.948 96.0905 127.678 96.4905Z" fill="white"/>
<g style="mix-blend-mode:multiply" opacity="0.35">
<path d="M21.5179 34.7366C25.0959 32.0569 29.8232 31.5869 33.9209 29.8071C38.8282 27.6773 42.8359 23.5377 44.8048 18.5682C46.314 14.7586 46.6837 10.499 48.7726 6.97931C49.772 5.28948 52.6104 -0.0100098 52.6104 -0.0100098H0V78.8723C4.14767 78.3724 7.9955 75.6227 10.3442 72.073C13.2026 67.7734 14.192 62.5039 14.5718 57.3544C15.1615 49.2052 14.9816 39.6261 21.5079 34.7266L21.5179 34.7366Z" fill="#5EA58D"/>
</g>
<path d="M14.7821 8.17922L11.9637 10.579C11.6139 10.879 11.0742 10.839 10.7744 10.479C10.4746 10.129 10.5145 9.58909 10.8743 9.28912L13.6927 6.88935C14.0425 6.58938 14.5822 6.62937 14.8821 6.98934C15.1819 7.3393 15.1419 7.87925 14.7821 8.17922Z" fill="white"/>
<path d="M11.2935 36.7065L8.87488 39.5062C8.57505 39.8562 8.03535 39.8962 7.68555 39.5962C7.33575 39.2962 7.29577 38.7563 7.5956 38.4063L10.0142 35.6066C10.3141 35.2566 10.8538 35.2166 11.2036 35.5166C11.5534 35.8166 11.5934 36.3565 11.2935 36.7065Z" fill="white"/>
<path d="M20.9676 28.6372L18.2891 31.1969C17.9593 31.5169 17.4196 31.5069 17.0998 31.1669C16.78 30.8369 16.79 30.297 17.1298 29.977L19.8083 27.4173C20.1381 27.0973 20.6778 27.1073 20.9976 27.4473C21.3174 27.7772 21.3074 28.3172 20.9676 28.6372Z" fill="white"/>
<path d="M34.6605 16.1684L32.1918 18.9282C31.882 19.2781 31.3523 19.3081 31.0025 18.9982C30.6527 18.6882 30.6227 18.1582 30.9325 17.8083L33.4012 15.0485C33.711 14.6986 34.2407 14.6686 34.5905 14.9785C34.9403 15.2885 34.9703 15.8185 34.6605 16.1684Z" fill="white"/>
<path d="M33.2512 7.75924L30.3928 10.109C30.033 10.399 29.5033 10.349 29.2034 9.98902C28.9136 9.62906 28.9636 9.09911 29.3234 8.79914L32.1818 6.44937C32.5416 6.15939 33.0713 6.20939 33.3711 6.56935C33.6609 6.92932 33.611 7.45927 33.2512 7.75924Z" fill="white"/>
<path d="M24.4052 17.2583L21.7767 19.8681C21.4469 20.198 20.9172 20.188 20.5874 19.8681C20.2576 19.5381 20.2676 19.0082 20.5874 18.6782L23.2159 16.0684C23.5457 15.7385 24.0754 15.7485 24.4052 16.0684C24.735 16.3984 24.725 16.9284 24.4052 17.2583Z" fill="white"/>
<path d="M13.5128 26.2674L11.2141 29.1771C10.9242 29.5371 10.3945 29.6071 10.0347 29.3171C9.67494 29.0271 9.60498 28.4972 9.89482 28.1372L12.1935 25.2275C12.4834 24.8675 13.0131 24.7976 13.3729 25.0875C13.7327 25.3775 13.8026 25.9074 13.5128 26.2674Z" fill="white"/>
<path d="M23.5373 8.31918L20.8188 10.8289C20.479 11.1389 19.9393 11.1189 19.6295 10.7789C19.3197 10.439 19.3397 9.89902 19.6795 9.58905L22.3979 7.0793C22.7377 6.76933 23.2774 6.78933 23.5873 7.12929C23.8971 7.46926 23.8771 8.00921 23.5373 8.31918Z" fill="white"/>
<path d="M13.5815 16.9584L11.0529 19.6681C10.7331 20.0081 10.2034 20.0281 9.86356 19.7081C9.52375 19.3882 9.50377 18.8582 9.82359 18.5182L12.3522 15.8085C12.672 15.4685 13.2017 15.4485 13.5415 15.7685C13.8813 16.0885 13.9013 16.6184 13.5815 16.9584Z" fill="white"/>
<path d="M53.0733 60.9142C53.0733 61.3242 52.7433 61.6442 52.3433 61.6442C51.9433 61.6442 51.6133 61.3142 51.6133 60.9142C51.6133 60.5142 51.9433 60.1842 52.3433 60.1842C52.7433 60.1842 53.0733 60.5142 53.0733 60.9142Z" fill="#F1CE30"/>
<path d="M49.6644 12.9187C49.6644 13.4687 49.2247 13.9086 48.675 13.9086C48.1253 13.9086 47.6855 13.4687 47.6855 12.9187C47.6855 12.3688 48.1253 11.9288 48.675 11.9288C49.2247 11.9288 49.6644 12.3688 49.6644 12.9187Z" fill="#F1CE30"/>
<path d="M113.95 53.9048C113.95 54.3048 113.62 54.6348 113.22 54.6348C112.82 54.6348 112.49 54.3048 112.49 53.9048C112.49 53.5048 112.82 53.1748 113.22 53.1748C113.62 53.1748 113.95 53.5048 113.95 53.9048Z" fill="#F1CE30"/>
<path d="M107.313 89.2414C107.313 89.7913 106.873 90.2313 106.323 90.2313C105.774 90.2313 105.334 89.7913 105.334 89.2414C105.334 88.6914 105.774 88.2515 106.323 88.2515C106.873 88.2515 107.313 88.6914 107.313 89.2414Z" fill="#F1CE30"/>
<path d="M112.371 78.9725C112.774 78.9725 113.101 78.6456 113.101 78.2425C113.101 77.8393 112.774 77.5125 112.371 77.5125C111.967 77.5125 111.641 77.8393 111.641 78.2425C111.641 78.6456 111.967 78.9725 112.371 78.9725Z" fill="#F1CE30"/>
<path d="M144.291 73.9128C144.291 74.4627 143.852 74.9027 143.302 74.9027C142.752 74.9027 142.312 74.4627 142.312 73.9128C142.312 73.3628 142.752 72.9229 143.302 72.9229C143.852 72.9229 144.291 73.3628 144.291 73.9128Z" fill="#F1CE30"/>
<path d="M131.7 83.9119C131.7 84.3219 131.37 84.6419 130.97 84.6419C130.57 84.6419 130.24 84.3119 130.24 83.9119C130.24 83.5119 130.57 83.1819 130.97 83.1819C131.37 83.1819 131.7 83.5119 131.7 83.9119Z" fill="#F1CE30"/>
<path d="M134.627 42.9158C134.627 43.4658 134.188 43.9057 133.638 43.9057C133.088 43.9057 132.648 43.4658 132.648 42.9158C132.648 42.3659 133.088 41.9259 133.638 41.9259C134.188 41.9259 134.627 42.3659 134.627 42.9158Z" fill="#F1CE30"/>
<path d="M143.952 53.2449C143.952 53.6549 143.622 53.9749 143.222 53.9749C142.822 53.9749 142.492 53.6449 142.492 53.2449C142.492 52.8449 142.822 52.5149 143.222 52.5149C143.622 52.5149 143.952 52.8449 143.952 53.2449Z" fill="#F1CE30"/>
<path d="M100.317 23.9176C100.317 24.4676 99.877 24.9075 99.3273 24.9075C98.7776 24.9075 98.3379 24.4676 98.3379 23.9176C98.3379 23.3677 98.7776 22.9277 99.3273 22.9277C99.877 22.9277 100.317 23.3677 100.317 23.9176Z" fill="#F1CE30"/>
<path d="M109.372 14.5786C109.372 14.9886 109.042 15.3086 108.642 15.3086C108.242 15.3086 107.912 14.9786 107.912 14.5786C107.912 14.1786 108.242 13.8486 108.642 13.8486C109.042 13.8486 109.372 14.1786 109.372 14.5786Z" fill="#F1CE30"/>
<path d="M40.0101 90.9112C40.0101 91.4611 39.5704 91.9011 39.0207 91.9011C38.471 91.9011 38.0312 91.4611 38.0312 90.9112C38.0312 90.3612 38.471 89.9213 39.0207 89.9213C39.5704 89.9213 40.0101 90.3612 40.0101 90.9112Z" fill="#F1CE30"/>
<path d="M78.9878 13.7088C79.391 13.7088 79.7178 13.3819 79.7178 12.9788C79.7178 12.5756 79.391 12.2488 78.9878 12.2488C78.5846 12.2488 78.2578 12.5756 78.2578 12.9788C78.2578 13.3819 78.5846 13.7088 78.9878 13.7088Z" fill="#F1CE30"/>
<path d="M36.0324 68.2333C36.5789 68.2333 37.0219 67.7902 37.0219 67.2434C37.0219 66.6967 36.5789 66.2535 36.0324 66.2535C35.486 66.2535 35.043 66.6967 35.043 67.2434C35.043 67.7902 35.486 68.2333 36.0324 68.2333Z" fill="#F1CE30"/>
<path d="M49.605 77.9726C50.0082 77.9726 50.335 77.6457 50.335 77.2426C50.335 76.8394 50.0082 76.5126 49.605 76.5126C49.2018 76.5126 48.875 76.8394 48.875 77.2426C48.875 77.6457 49.2018 77.9726 49.605 77.9726Z" fill="#F1CE30"/>
<path d="M128.202 58.3044C128.202 58.8543 127.762 59.2943 127.212 59.2943C126.662 59.2943 126.223 58.8543 126.223 58.3044C126.223 57.7544 126.662 57.3145 127.212 57.3145C127.762 57.3145 128.202 57.7544 128.202 58.3044Z" fill="#F1CE30"/>
<path d="M59.001 22.5779C59.001 22.9879 58.671 23.3079 58.271 23.3079C57.871 23.3079 57.541 22.9779 57.541 22.5779C57.541 22.1779 57.871 21.8479 58.271 21.8479C58.671 21.8479 59.001 22.1779 59.001 22.5779Z" fill="#F1CE30"/>
</svg>
