<svg width="42" height="42" viewBox="0 0 42 42" fill="none" xmlns="http://www.w3.org/2000/svg">
<path fill-rule="evenodd" clip-rule="evenodd" d="M16.344 2.24589C16.9302 1.59118 17.6479 1.06747 18.4502 0.708915C19.2525 0.350363 20.1214 0.165039 21.0002 0.165039C21.879 0.165039 22.7479 0.350363 23.5503 0.708915C24.3526 1.06747 25.0703 1.59118 25.6565 2.24589L27.1148 3.87505C27.3232 4.10819 27.5815 4.29142 27.8703 4.41116C28.1592 4.53089 28.4713 4.58406 28.7836 4.56672L30.9711 4.44589C31.8483 4.39771 32.7257 4.535 33.5463 4.8488C34.3668 5.1626 35.112 5.64586 35.7332 6.26706C36.3544 6.88826 36.8377 7.63344 37.1515 8.45399C37.4653 9.27455 37.6026 10.152 37.5544 11.0292L37.4336 13.2167C37.4165 13.5286 37.4699 13.8403 37.5896 14.1288C37.7093 14.4173 37.8924 14.6752 38.1252 14.8834L39.7565 16.3417C40.4115 16.9279 40.9355 17.6458 41.2943 18.4483C41.6531 19.2508 41.8385 20.12 41.8385 20.999C41.8385 21.8781 41.6531 22.7472 41.2943 23.5498C40.9355 24.3523 40.4115 25.0701 39.7565 25.6563L38.1252 27.1146C37.8921 27.323 37.7089 27.5813 37.5891 27.8701C37.4694 28.159 37.4162 28.4712 37.4336 28.7834L37.5544 30.9709C37.6026 31.8481 37.4653 32.7256 37.1515 33.5461C36.8377 34.3667 36.3544 35.1118 35.7332 35.733C35.112 36.3542 34.3668 36.8375 33.5463 37.1513C32.7257 37.4651 31.8483 37.6024 30.9711 37.5542L28.7836 37.4334C28.4717 37.4164 28.16 37.4697 27.8715 37.5894C27.583 37.7091 27.3251 37.8922 27.1169 38.125L25.6586 39.7563C25.0723 40.4113 24.3545 40.9354 23.552 41.2941C22.7495 41.6529 21.8803 41.8383 21.0013 41.8383C20.1222 41.8383 19.2531 41.6529 18.4505 41.2941C17.648 40.9354 16.9302 40.4113 16.344 39.7563L14.8857 38.125C14.6772 37.8919 14.419 37.7087 14.1301 37.5889C13.8413 37.4692 13.5291 37.416 13.2169 37.4334L11.0294 37.5542C10.1522 37.6024 9.27473 37.4651 8.45418 37.1513C7.63363 36.8375 6.88845 36.3542 6.26725 35.733C5.64605 35.1118 5.16279 34.3667 4.84899 33.5461C4.53519 32.7256 4.3979 31.8481 4.44607 30.9709L4.56691 28.7834C4.58393 28.4715 4.53061 28.1598 4.41088 27.8713C4.29116 27.5828 4.1081 27.3249 3.87524 27.1167L2.24607 25.6584C1.59103 25.0722 1.06702 24.3544 0.708257 23.5518C0.349498 22.7493 0.164062 21.8801 0.164062 21.0011C0.164062 20.122 0.349498 19.2529 0.708257 18.4504C1.06702 17.6478 1.59103 16.93 2.24607 16.3438L3.87524 14.8855C4.10838 14.6771 4.29161 14.4188 4.41135 14.13C4.53108 13.8411 4.58425 13.5289 4.56691 13.2167L4.44607 11.0292C4.3979 10.152 4.53519 9.27455 4.84899 8.45399C5.16279 7.63344 5.64605 6.88826 6.26725 6.26706C6.88845 5.64586 7.63363 5.1626 8.45418 4.8488C9.27473 4.535 10.1522 4.39771 11.0294 4.44589L13.2169 4.56672C13.5288 4.58374 13.8405 4.53042 14.129 4.4107C14.4175 4.29097 14.6754 4.10791 14.8836 3.87505L16.344 2.24589ZM28.7232 13.2771C29.1137 13.6678 29.3331 14.1976 29.3331 14.7501C29.3331 15.3025 29.1137 15.8323 28.7232 16.223L16.2232 28.723C15.8302 29.1025 15.304 29.3125 14.7577 29.3077C14.2115 29.303 13.689 29.0839 13.3027 28.6976C12.9164 28.3113 12.6973 27.7888 12.6926 27.2426C12.6878 26.6963 12.8978 26.1701 13.2773 25.7771L25.7773 13.2771C26.168 12.8866 26.6978 12.6672 27.2502 12.6672C27.8027 12.6672 28.3325 12.8866 28.7232 13.2771ZM15.7919 12.6667C14.9631 12.6667 14.1682 12.996 13.5822 13.582C12.9961 14.1681 12.6669 14.9629 12.6669 15.7917V15.8126C12.6669 16.6414 12.9961 17.4362 13.5822 18.0223C14.1682 18.6083 14.9631 18.9376 15.7919 18.9376H15.8127C16.6415 18.9376 17.4364 18.6083 18.0224 18.0223C18.6085 17.4362 18.9377 16.6414 18.9377 15.8126V15.7917C18.9377 14.9629 18.6085 14.1681 18.0224 13.582C17.4364 12.996 16.6415 12.6667 15.8127 12.6667H15.7919ZM26.2086 23.0834C25.3798 23.0834 24.5849 23.4126 23.9989 23.9987C23.4128 24.5847 23.0836 25.3796 23.0836 26.2084V26.2292C23.0836 27.058 23.4128 27.8529 23.9989 28.4389C24.5849 29.025 25.3798 29.3542 26.2086 29.3542H26.2294C27.0582 29.3542 27.8531 29.025 28.4391 28.4389C29.0252 27.8529 29.3544 27.058 29.3544 26.2292V26.2084C29.3544 25.3796 29.0252 24.5847 28.4391 23.9987C27.8531 23.4126 27.0582 23.0834 26.2294 23.0834H26.2086Z" fill="white"/>
</svg>
