<svg width="96" height="146" viewBox="0 0 96 146" fill="none" xmlns="http://www.w3.org/2000/svg">
<rect x="50.8047" y="139.921" width="3.77995" height="4.40995" rx="1" transform="rotate(29.09 50.8047 139.921)" fill="white"/>
<rect x="72.3242" y="28.8516" width="1.74404" height="2.03471" rx="0.872019" fill="white"/>
<rect x="52.2148" y="21.5156" width="2.49033" height="2.90538" rx="1" transform="rotate(-22.65 52.2148 21.5156)" fill="white"/>
<rect x="4.91211" y="125.32" width="2.49033" height="2.90538" rx="1" transform="rotate(17.3473 4.91211 125.32)" fill="white"/>
<rect x="44.5488" y="38.9941" width="0.943117" height="1.1003" rx="0.471558" transform="rotate(17.3473 44.5488 38.9941)" fill="white"/>
<rect x="52.3496" y="107.618" width="0.943117" height="1.1003" rx="0.471558" transform="rotate(17.3473 52.3496 107.618)" fill="white"/>
<rect x="18.0859" y="4.44922" width="0.943117" height="1.1003" rx="0.471558" transform="rotate(17.3473 18.0859 4.44922)" fill="white"/>
<rect x="24.9961" y="75.5342" width="1.7909" height="2.08938" rx="0.895448" transform="rotate(17.3473 24.9961 75.5342)" fill="white"/>
<rect x="27.3066" y="102.116" width="1.7909" height="2.08938" rx="0.895448" transform="rotate(17.3473 27.3066 102.116)" fill="white"/>
<rect x="80.1113" y="127.75" width="1.7909" height="2.08938" rx="0.895448" transform="rotate(17.3473 80.1113 127.75)" fill="white"/>
<rect x="34.3086" y="28.7041" width="3.2083" height="3.74302" rx="1" transform="rotate(17.3473 34.3086 28.7041)" fill="white"/>
<rect x="7.62109" y="60.002" width="4.94728" height="5.77183" rx="1" transform="rotate(135.279 7.62109 60.002)" fill="white"/>
</svg>
