<svg width="30" height="30" viewBox="0 0 30 30" fill="none" xmlns="http://www.w3.org/2000/svg">
<path d="M15 26.25C13.4517 26.25 11.9933 25.9542 10.625 25.3625C9.25667 24.77 8.06501 23.9658 7.05001 22.95C6.03501 21.9342 5.23084 20.7425 4.63751 19.375C4.04417 18.0075 3.74834 16.5492 3.75001 15C3.75001 13.4467 4.04584 11.9871 4.63751 10.6212C5.23001 9.25458 6.03417 8.06417 7.05001 7.05C8.06584 6.03583 9.25751 5.23167 10.625 4.6375C11.9933 4.04583 13.4517 3.75 15 3.75C16.5533 3.75 18.0129 4.04583 19.3788 4.6375C20.7454 5.23 21.9363 6.03417 22.9513 7.05C23.9663 8.06583 24.77 9.25625 25.3625 10.6212C25.9542 11.9879 26.25 13.4475 26.25 15C26.25 16.5483 25.9542 18.0067 25.3625 19.375C24.77 20.7433 23.9658 21.935 22.95 22.95C21.9342 23.965 20.7438 24.7692 19.3788 25.3625C18.0138 25.9558 16.5542 26.2517 15 26.25ZM15 25.01C15.7333 24.0675 16.3383 23.1421 16.815 22.2337C17.2908 21.3254 17.6779 20.3087 17.9763 19.1837H12.0238C12.3546 20.3721 12.7496 21.4204 13.2088 22.3287C13.6688 23.2371 14.2658 24.1308 15 25.01ZM13.4088 24.8225C12.8254 24.135 12.2929 23.285 11.8113 22.2725C11.3296 21.2608 10.9713 20.2308 10.7363 19.1825H5.94251C6.65917 20.7367 7.67459 22.0117 8.98876 23.0075C10.3038 24.0025 11.7771 24.6075 13.4088 24.8225ZM16.5913 24.8225C18.2229 24.6075 19.6963 24.0025 21.0113 23.0075C22.3254 22.0117 23.3408 20.7367 24.0575 19.1825H19.265C18.9483 20.2467 18.5496 21.2846 18.0688 22.2962C17.5871 23.3087 17.0946 24.1517 16.5913 24.8225ZM5.43251 17.9337H10.4763C10.3813 17.4204 10.3146 16.9204 10.2763 16.4337C10.2363 15.9479 10.2163 15.47 10.2163 15C10.2163 14.53 10.2358 14.0521 10.275 13.5662C10.3142 13.0804 10.3808 12.5804 10.475 12.0662H5.43376C5.29792 12.4996 5.19167 12.9717 5.11501 13.4825C5.03834 13.9925 5.00001 14.4983 5.00001 15C5.00001 15.5017 5.03792 16.0079 5.11376 16.5187C5.18959 17.0296 5.29584 17.5008 5.43251 17.9325M11.7263 17.9325H18.2738C18.3688 17.42 18.4354 16.9283 18.4738 16.4575C18.5138 15.9875 18.5338 15.5017 18.5338 15C18.5338 14.4983 18.5142 14.0125 18.475 13.5425C18.4358 13.0725 18.3692 12.5808 18.275 12.0675H11.725C11.6308 12.58 11.5642 13.0717 11.525 13.5425C11.4858 14.0125 11.4663 14.4983 11.4663 15C11.4663 15.5017 11.4858 15.9875 11.525 16.4575C11.5642 16.9275 11.6321 17.4192 11.7263 17.9325ZM19.525 17.9325H24.5675C24.7033 17.5 24.8096 17.0287 24.8863 16.5187C24.9621 16.0079 25 15.5017 25 15C25 14.4983 24.9621 13.9921 24.8863 13.4812C24.8104 12.9704 24.7042 12.4992 24.5675 12.0675H19.5238C19.6188 12.58 19.6854 13.0796 19.7238 13.5662C19.7638 14.0529 19.7838 14.5308 19.7838 15C19.7838 15.4692 19.7642 15.9471 19.725 16.4337C19.6858 16.9204 19.6192 17.4204 19.525 17.9337M19.265 10.8175H24.0575C23.325 9.23083 22.3217 7.95583 21.0475 6.9925C19.7733 6.02917 18.2879 5.41625 16.5913 5.15375C17.1746 5.92125 17.6992 6.79917 18.165 7.7875C18.6308 8.775 18.9975 9.785 19.265 10.8175ZM12.0238 10.8175H17.9763C17.6463 9.64417 17.2392 8.58333 16.755 7.635C16.2708 6.68667 15.6858 5.805 15 4.99C14.3142 5.80417 13.7292 6.68583 13.245 7.635C12.7608 8.58417 12.3529 9.645 12.0238 10.8175ZM5.94376 10.8175H10.7363C11.0038 9.78583 11.3704 8.77583 11.8363 7.7875C12.3021 6.79917 12.8267 5.92125 13.41 5.15375C11.6983 5.41708 10.2092 6.03375 8.94251 7.00375C7.67584 7.97542 6.67584 9.24625 5.94251 10.8162" fill="black"/>
</svg>
