<svg width="253" height="253" viewBox="0 0 253 253" fill="none" xmlns="http://www.w3.org/2000/svg">
<g clip-path="url(#clip0_2761_4325)">
<path d="M44.7793 102.699C44.6431 101.464 45.0067 100.224 45.79 99.2533C46.5734 98.2826 47.7123 97.6602 48.9562 97.5232L63.0273 95.9725C64.0736 95.8575 65.128 96.0933 66.0229 96.6424C66.9178 97.1915 67.6018 98.0224 67.9661 99.0029L73.43 113.69L182.34 101.688C183.029 101.612 183.726 101.689 184.381 101.911C185.036 102.134 185.634 102.497 186.132 102.975C186.629 103.453 187.015 104.035 187.26 104.678C187.506 105.321 187.606 106.01 187.554 106.697L181.698 182.796C181.615 183.886 181.15 184.913 180.386 185.7C179.621 186.487 178.605 186.984 177.511 187.106L93.0848 196.409C91.9912 196.529 90.8905 196.265 89.9729 195.664C89.0554 195.062 88.3787 194.161 88.0598 193.115L65.7983 120.256L60.3957 105.694L49.9831 106.842C48.7392 106.979 47.4921 106.619 46.5162 105.843C45.5403 105.066 44.9155 103.935 44.7793 102.699ZM102.465 195.376C97.4896 195.924 92.934 198.413 89.8007 202.296C86.6674 206.179 85.2132 211.138 85.7579 216.08C86.3026 221.023 88.8016 225.546 92.7052 228.653C96.6089 231.761 101.597 233.198 106.573 232.65C111.549 232.102 116.105 229.612 119.238 225.729C122.371 221.847 123.825 216.888 123.281 211.945C122.736 207.002 120.237 202.48 116.333 199.372C112.43 196.265 107.441 194.827 102.465 195.376ZM168.13 188.139C163.155 188.688 158.599 191.177 155.466 195.06C152.332 198.943 150.878 203.901 151.423 208.844C151.968 213.787 154.467 218.31 158.37 221.417C162.274 224.524 167.262 225.962 172.238 225.414C177.214 224.865 181.77 222.376 184.903 218.493C188.036 214.61 189.49 209.652 188.946 204.709C188.401 199.766 185.902 195.244 181.998 192.136C178.095 189.029 173.106 187.591 168.13 188.139ZM103.492 204.694C105.98 204.42 108.475 205.139 110.426 206.693C112.378 208.246 113.628 210.508 113.9 212.979C114.172 215.451 113.445 217.93 111.879 219.871C110.312 221.813 108.034 223.057 105.546 223.331C103.058 223.606 100.564 222.887 98.6123 221.333C96.6605 219.779 95.4109 217.518 95.1386 215.047C94.8662 212.575 95.5934 210.096 97.16 208.155C98.7266 206.213 101.004 204.968 103.492 204.694ZM169.157 197.458C171.645 197.184 174.139 197.903 176.091 199.456C178.043 201.01 179.293 203.271 179.565 205.743C179.837 208.214 179.11 210.693 177.544 212.635C175.977 214.576 173.699 215.821 171.211 216.095C168.723 216.369 166.229 215.65 164.277 214.097C162.325 212.543 161.076 210.282 160.804 207.81C160.531 205.339 161.258 202.86 162.825 200.918C164.392 198.977 166.669 197.732 169.157 197.458Z" fill="#E4E4E4"/>
<path d="M116.728 132.934C107.502 134.717 102.385 146.258 116.94 161.911C131.002 176.955 134.557 177.329 134.82 177.3C135.083 177.271 138.523 176.126 148.919 158.387C159.68 140.097 152.157 129.796 142.816 130.059C133.564 130.16 130.644 138.446 130.567 138.71C130.381 138.475 125.791 131.118 116.728 132.934Z" fill="black"/>
</g>
<path d="M189.502 40.5674C181.733 39.9432 164.842 43.0954 159.44 60.698C152.687 82.7014 173.651 94.2133 176.657 75.295C179.664 56.3767 116 54 108 101" stroke="#B3B3B3" stroke-linecap="round" stroke-dasharray="4 4"/>
<circle cx="217" cy="52" r="19.5" fill="#E4E4E4" stroke="#B3B3B3" stroke-dasharray="6 6"/>
<path d="M216.981 58.176C215.861 58.176 214.97 57.8613 214.309 57.232C213.658 56.592 213.333 55.7333 213.333 54.656V50.144C213.333 49.0773 213.658 48.2347 214.309 47.616C214.97 46.9867 215.861 46.672 216.981 46.672C218.101 46.672 218.992 46.9867 219.653 47.616C220.325 48.2347 220.661 49.0773 220.661 50.144V54.656C220.661 55.7333 220.325 56.592 219.653 57.232C218.992 57.8613 218.101 58.176 216.981 58.176ZM216.981 56.56C217.536 56.56 217.978 56.4 218.309 56.08C218.64 55.7493 218.805 55.3067 218.805 54.752V50.08C218.805 49.5253 218.64 49.088 218.309 48.768C217.978 48.4373 217.536 48.272 216.981 48.272C216.437 48.272 216 48.4373 215.669 48.768C215.349 49.088 215.189 49.5253 215.189 50.08V54.752C215.189 55.3067 215.349 55.7493 215.669 56.08C216 56.4 216.437 56.56 216.981 56.56Z" fill="black"/>
<defs>
<clipPath id="clip0_2761_4325">
<rect width="151" height="150" fill="white" transform="translate(43.239 88.7214) rotate(-6.28865)"/>
</clipPath>
</defs>
</svg>
