<svg width="253" height="253" viewBox="0 0 253 253" fill="none" xmlns="http://www.w3.org/2000/svg">
<path d="M193.045 35.8566C186.614 33.3133 171.49 31.7205 162.438 45.6953C151.124 63.1639 165.98 78.6039 173.334 62.8644C180.687 47.125 127.298 28.6761 108.58 67.642" stroke="#B3B3B3" stroke-linecap="round" stroke-dasharray="4 4"/>
<circle cx="217" cy="48" r="19.5" fill="#E4E4E4" stroke="#B3B3B3" stroke-dasharray="6 6"/>
<path d="M216.981 54.176C215.861 54.176 214.97 53.8613 214.309 53.232C213.658 52.592 213.333 51.7333 213.333 50.656V46.144C213.333 45.0773 213.658 44.2347 214.309 43.616C214.97 42.9867 215.861 42.672 216.981 42.672C218.101 42.672 218.992 42.9867 219.653 43.616C220.325 44.2347 220.661 45.0773 220.661 46.144V50.656C220.661 51.7333 220.325 52.592 219.653 53.232C218.992 53.8613 218.101 54.176 216.981 54.176ZM216.981 52.56C217.536 52.56 217.978 52.4 218.309 52.08C218.64 51.7493 218.805 51.3067 218.805 50.752V46.08C218.805 45.5253 218.64 45.088 218.309 44.768C217.978 44.4373 217.536 44.272 216.981 44.272C216.437 44.272 216 44.4373 215.669 44.768C215.349 45.088 215.189 45.5253 215.189 46.08V50.752C215.189 51.3067 215.349 51.7493 215.669 52.08C216 52.4 216.437 52.56 216.981 52.56Z" fill="black"/>
<g clip-path="url(#clip0_2816_5748)">
<path d="M189.589 194.194L173.185 115.482C172.339 111.424 168.529 108.68 164.404 109.165L70.9213 120.161C66.8153 120.644 63.7596 124.158 63.8447 128.291L65.5692 209.64C65.809 220.827 75.7117 229.341 86.8231 227.906C110.781 224.82 149.866 219.779 173.552 216.71C184.445 215.306 191.829 204.934 189.59 194.199L189.589 194.194Z" fill="#E4E4E4"/>
<path d="M146.637 125.846C144.542 126.093 142.649 124.599 142.403 122.507L140.335 104.926C138.694 90.9805 126.667 80.8925 113.52 82.4389C100.373 83.9852 91.0147 96.5888 92.655 110.534L94.723 128.115C94.9692 130.208 93.4737 132.099 91.3788 132.346C89.2839 132.592 87.3903 131.099 87.1442 129.007L85.0762 111.425C82.9448 93.3046 95.3072 76.9064 112.63 74.8688C129.952 72.8313 145.782 85.9134 147.913 104.034L149.981 121.615C150.228 123.708 148.732 125.6 146.637 125.846Z" fill="black"/>
<path d="M133.436 198.146C133.686 200.073 131.761 201.558 129.965 200.817L118.462 193.463L113.283 206.093C112.923 206.961 111.934 207.379 111.056 207.02L104.521 204.347C103.649 203.992 103.23 203 103.589 202.123L108.732 189.587L96.2934 187.042C94.4983 186.306 94.1684 183.903 95.6982 182.705L124.582 160.191C126.126 158.986 128.397 159.917 128.653 161.857L133.435 198.132L133.436 198.146Z" fill="black"/>
<path d="M109.318 140.003C109.509 139.141 110.033 138.344 110.852 137.842C111.289 137.579 111.752 137.425 112.227 137.37C112.627 137.322 113.026 137.346 113.415 137.437C114.254 137.635 115.029 138.162 115.519 138.953L120.17 146.519C120.655 147.31 120.778 148.234 120.58 149.078C120.372 149.918 119.853 150.681 119.052 151.176C118.616 151.44 118.143 151.594 117.668 151.65C117.58 151.66 117.477 151.673 117.388 151.674C116.212 151.713 115.054 151.137 114.39 150.065L111.689 145.678L109.74 142.508C109.257 141.731 109.128 140.841 109.314 140.008L109.318 140.003Z" fill="black"/>
<path d="M134.875 149.866C134.081 150.219 133.156 150.267 132.282 149.936C131.705 149.721 131.229 149.367 130.87 148.923C130.121 148.012 129.872 146.74 130.324 145.565L132.164 140.747L133.496 137.267C133.817 136.419 134.453 135.773 135.223 135.414C136.028 135.037 136.974 134.972 137.873 135.314C138.747 135.645 139.405 136.303 139.758 137.096C140.111 137.889 140.168 138.811 139.827 139.686L136.658 147.978C136.327 148.852 135.668 149.509 134.874 149.862L134.875 149.866Z" fill="black"/>
<path d="M156.056 157.774C155.641 158.54 154.938 159.146 154.039 159.411L145.526 161.95C144.632 162.215 143.707 162.093 142.946 161.678C142.179 161.264 141.573 160.562 141.308 159.669C141.247 159.478 141.209 159.275 141.187 159.089C141.14 158.689 141.166 158.305 141.25 157.936C141.521 156.787 142.379 155.819 143.587 155.455L148.531 153.988L152.101 152.926C152.981 152.663 153.872 152.77 154.63 153.162C155.419 153.564 156.047 154.287 156.324 155.202C156.375 155.394 156.421 155.582 156.444 155.777C156.526 156.479 156.378 157.185 156.051 157.779L156.056 157.774Z" fill="black"/>
</g>
<defs>
<clipPath id="clip0_2816_5748">
<rect width="125.139" height="148.975" fill="white" transform="translate(50.4863 82.1777) rotate(-6.7086)"/>
</clipPath>
</defs>
</svg>
