<svg width="24" height="24" viewBox="0 0 24 24" fill="none" xmlns="http://www.w3.org/2000/svg">
<path d="M3.75 19.4993C3.75 20.2949 4.06607 21.058 4.62868 21.6206C5.19129 22.1832 5.95435 22.4993 6.75 22.4993H11.0625C11.1122 22.4993 11.1599 22.4795 11.1951 22.4443C11.2302 22.4092 11.25 22.3615 11.25 22.3118V13.6868C11.25 13.637 11.2302 13.5893 11.1951 13.5542C11.1599 13.519 11.1122 13.4993 11.0625 13.4993H4.125C4.02554 13.4993 3.93016 13.5388 3.85984 13.6091C3.78951 13.6794 3.75 13.7748 3.75 13.8743V19.4993ZM11.25 11.8118V6.74926H12.75V11.8118C12.75 11.8615 12.7698 11.9092 12.8049 11.9443C12.8401 11.9795 12.8878 11.9993 12.9375 11.9993H19.5C19.7555 11.9993 20.0092 11.9557 20.25 11.8704C20.6883 11.7147 21.0677 11.4274 21.3363 11.0476C21.6048 10.6679 21.7493 10.2144 21.75 9.74926V8.99926C21.75 8.40253 21.5129 7.83023 21.091 7.40827C20.669 6.98631 20.0967 6.74926 19.5 6.74926H17.5997C17.5834 6.749 17.5674 6.74448 17.5533 6.73615C17.5393 6.72781 17.5277 6.71595 17.5196 6.70174C17.5116 6.68754 17.5074 6.67147 17.5074 6.65514C17.5075 6.63881 17.5118 6.62278 17.52 6.60864C17.954 5.87593 18.0949 5.00624 17.9146 4.17396C17.7343 3.34168 17.246 2.60835 16.5476 2.12099C15.8492 1.63364 14.9925 1.42831 14.1491 1.54616C13.3057 1.66401 12.538 2.09634 12 2.75645C11.462 2.09634 10.6943 1.66401 9.85092 1.54616C9.00752 1.42831 8.15075 1.63364 7.4524 2.12099C6.75405 2.60835 6.26574 3.34168 6.0854 4.17396C5.90506 5.00624 6.04602 5.87593 6.48 6.60864C6.48817 6.62278 6.4925 6.63881 6.49257 6.65514C6.49263 6.67147 6.48843 6.68754 6.48038 6.70174C6.47233 6.71595 6.46071 6.72781 6.44666 6.73615C6.43262 6.74448 6.41664 6.749 6.40031 6.74926H4.5C3.90326 6.74926 3.33097 6.98631 2.90901 7.40827C2.48705 7.83023 2.25 8.40253 2.25 8.99926V9.74926C2.25066 10.2144 2.39517 10.6679 2.66372 11.0476C2.93227 11.4274 3.3117 11.7147 3.75 11.8704C3.99084 11.9557 4.24449 11.9993 4.5 11.9993H11.0625C11.1122 11.9993 11.1599 11.9795 11.1951 11.9443C11.2302 11.9092 11.25 11.8615 11.25 11.8118ZM12.75 4.87426C12.75 4.50342 12.86 4.14091 13.066 3.83257C13.272 3.52423 13.5649 3.2839 13.9075 3.14199C14.2501 3.00007 14.6271 2.96294 14.9908 3.03529C15.3545 3.10764 15.6886 3.28621 15.9508 3.54844C16.213 3.81066 16.3916 4.14475 16.464 4.50847C16.5363 4.87218 16.4992 5.24918 16.3573 5.59179C16.2154 5.9344 15.975 6.22724 15.6667 6.43327C15.3584 6.6393 14.9958 6.74926 14.625 6.74926H12.75V4.87426ZM9.24094 3.00395C9.49781 2.98554 9.75572 3.02024 9.9986 3.10589C10.2415 3.19154 10.4641 3.32631 10.6526 3.50178C10.8411 3.67726 10.9914 3.88969 11.0942 4.12582C11.197 4.36195 11.25 4.61673 11.25 4.87426V6.74926H9.375C8.89017 6.74802 8.42466 6.55902 8.07619 6.22193C7.72771 5.88484 7.52336 5.42587 7.50601 4.94135C7.48867 4.45683 7.65968 3.98442 7.98316 3.62327C8.30664 3.26213 8.75744 3.04033 9.24094 3.00442V3.00395ZM12.9375 22.4993H17.25C18.0456 22.4993 18.8087 22.1832 19.3713 21.6206C19.9339 21.058 20.25 20.2949 20.25 19.4993V13.8743C20.25 13.7748 20.2105 13.6794 20.1402 13.6091C20.0698 13.5388 19.9745 13.4993 19.875 13.4993H12.9375C12.8878 13.4993 12.8401 13.519 12.8049 13.5542C12.7698 13.5893 12.75 13.637 12.75 13.6868V22.3118C12.75 22.3615 12.7698 22.4092 12.8049 22.4443C12.8401 22.4795 12.8878 22.4993 12.9375 22.4993Z" fill="#CE0A24"/>
</svg>
