<svg width="35" height="34" viewBox="0 0 35 34" fill="none" xmlns="http://www.w3.org/2000/svg">
<path fill-rule="evenodd" clip-rule="evenodd" d="M19.403 2.36074C18.8562 1.94075 18.189 1.7146 17.5 1.7146C16.811 1.7146 16.1438 1.94075 15.597 2.36074L2.60396 12.3006C1.43371 13.1944 2.07899 15.0359 3.55547 15.0359H5.25069L6.51937 27.5496C6.59592 28.3034 6.95684 29.0034 7.52556 29.5095C8.09428 30.0157 8.83799 30.2957 9.60357 30.2957H25.3964C26.162 30.2957 26.9057 30.0157 27.4744 29.5095C28.0432 29.0034 28.4041 28.3034 28.4806 27.5496L29.7493 15.0359H31.4445C32.921 15.0359 33.5663 13.1944 32.396 12.3006L19.403 2.36074Z" fill="#CE0A24"/>
<path d="M21.0545 13.2697C18.5718 13.0543 17.5328 15.2296 17.5 15.2942C17.4672 15.2188 16.4391 13.0435 13.9455 13.2697C11.4191 13.4958 9.7239 16.5327 13.1471 21.2388C16.461 25.7941 17.4344 25.9987 17.4891 26.0094C17.5547 26.0094 18.5172 25.7833 21.831 21.2388C25.2543 16.5327 23.5591 13.4958 21.0326 13.2697H21.0545Z" fill="black"/>
</svg>
