<svg width="31" height="30" viewBox="0 0 31 30" fill="none" xmlns="http://www.w3.org/2000/svg">
<path fill-rule="evenodd" clip-rule="evenodd" d="M17.403 1.36074C16.8562 0.94075 16.189 0.7146 15.5 0.7146C14.811 0.7146 14.1438 0.94075 13.597 1.36074L0.603961 11.3006C-0.566286 12.1944 0.0789899 14.0359 1.55547 14.0359H3.25069L4.51937 26.5496C4.59592 27.3034 4.95684 28.0034 5.52556 28.5095C6.09428 29.0157 6.83799 29.2957 7.60357 29.2957H23.3964C24.162 29.2957 24.9057 29.0157 25.4744 28.5095C26.0432 28.0034 26.4041 27.3034 26.4806 26.5496L27.7493 14.0359H29.4445C30.921 14.0359 31.5663 12.1944 30.396 11.3006L17.403 1.36074Z" fill="#B3B3B3"/>
<path d="M19.0545 12.2697C16.5718 12.0543 15.5328 14.2296 15.5 14.2942C15.4672 14.2188 14.4391 12.0435 11.9455 12.2697C9.41911 12.4958 7.7239 15.5327 11.1471 20.2388C14.461 24.7941 15.4344 24.9987 15.4891 25.0094C15.5547 25.0094 16.5172 24.7833 19.831 20.2388C23.2543 15.5327 21.5591 12.4958 19.0326 12.2697H19.0545Z" fill="black"/>
</svg>
