<svg width="24" height="24" viewBox="0 0 24 24" fill="none" xmlns="http://www.w3.org/2000/svg">
<path fill-rule="evenodd" clip-rule="evenodd" d="M11.262 22.134C11.262 22.134 4 16.018 4 10C4 7.87827 4.84285 5.84344 6.34315 4.34315C7.84344 2.84285 9.87827 2 12 2C14.1217 2 16.1566 2.84285 17.6569 4.34315C19.1571 5.84344 20 7.87827 20 10C20 16.018 12.738 22.134 12.738 22.134C12.334 22.506 11.669 22.502 11.262 22.134Z" fill="black"/>
<path d="M12.001 8.28074C12.0194 8.2363 12.6772 6.87201 14.2644 7.00977C15.8745 7.15197 16.9555 9.05399 14.7704 12.0048C12.6723 14.8396 12.0458 14.9893 12.0018 14.9998L12.001 15L12.0003 14.9998C11.9568 14.9894 11.3351 14.8407 9.23159 12.0048C7.04184 9.05399 8.12752 7.15197 9.73763 7.00977C11.3247 6.87201 11.978 8.2363 12.001 8.28074Z" fill="white"/>
</svg>
