<svg width="40" height="40" viewBox="0 0 40 40" fill="none" xmlns="http://www.w3.org/2000/svg">
<circle cx="20" cy="20" r="20" fill="#FFEF94"/>
<path d="M24.6533 17.9005C25.754 13.6833 28.6657 11.8342 27.622 9.16859C26.5782 6.50297 23.3178 6.25951 23.3178 6.25951C23.3178 6.25951 20.1103 5.62812 18.392 7.91027C16.6738 10.1924 18.9833 12.7603 18.9149 17.1182C18.8813 19.1795 18.003 20.4046 18.003 20.4046L24.6598 21.3121C24.6598 21.3121 24.1415 19.8966 24.6609 17.9016L24.6533 17.9005Z" fill="#F58F5C"/>
<path d="M16.3717 20.1823L26.2696 21.5317C26.8085 21.6052 27.195 22.0599 27.1291 22.5431L26.9528 23.8362L15.0966 22.2199L15.2729 20.9268C15.3388 20.4436 15.8328 20.1088 16.3717 20.1823Z" fill="#FED150"/>
<path d="M27.4977 26.3701L13.8805 24.5137C13.2475 24.4274 12.6716 24.8175 12.5943 25.3851L12.3707 27.0253C12.2933 27.5928 12.7437 28.1229 13.3767 28.2092L26.9939 30.0656C27.6269 30.1519 28.2028 29.7618 28.2802 29.1942L28.5038 27.554C28.5811 26.9865 28.1307 26.4564 27.4977 26.3701Z" fill="#272727"/>
<path d="M29.051 24.1223L12.9821 21.9316C12.3491 21.8453 11.7732 22.2355 11.6958 22.8031L11.3952 25.0081C11.3178 25.5757 11.7683 26.1057 12.4013 26.192L28.4701 28.3827C29.1032 28.469 29.679 28.0789 29.7564 27.5113L30.057 25.3062C30.1344 24.7387 29.684 24.2086 29.051 24.1223Z" fill="#F58F5C"/>
<path d="M20.4938 17.3331C20.5622 12.9752 18.2517 10.4141 19.9709 8.12518C21.1583 6.56094 23.0403 6.36692 24.1026 6.40083C23.6309 6.288 23.3179 6.25918 23.3179 6.25918C23.3179 6.25918 20.1103 5.6278 18.3921 7.90994C16.6738 10.1921 18.9834 12.7599 18.915 17.1179C18.8814 19.1791 18.0031 20.4042 18.0031 20.4042L19.5895 20.6205C19.5895 20.6205 20.4678 19.3954 20.5014 17.3342L20.4938 17.3331Z" fill="#85CBB4"/>
<path d="M17.9581 20.3986L16.3717 20.1823C15.8328 20.1088 15.3388 20.4436 15.2729 20.9268L15.0966 22.2199L16.683 22.4361L16.8593 21.143C16.9252 20.6598 17.4192 20.3251 17.9581 20.3986Z" fill="#F6B947"/>
<path d="M12.9816 25.2244L13.2822 23.0193C13.3592 22.4545 13.9385 22.062 14.5685 22.1479L12.9821 21.9316C12.3521 21.8458 11.7728 22.2382 11.6958 22.8031L11.3952 25.0081C11.3173 25.5798 11.7713 26.1061 12.4013 26.192L13.9877 26.4083C13.3577 26.3224 12.9046 25.7893 12.9816 25.2244Z" fill="#85CBB4"/>
<path d="M31.5381 13.6453C31.8438 13.3086 32.3534 12 32.3534 12C32.3534 12 32.9279 13.2797 33.2522 13.5972C33.5765 13.9148 34.8459 14.444 34.8459 14.444C34.8459 14.444 33.6136 15.0405 33.2985 15.3773C32.9928 15.7141 32.4832 17.0226 32.4832 17.0226C32.4832 17.0226 31.9087 15.7429 31.5844 15.4254C31.2601 15.1079 30 14.5787 30 14.5787C30 14.5787 31.2323 13.9821 31.5473 13.6453H31.5381Z" fill="#F58F5C"/>
<path d="M7.54734 15.3426C7.8531 15.0058 8.36271 13.6973 8.36271 13.6973C8.36271 13.6973 8.93717 14.977 9.26146 15.3041C9.58575 15.6216 10.8459 16.1508 10.8459 16.1508C10.8459 16.1508 9.61355 16.7474 9.29852 17.0842C8.99276 17.4209 8.48316 18.7295 8.48316 18.7295C8.48316 18.7295 7.9087 17.4498 7.5844 17.1227C7.26011 16.8051 6 16.2759 6 16.2759C6 16.2759 7.23231 15.6794 7.54734 15.3426Z" fill="#F58F5C"/>
<path d="M11.9647 7.2608C12.1985 7.00274 12.5883 6 12.5883 6C12.5883 6 13.0277 6.98062 13.2757 7.22393C13.5237 7.46725 14.4875 7.87277 14.4875 7.87277C14.4875 7.87277 13.545 8.3299 13.304 8.58796C13.0702 8.84602 12.6804 9.84876 12.6804 9.84876C12.6804 9.84876 12.2411 8.86813 11.993 8.61745C11.745 8.37414 10.7812 7.96862 10.7812 7.96862C10.7812 7.96862 11.7237 7.51148 11.9576 7.25343L11.9647 7.2608Z" fill="#F58F5C"/>
<path d="M27.5863 34.8222C27.721 34.6688 27.8104 34.509 27.8623 34.3454C27.9686 34.2826 28.0441 34.1996 28.0999 34.1154C28.3392 33.7557 28.6106 33.2608 28.2899 32.9086C28.8977 32.6404 29.1845 32.4382 29.7924 32.1701C30.0786 32.0438 30.371 31.8615 30.4712 31.6573C30.5714 31.4531 30.3575 31.2188 29.9916 31.2122C29.6555 31.2061 29.5598 31.3696 29.3725 31.529C29.0468 31.8059 27.8767 32.2776 27.6936 32.2774C27.3939 32.2773 27.1079 32.105 26.7441 31.9662C26.4669 31.8603 26.0961 31.735 25.7455 31.7237C25.3214 31.5756 24.8519 31.4848 24.3548 31.4739C22.6883 31.4375 21.1415 31.9754 19.6992 32.3617C17.3891 32.9804 15.4562 32.652 13.1162 32.183C12.5771 32.0751 11.1238 31.4278 10.6371 31.9222C10.0029 32.5668 11.0717 33.3727 11.8 33.8521C13.8069 35.173 16.4837 36.0931 19.3968 36.3918C22.3227 36.6916 26.0899 36.5262 27.5859 34.8221L27.5863 34.8222Z" fill="#F58F5C"/>
</svg>
