<svg width="175" height="151" viewBox="0 0 175 151" fill="none" xmlns="http://www.w3.org/2000/svg">
<rect x="12.9258" y="0.5" width="150" height="150" rx="75" fill="#FFF8B2"/>
<g style="mix-blend-mode:multiply" opacity="0.2">
<path d="M43.4766 82.2582C43.4766 79.0344 64.9956 81.5356 80.0463 83.6755L94.3829 85.8849L143.889 74.2266C143.959 75.1159 144.309 78.8121 144.785 83.9118C134.943 87.2328 99.7732 94.1667 95.489 95.1255C95.629 97.0847 52.129 92.6243 43.6726 90.7901C43.5186 86.5241 43.4766 83.3559 43.4766 82.2582Z" fill="#231F20"/>
</g>
<path d="M93.2464 125.458L147.975 128.862L143.887 74.2249L89.1582 70.8066L93.2464 125.458Z" fill="#995900"/>
<path d="M50.4189 132.169L93.2469 125.458L89.1587 70.8066L43.4746 82.2566L50.4189 132.169Z" fill="#E08323"/>
<path d="M143.888 74.2246C144.14 77.6429 148.564 122.484 148.312 128.737C148.046 134.99 104.84 141.785 95.95 141.59C87.0596 141.396 80.0312 104.878 80.0312 104.878L94.3819 85.883L143.888 74.2246Z" fill="#FAA500"/>
<path d="M94.3811 85.8826C94.3811 85.8826 100.135 136.393 98.8893 140.603C97.6433 144.814 54.8993 138.116 50.167 136.184C44.6088 133.92 43.4607 87.2166 43.4747 82.2559C43.4747 77.2952 94.3811 85.8826 94.3811 85.8826Z" fill="#FFCD41"/>
<path d="M85.9953 75.5312C86.2333 75.7535 86.4013 76.0315 86.6673 76.2399C86.8913 76.4066 87.0453 76.6706 87.2553 76.9208C87.1293 76.9763 87.0313 77.0041 86.9893 77.018C86.2473 76.8791 85.5612 76.7401 84.8612 76.6012C84.8892 76.7401 84.9032 76.8791 84.9312 77.018C84.9872 77.3376 85.0152 77.6572 85.0572 77.9768C85.1132 78.2686 85.1692 78.5743 85.0852 78.8522C85.0292 78.9078 84.9732 78.9356 84.9172 78.9912C84.4972 78.491 84.0772 78.0046 83.6571 77.5044C83.6431 77.4905 83.6151 77.4766 83.6151 77.4488C83.6011 77.2404 83.4051 77.1431 83.3211 76.9902C82.6071 77.0736 81.9211 77.1709 81.207 77.2543C81.249 77.157 81.277 77.0736 81.319 77.0041C81.333 76.9624 81.389 76.9486 81.417 76.9208C81.6691 76.7123 81.9071 76.49 82.1731 76.2955C82.4391 76.1009 82.6211 75.823 82.9011 75.5868C82.7471 74.892 82.4391 74.2111 82.4111 73.4608C82.8031 73.5025 83.0831 73.7804 83.4331 73.9332C83.7832 74.0861 84.0912 74.3084 84.4272 74.489C84.6792 74.3084 84.8752 74.1 85.1412 73.9749C85.3092 73.8915 85.4212 73.7387 85.5752 73.6275C85.7152 73.5303 85.8693 73.4469 86.0373 73.3496C86.0653 73.3913 86.1073 73.4191 86.1493 73.4886C86.1213 73.5997 86.0793 73.7387 86.0513 73.8637C86.0373 74.0166 85.9393 74.1139 85.8833 74.2528C85.7713 74.5307 85.7013 74.8364 85.6032 75.1699C85.7293 75.2811 85.8693 75.3923 85.9953 75.5173V75.5312ZM85.4352 75.7813C85.4352 75.7813 85.4212 75.7952 85.4072 75.8091C85.4352 75.8369 85.4632 75.8786 85.4912 75.9064C85.4912 75.9064 85.5052 75.8925 85.5192 75.8786L85.4352 75.7813ZM85.6312 75.962C85.6312 75.962 85.6312 75.962 85.6452 75.9481C85.6312 75.9342 85.6172 75.9203 85.6032 75.8925C85.6032 75.8925 85.6032 75.8925 85.5892 75.9064C85.6032 75.9203 85.6172 75.9342 85.6312 75.962Z" fill="#F2B100"/>
<path d="M116.476 72.3225C116.714 72.5587 116.882 72.8366 117.162 73.0311C117.386 73.1979 117.54 73.4619 117.75 73.712C117.624 73.7676 117.526 73.7954 117.484 73.8093C116.742 73.6564 116.056 73.5314 115.356 73.3924C115.384 73.5314 115.398 73.6703 115.426 73.8093C115.482 74.1289 115.51 74.4485 115.552 74.7681C115.608 75.0599 115.664 75.3656 115.58 75.6435C115.524 75.6991 115.468 75.7408 115.412 75.7824C114.992 75.2822 114.11 74.2678 114.11 74.24C114.096 74.0316 113.9 73.9343 113.802 73.7815C113.088 73.8787 112.402 73.9621 111.688 74.0455C111.73 73.9482 111.757 73.8649 111.814 73.7954C111.828 73.7537 111.884 73.7398 111.912 73.712C112.164 73.5036 112.402 73.2812 112.668 73.0867C112.934 72.8922 113.116 72.6143 113.396 72.378C113.242 71.6833 112.934 70.9885 112.906 70.2381C113.298 70.2798 113.578 70.5577 113.928 70.7106C114.278 70.8634 114.6 71.0857 114.922 71.2664C115.174 71.0857 115.37 70.8773 115.636 70.7522C115.804 70.6689 115.916 70.516 116.07 70.4049C116.21 70.3076 116.364 70.2242 116.532 70.127C116.56 70.1686 116.602 70.1964 116.644 70.2659C116.616 70.3771 116.574 70.516 116.546 70.6411C116.532 70.7939 116.42 70.9051 116.378 71.0302C116.266 71.3081 116.196 71.6138 116.098 71.9473C116.224 72.0584 116.364 72.1696 116.49 72.2947L116.476 72.3225ZM115.902 72.5865C115.902 72.5865 115.888 72.6004 115.874 72.6143C115.902 72.642 115.93 72.6837 115.958 72.7115C115.958 72.7115 115.972 72.6976 115.986 72.6837L115.902 72.5865ZM116.112 72.7671C116.112 72.7671 116.112 72.7671 116.126 72.7532C116.112 72.7393 116.098 72.7254 116.084 72.6976C116.084 72.6976 116.084 72.7393 116.112 72.7671Z" fill="#FF8200"/>
<path d="M22.6847 17.0178C22.9227 17.254 23.0907 17.5319 23.3707 17.7264C23.5948 17.8932 23.7488 18.1572 23.9588 18.4073C23.8328 18.4629 23.7348 18.4907 23.6928 18.5046C22.9507 18.3517 22.2647 18.2267 21.5647 18.0877C21.5927 18.2267 21.6067 18.3656 21.6347 18.5046C21.6907 18.8242 21.7187 19.1438 21.7607 19.4634C21.8167 19.7552 21.8727 20.0609 21.7887 20.3388C21.7327 20.3944 21.6767 20.4361 21.6207 20.4778C21.2006 19.9775 20.3186 18.9631 20.3186 18.9353C20.3046 18.7269 20.1086 18.6296 20.0106 18.4768C19.2966 18.5741 18.6105 18.6574 17.8965 18.7408C17.9385 18.6435 17.9665 18.5602 18.0225 18.4907C18.0365 18.449 18.0925 18.4351 18.1205 18.4073C18.3725 18.1989 18.6105 17.9766 18.8765 17.782C19.1425 17.5875 19.3246 17.3096 19.6046 17.0733C19.4506 16.3786 19.1425 15.6838 19.1145 14.9334C19.5066 14.9751 19.7866 15.253 20.1366 15.4059C20.4866 15.5587 20.8086 15.7811 21.1306 15.9617C21.3826 15.7811 21.5787 15.5726 21.8447 15.4476C22.0127 15.3642 22.1247 15.2113 22.2787 15.1002C22.4187 15.0029 22.5727 14.9195 22.7407 14.8223C22.7687 14.864 22.8107 14.8917 22.8527 14.9612C22.8247 15.0724 22.7827 15.2113 22.7547 15.3364C22.7407 15.4893 22.6287 15.6004 22.5867 15.7255C22.4747 16.0034 22.4047 16.3091 22.3067 16.6426C22.4327 16.7537 22.5727 16.8649 22.6987 16.99L22.6847 17.0178ZM22.1247 17.2679C22.1247 17.2679 22.1107 17.2818 22.0967 17.2957C22.1247 17.3235 22.1527 17.3652 22.1807 17.3929C22.1807 17.3929 22.1947 17.379 22.2087 17.3651L22.1247 17.2679ZM22.3207 17.4485C22.3207 17.4485 22.3207 17.4485 22.3347 17.4346C22.3207 17.4207 22.3067 17.4068 22.2927 17.379C22.2927 17.379 22.2927 17.4207 22.3207 17.4485Z" fill="#FF8200"/>
<path d="M103.581 75.3365C104.085 75.4755 104.561 75.7256 105.093 75.7951C105.541 75.8646 105.975 76.1008 106.451 76.2675C106.311 76.4343 106.213 76.5593 106.171 76.6149C105.023 76.9901 103.959 77.3375 102.867 77.6988C103.007 77.8655 103.147 78.0462 103.287 78.2268C103.623 78.6298 103.903 79.0605 104.239 79.4635C104.533 79.8248 104.883 80.2 104.967 80.6724C104.925 80.7836 104.883 80.8809 104.841 81.0059C103.847 80.6446 102.867 80.2834 101.887 79.9221C101.859 79.9221 101.803 79.9082 101.789 79.8804C101.593 79.6025 101.257 79.6164 101.005 79.4774C100.08 80.1583 99.1984 80.8253 98.2744 81.5062C98.2604 81.3394 98.2324 81.2005 98.2324 81.0615C98.2324 80.992 98.2744 80.9364 98.3024 80.867C98.4844 80.3806 98.6384 79.8804 98.8484 79.4079C99.0724 78.9216 99.1004 78.3936 99.2965 77.8516C98.5264 76.9901 97.5464 76.2814 96.9023 75.2532C97.4904 75.003 98.1064 75.1698 98.6944 75.1142C99.2965 75.0447 99.9125 75.1142 100.529 75.1142C100.739 74.6557 100.851 74.211 101.117 73.8358C101.285 73.5996 101.313 73.28 101.439 73.016C101.551 72.7659 101.705 72.5296 101.859 72.2656C101.929 72.2934 102.013 72.3212 102.125 72.3629C102.181 72.5435 102.209 72.7659 102.293 72.9604C102.391 73.1827 102.335 73.419 102.363 73.6274C102.433 74.1137 102.573 74.5862 102.713 75.1281C102.993 75.1837 103.273 75.2254 103.539 75.3088L103.581 75.3365ZM103.007 76.1425C103.007 76.1425 103.007 76.1703 102.993 76.1981C103.063 76.2259 103.119 76.2397 103.189 76.2675C103.189 76.2536 103.189 76.2397 103.203 76.212C103.133 76.1842 103.077 76.1703 103.007 76.1425ZM103.413 76.2259V76.1981C103.385 76.1981 103.343 76.1703 103.315 76.1564V76.1842C103.343 76.1842 103.385 76.212 103.413 76.2259Z" fill="#F2B100"/>
<path d="M149.601 58.6206C149.993 58.8568 150.329 59.1764 150.763 59.3709C151.127 59.5377 151.435 59.8295 151.799 60.1074C151.645 60.2186 151.533 60.3019 151.477 60.3297C150.413 60.3714 149.419 60.4131 148.425 60.4548C148.495 60.6354 148.579 60.8161 148.649 60.9967C148.831 61.4136 148.971 61.8582 149.153 62.2751C149.321 62.6503 149.517 63.0533 149.475 63.4701C149.405 63.5535 149.363 63.623 149.293 63.7202C148.537 63.1783 146.997 62.0667 146.997 62.0389C146.899 61.761 146.605 61.6915 146.437 61.5109C145.499 61.8721 144.575 62.2195 143.637 62.5669C143.665 62.4141 143.679 62.3029 143.721 62.1778C143.735 62.1223 143.791 62.0806 143.833 62.025C144.099 61.6498 144.365 61.2746 144.659 60.9272C144.967 60.566 145.121 60.1352 145.415 59.7183C144.967 58.8151 144.323 57.9814 144.029 56.9531C144.589 56.8836 145.065 57.1754 145.583 57.2588C146.115 57.3422 146.619 57.5506 147.123 57.7035C147.417 57.37 147.613 57.0226 147.935 56.7586C148.131 56.6057 148.243 56.3417 148.411 56.1472C148.565 55.9665 148.761 55.7998 148.943 55.6191C148.999 55.6608 149.055 55.7025 149.139 55.772C149.139 55.9387 149.111 56.1333 149.139 56.3139C149.167 56.5224 149.055 56.703 149.041 56.8975C148.985 57.3283 148.985 57.7591 148.971 58.2454C149.195 58.3566 149.419 58.4677 149.629 58.5928L149.601 58.6206ZM148.915 59.1764C148.915 59.1764 148.901 59.2042 148.887 59.2181C148.943 59.2598 148.985 59.2876 149.041 59.3293C149.041 59.3293 149.055 59.3015 149.069 59.2876L148.915 59.1764ZM149.237 59.3431C149.237 59.3431 149.237 59.3293 149.251 59.3154C149.223 59.3015 149.195 59.2737 149.181 59.2598C149.181 59.2598 149.209 59.3154 149.237 59.3431Z" fill="#FF8200"/>
<path d="M128.908 47.4491C129.146 47.3102 129.412 47.2268 129.622 47.0601C129.804 46.9211 130.056 46.8377 130.294 46.7266C130.308 46.8377 130.322 46.9211 130.322 46.9628C130.056 47.5186 129.79 48.0466 129.538 48.5747C129.65 48.5747 129.776 48.6025 129.888 48.6025C130.154 48.6302 130.42 48.6719 130.7 48.6997C130.938 48.7136 131.204 48.7275 131.414 48.8665C131.442 48.922 131.47 48.9776 131.498 49.0332C131.008 49.2694 130.518 49.5057 130.028 49.728C130.014 49.728 130 49.7558 129.986 49.7558C129.804 49.728 129.692 49.867 129.552 49.8947C129.482 50.4784 129.398 51.0481 129.328 51.6317C129.258 51.5761 129.202 51.5344 129.146 51.4788C129.118 51.451 129.118 51.4094 129.104 51.3816C128.992 51.1453 128.852 50.8952 128.754 50.6451C128.656 50.3811 128.46 50.1865 128.334 49.9225C127.732 49.8947 127.116 50.0059 126.5 49.8669C126.612 49.5612 126.906 49.3945 127.088 49.1583C127.284 48.9082 127.522 48.6997 127.746 48.4774C127.648 48.2412 127.522 48.0327 127.48 47.7965C127.452 47.6576 127.34 47.5186 127.284 47.3796C127.228 47.2407 127.2 47.1017 127.158 46.9628C127.2 46.9489 127.228 46.9211 127.284 46.8933C127.368 46.935 127.466 47.0045 127.564 47.0462C127.676 47.0878 127.746 47.199 127.844 47.2546C128.054 47.4074 128.278 47.5186 128.53 47.6715C128.656 47.5881 128.768 47.5047 128.894 47.4352L128.908 47.4491ZM129.006 47.9633C129.006 47.9633 129.006 47.9772 129.006 47.9911C129.034 47.9772 129.076 47.9633 129.104 47.9494C129.104 47.9494 129.104 47.9355 129.104 47.9216C129.076 47.9355 129.034 47.9494 129.006 47.9633ZM129.188 47.8382C129.188 47.8382 129.188 47.8382 129.188 47.8243C129.174 47.8243 129.16 47.8382 129.146 47.8521C129.146 47.8521 129.146 47.8521 129.146 47.866C129.16 47.866 129.174 47.8521 129.188 47.8382Z" fill="#F2B100"/>
<path d="M8.41788 81.4648C8.65589 81.3258 8.9219 81.2424 9.13191 81.0757C9.31392 80.9367 9.56593 80.8534 9.80395 80.7422C9.81795 80.8534 9.83195 80.9367 9.83195 80.9784C9.56593 81.5342 9.29992 82.0623 9.04791 82.5903C9.15991 82.5903 9.28592 82.6181 9.39792 82.6181C9.66394 82.6459 9.92995 82.6876 10.21 82.7154C10.448 82.7292 10.714 82.7431 10.924 82.8821C10.952 82.9377 10.98 82.9933 11.008 83.0489C10.518 83.2851 10.028 83.5213 9.53793 83.7436C9.52393 83.7436 9.50993 83.7714 9.49593 83.7714C9.31392 83.7436 9.20192 83.8826 9.06191 83.9104C8.99191 84.494 8.9079 85.0637 8.8379 85.6473C8.7679 85.5917 8.71189 85.55 8.65589 85.4945C8.62789 85.4667 8.62789 85.425 8.61389 85.3972C8.50189 85.161 8.36188 84.9109 8.26387 84.6607C8.16587 84.3967 7.96986 84.2022 7.84385 83.9382C7.24182 83.9104 6.62579 84.0215 6.00977 83.8826C6.12177 83.5769 6.41578 83.4101 6.59779 83.1739C6.7938 82.9238 7.03182 82.7154 7.25583 82.493C7.15782 82.2568 7.03181 82.0484 6.98981 81.8122C6.96181 81.6732 6.84981 81.5342 6.7938 81.3953C6.7378 81.2563 6.7098 81.1174 6.6678 80.9784C6.7098 80.9645 6.7378 80.9367 6.7938 80.9089C6.87781 80.9506 6.97581 81.0201 7.07382 81.0618C7.18582 81.1035 7.25583 81.2146 7.35383 81.2702C7.56384 81.4231 7.78785 81.5342 8.03986 81.6871C8.16587 81.6037 8.27787 81.5203 8.40388 81.4509L8.41788 81.4648ZM8.51588 81.965C8.51588 81.965 8.51588 81.9789 8.51588 81.9928C8.54388 81.9789 8.58589 81.965 8.61389 81.9511C8.61389 81.9511 8.61389 81.9372 8.61389 81.9233C8.58589 81.9372 8.54388 81.9511 8.51588 81.965ZM8.69789 81.8538C8.69789 81.8538 8.69789 81.8538 8.69789 81.8399C8.68389 81.8399 8.66989 81.8538 8.65589 81.8677C8.65589 81.8677 8.65589 81.8677 8.65589 81.8816C8.66989 81.8816 8.68389 81.8677 8.69789 81.8538Z" fill="#FF8E47"/>
<path d="M90.755 41.5432C90.993 41.7794 91.161 42.0573 91.4411 42.2518C91.6651 42.4186 91.8191 42.6826 92.0291 42.9327C91.9031 42.9883 91.8051 43.0161 91.7631 43.03C91.021 42.8771 90.335 42.7521 89.635 42.6131C89.663 42.7521 89.677 42.891 89.705 43.03C89.761 43.3496 89.789 43.6692 89.831 43.9888C89.887 44.2806 89.943 44.5863 89.859 44.8642C89.803 44.9198 89.747 44.9615 89.691 45.0031C89.271 44.5029 88.8509 44.0027 88.4309 43.5163C88.4169 43.5024 88.3889 43.4885 88.3889 43.4607C88.3749 43.2523 88.1789 43.155 88.0809 43.0022C87.3669 43.0995 86.6808 43.1828 85.9668 43.2662C86.0088 43.1689 86.0368 43.0856 86.0928 43.0161C86.1068 42.9744 86.1628 42.9605 86.1908 42.9327C86.4428 42.7243 86.6808 42.502 86.9468 42.3074C87.2129 42.1129 87.3949 41.835 87.6749 41.5987C87.5209 40.904 87.2129 40.2092 87.1849 39.4588C87.5769 39.5005 87.8569 39.7784 88.2069 39.9313C88.5569 40.0841 88.8789 40.3064 89.201 40.4871C89.453 40.3064 89.649 40.098 89.915 39.973C90.083 39.8896 90.195 39.7367 90.349 39.6256C90.489 39.5283 90.643 39.4449 90.811 39.3477C90.839 39.3893 90.881 39.4171 90.923 39.4866C90.895 39.5978 90.853 39.7367 90.825 39.8618C90.811 40.0146 90.699 40.1258 90.657 40.2509C90.545 40.5288 90.475 40.8345 90.377 41.168C90.503 41.2791 90.643 41.3903 90.769 41.5154L90.755 41.5432ZM90.181 41.8072C90.181 41.8072 90.167 41.8211 90.153 41.835L90.237 41.9322C90.237 41.9322 90.251 41.9183 90.265 41.9044L90.181 41.8072ZM90.377 41.9878C90.377 41.9878 90.377 41.9878 90.391 41.9739C90.377 41.96 90.363 41.9461 90.349 41.9183C90.349 41.9183 90.349 41.9183 90.335 41.9322C90.349 41.9461 90.363 41.96 90.377 41.9878Z" fill="#FF8200"/>
<path d="M75.845 73.9066C75.985 73.7677 76.153 73.6704 76.265 73.5036C76.363 73.3647 76.5171 73.2813 76.6711 73.1562C76.6991 73.2257 76.7271 73.2813 76.7271 73.3091C76.6431 73.7399 76.5591 74.1567 76.4751 74.5597C76.5591 74.5597 76.6431 74.5319 76.7271 74.518C76.9231 74.4902 77.1051 74.4763 77.3011 74.4346C77.4691 74.4068 77.6511 74.3652 77.8331 74.4207C77.8611 74.4624 77.8891 74.4902 77.9171 74.518C77.6231 74.7681 77.3291 75.0182 77.0351 75.2684C77.0351 75.2684 77.0211 75.2962 77.0071 75.2962C76.8811 75.2962 76.8251 75.4212 76.7411 75.4768C76.7971 75.8937 76.8531 76.2966 76.8951 76.7274C76.8391 76.6996 76.7831 76.6857 76.7411 76.6579C76.7131 76.6579 76.7131 76.6162 76.6851 76.6023C76.5591 76.4495 76.4331 76.3105 76.307 76.1577C76.195 76.0048 76.027 75.8937 75.887 75.7269C75.467 75.8242 75.061 76.0048 74.613 76.0187C74.641 75.7825 74.809 75.6158 74.893 75.4212C74.977 75.2128 75.117 75.0321 75.229 74.8376C75.117 74.6848 74.991 74.5736 74.921 74.4207C74.879 74.3235 74.781 74.254 74.711 74.1706C74.655 74.0873 74.599 73.99 74.543 73.9066C74.571 73.8927 74.585 73.8649 74.627 73.8371C74.697 73.851 74.767 73.8788 74.851 73.8927C74.935 73.8927 75.005 73.9622 75.075 73.99C75.243 74.0595 75.425 74.1011 75.621 74.1567C75.691 74.0734 75.761 74.0039 75.831 73.9205L75.845 73.9066ZM75.999 74.2401C75.999 74.2401 76.041 74.2262 76.055 74.1984C76.055 74.1984 76.055 74.1984 76.055 74.1845C76.041 74.1984 76.013 74.2123 75.999 74.2401ZM76.111 74.115C76.111 74.115 76.097 74.1289 76.083 74.1428C76.083 74.1428 76.097 74.1289 76.111 74.115Z" fill="#FF8200"/>
<path d="M33.2122 88.3441C33.3522 88.2052 33.5202 88.1079 33.6322 87.9411C33.7302 87.8022 33.8842 87.7188 34.0383 87.5938C34.0663 87.6632 34.0943 87.7188 34.0943 87.7466C34.0103 88.1774 33.9262 88.5942 33.8422 88.9972C33.9262 88.9972 34.0103 88.9694 34.0943 88.9555C34.2903 88.9277 34.4723 88.9138 34.6683 88.8721C34.8363 88.8443 35.0183 88.8027 35.2003 88.8582C35.2283 88.8999 35.2563 88.9277 35.2843 88.9555C34.9903 89.2056 34.6963 89.4558 34.4023 89.7059C34.4023 89.7059 34.3883 89.7337 34.3743 89.7337C34.2483 89.7337 34.1923 89.8587 34.1083 89.9143C34.1643 90.3312 34.2203 90.7341 34.2623 91.1649C34.2063 91.1371 34.1503 91.1232 34.1083 91.0954C34.0803 91.0954 34.0803 91.0537 34.0523 91.0398C33.9262 90.887 33.8002 90.748 33.6742 90.5952C33.5622 90.4423 33.3942 90.3312 33.2542 90.1644C32.8342 90.2617 32.4282 90.4423 31.9802 90.4562C32.0082 90.22 32.1762 90.0533 32.2602 89.8587C32.3442 89.6503 32.4842 89.4696 32.5962 89.2751C32.4842 89.1223 32.3582 89.0111 32.2882 88.8582C32.2462 88.761 32.1482 88.6915 32.0782 88.6081C32.0222 88.5248 31.9662 88.4275 31.9102 88.3441C31.9382 88.3302 31.9522 88.3024 31.9942 88.2746C32.0642 88.2885 32.1342 88.3163 32.2182 88.3302C32.3022 88.3302 32.3722 88.3997 32.4422 88.4275C32.6102 88.497 32.7922 88.5386 32.9882 88.5942C33.0582 88.5109 33.1282 88.4414 33.1982 88.358L33.2122 88.3441ZM33.3662 88.6776C33.3662 88.6776 33.4082 88.6637 33.4222 88.6359C33.4222 88.6359 33.4222 88.6359 33.4222 88.622C33.4082 88.6359 33.3802 88.6498 33.3662 88.6776ZM33.4782 88.5664C33.4782 88.5664 33.4642 88.5803 33.4502 88.5942C33.4502 88.5942 33.4642 88.5803 33.4782 88.5664Z" fill="#FF8200"/>
<path d="M90.5872 79.0902C90.7272 78.9512 90.8952 78.854 91.0072 78.6872C91.1052 78.5483 91.2592 78.4649 91.4133 78.3398C91.4413 78.4093 91.4693 78.4649 91.4693 78.4927C91.3853 78.9235 91.3012 79.3403 91.2172 79.7433C91.3012 79.7433 91.3853 79.7155 91.4693 79.7016C91.6653 79.6738 91.8473 79.6599 92.0433 79.6182C92.2113 79.5904 92.3933 79.5488 92.5753 79.6043C92.6033 79.646 92.6313 79.6738 92.6593 79.7016C92.3653 79.9517 92.0713 80.2018 91.7773 80.452C91.7773 80.452 91.7633 80.4797 91.7493 80.4797C91.6233 80.4797 91.5673 80.6048 91.4833 80.6604C91.5393 81.0773 91.5953 81.4802 91.6373 81.911C91.5813 81.8832 91.5253 81.8693 91.4833 81.8415C91.4553 81.8415 91.4553 81.7998 91.4273 81.7859C91.3012 81.6331 91.1752 81.4941 91.0492 81.3413C90.9372 81.1884 90.7692 81.0773 90.6292 80.9105C90.2092 81.0078 89.8032 81.1884 89.3552 81.2023C89.3832 80.9661 89.5512 80.7994 89.6352 80.6048C89.7192 80.3964 89.8592 80.2157 89.9712 80.0212C89.8592 79.8684 89.7332 79.7572 89.6632 79.6043C89.6212 79.5071 89.5232 79.4376 89.4532 79.3542C89.3972 79.2708 89.3412 79.1736 89.2852 79.0902C89.3132 79.0763 89.3272 79.0485 89.3692 79.0207C89.4392 79.0346 89.5092 79.0624 89.5932 79.0763C89.6772 79.0763 89.7472 79.1458 89.8172 79.1736C89.9852 79.2431 90.1672 79.2847 90.3632 79.3403C90.4332 79.2569 90.5032 79.1875 90.5732 79.1041L90.5872 79.0902ZM90.7412 79.4237C90.7412 79.4237 90.7832 79.4098 90.7972 79.382C90.7972 79.382 90.7972 79.382 90.7972 79.3681C90.7832 79.382 90.7552 79.3959 90.7412 79.4237ZM90.8532 79.3125C90.8532 79.3125 90.8392 79.3264 90.8252 79.3403C90.8252 79.3403 90.8392 79.3264 90.8532 79.3125Z" fill="#FF8200"/>
<path d="M93.7239 69.3754C93.8639 69.2364 94.032 69.1391 94.144 68.9724C94.242 68.8334 94.396 68.7501 94.55 68.625C94.578 68.6945 94.606 68.7501 94.606 68.7779C94.522 69.2086 94.438 69.6255 94.354 70.0285C94.438 70.0285 94.522 70.0007 94.606 69.9868C94.802 69.959 94.984 69.9451 95.18 69.9034C95.348 69.8756 95.53 69.8339 95.712 69.8895C95.74 69.9312 95.768 69.959 95.796 69.9868C95.502 70.2369 95.208 70.487 94.914 70.7371C94.914 70.7371 94.9 70.7649 94.886 70.7649C94.76 70.7649 94.704 70.89 94.62 70.9456C94.676 71.3624 94.732 71.7654 94.774 72.1962C94.718 72.1684 94.662 72.1545 94.62 72.1267C94.592 72.1267 94.592 72.085 94.564 72.0711C94.438 71.9182 94.312 71.7793 94.186 71.6264C94.074 71.4736 93.9059 71.3624 93.7659 71.1957C93.3459 71.293 92.9399 71.4736 92.4919 71.4875C92.5199 71.2513 92.6879 71.0845 92.7719 70.89C92.8559 70.6815 92.9959 70.5009 93.1079 70.3064C92.9959 70.1535 92.8699 70.0424 92.7999 69.8895C92.7579 69.7922 92.6599 69.7228 92.5899 69.6394C92.5339 69.556 92.4779 69.4587 92.4219 69.3754C92.4499 69.3615 92.4639 69.3337 92.5059 69.3059C92.5759 69.3198 92.6459 69.3476 92.7299 69.3615C92.8139 69.3615 92.8839 69.431 92.9539 69.4587C93.1219 69.5282 93.3039 69.5699 93.4999 69.6255C93.5699 69.5421 93.6399 69.4726 93.7099 69.3893L93.7239 69.3754ZM93.8779 69.7089C93.8779 69.7089 93.8779 69.7089 93.8779 69.7227C93.8919 69.7089 93.9199 69.695 93.9339 69.6672C93.9339 69.6672 93.9339 69.6672 93.9339 69.6533L93.8779 69.7089ZM93.99 69.5838C93.99 69.5838 93.9759 69.5977 93.9619 69.6116C93.9619 69.6116 93.976 69.5977 93.99 69.5838Z" fill="#FF8200"/>
<path d="M88.3894 64.9572C88.2914 64.4986 88.1514 64.2485 87.8294 64.0123C86.6954 63.1647 85.6593 62.2059 84.5112 61.3721C82.9432 60.2327 81.3611 59.1072 79.695 58.0928C78.813 57.5509 77.9869 56.9673 77.0769 56.467C76.1669 55.9668 75.2568 55.4527 74.3328 54.9802C72.4567 54.0075 70.4406 53.4239 68.4805 52.7013C66.7164 52.0482 64.8543 51.7425 62.9782 51.5619C61.9282 51.4646 60.8781 51.2423 59.8141 51.1589C58.498 51.0617 57.182 51.0339 55.8519 50.9922C55.8379 50.9922 55.8099 51.0478 55.7539 51.145C55.9639 51.3257 56.1599 51.548 56.3979 51.7009C57.35 52.2706 58.33 52.7986 59.3381 53.2849C59.5201 53.3683 59.7021 53.4934 59.8421 53.6323C60.3881 54.2298 61.1722 54.4522 61.9002 54.9385C61.3402 55.2025 60.8081 55.411 60.2901 55.675C59.5061 56.0918 58.652 56.4392 58.008 56.9951C57.56 57.3841 57.028 57.5509 56.6359 57.8149C56.5099 58.0928 56.4119 58.329 56.2579 58.6486C56.7339 58.6208 57.14 58.6486 57.546 58.593C59.5621 58.329 60.3041 58.3429 62.7122 58.593C63.4823 58.6764 64.2803 58.5653 65.0503 58.7598C65.5544 58.8849 66.0864 58.8849 66.5764 59.0655C67.5145 59.399 68.4945 59.4129 69.4325 59.6074C70.3286 59.802 71.1966 60.066 72.0927 60.2466C73.6607 60.5384 75.1588 61.0803 76.6989 61.4277C77.7349 61.664 78.743 61.9974 79.765 62.2198C82.5932 62.859 85.2533 63.9706 87.9694 64.9294C88.0674 64.9572 88.1654 64.9433 88.3894 64.9711V64.9572Z" fill="#F2B100"/>
<path d="M84.7074 68.1249C84.3573 67.9582 84.1613 67.8331 83.9513 67.7498C82.0052 67.0272 80.0732 66.2351 78.0851 65.6237C76.839 65.2347 75.5509 64.9845 74.2209 64.8734C72.7788 64.7483 71.3367 64.5677 69.8947 64.5399C67.8926 64.4982 65.8905 64.526 63.8884 64.6372C63.0624 64.6788 62.2363 64.8595 61.4103 64.929C61.2703 64.929 61.1443 65.054 60.9203 65.1652C61.8023 65.4709 62.5723 65.7349 63.0344 65.9016C64.2664 67.1106 65.5125 67.7637 66.6185 68.6113C66.1705 69.1671 65.4985 69.4172 64.9104 69.7785C63.5384 70.6122 62.2643 71.6127 61.0603 72.6688C60.9763 72.7383 60.9763 72.8911 60.9062 73.0717C61.1303 73.1134 61.3543 73.2246 61.5363 73.169C62.0123 73.0162 62.4463 72.7799 62.9924 72.7521C63.5664 72.7244 64.0984 72.377 64.6724 72.3075C65.6105 72.1963 66.5065 71.974 67.3606 71.6127C67.7806 71.4321 68.2566 71.3626 68.7046 71.2514C69.1526 71.1403 69.5027 70.6539 70.0487 70.904C71.1407 70.3621 72.3728 70.3621 73.5208 70.0842C74.7949 69.7785 76.083 69.7229 77.357 69.584C79.1351 69.3894 80.8852 69.1254 82.6493 68.8753C83.0973 68.8058 83.4893 68.4584 84.0073 68.5279C84.1893 68.5557 84.3853 68.3334 84.7074 68.1388V68.1249Z" fill="#FF8200"/>
<path d="M108.844 66.708C109.11 66.4301 109.25 66.2494 109.432 66.0966C111.014 64.7626 112.568 63.3591 114.22 62.1085C115.256 61.3304 116.39 60.6495 117.594 60.0937C118.91 59.4823 120.198 58.8292 121.542 58.3151C123.404 57.5925 125.295 56.9394 127.213 56.3697C127.997 56.1335 128.837 56.0223 129.649 55.8C129.789 55.7583 129.943 55.8277 130.195 55.8694C129.467 56.453 128.837 56.9672 128.459 57.2729C127.717 58.8292 126.765 59.8575 126.023 61.0386C126.639 61.4138 127.353 61.4138 128.039 61.5527C129.621 61.8723 131.147 62.3726 132.645 62.9562C132.743 62.9979 132.813 63.1368 132.939 63.2897C132.743 63.4008 132.561 63.5815 132.379 63.5815C131.875 63.5815 131.385 63.5259 130.867 63.6926C130.321 63.8594 129.691 63.7065 129.131 63.8455C128.207 64.0539 127.297 64.1512 126.359 64.0956C125.897 64.0678 125.435 64.1651 124.973 64.2207C124.51 64.2762 124.02 63.9289 123.586 64.3457C122.368 64.2068 121.22 64.6236 120.044 64.7487C118.742 64.9015 117.51 65.2767 116.264 65.5824C114.528 65.9993 112.792 66.3467 111.042 66.708C110.594 66.8052 110.118 66.5968 109.656 66.833C109.502 66.9164 109.222 66.7774 108.858 66.708H108.844Z" fill="#FF8E47"/>
<path d="M102.586 65.9162C102.586 65.4437 102.586 65.1519 102.614 64.874C102.964 62.3311 103.23 59.7744 103.706 57.2593C104.014 55.6891 104.49 54.1328 105.148 52.6182C105.848 50.9785 106.506 49.311 107.318 47.7269C108.439 45.5314 109.643 43.3776 110.945 41.2794C111.477 40.4179 112.149 39.6258 112.709 38.7504C112.807 38.6114 113.003 38.542 113.255 38.3613C113.073 39.5008 112.919 40.4874 112.821 41.071C113.437 43.1136 113.409 44.8505 113.703 46.5458C114.571 46.3791 115.243 45.8093 115.999 45.3786C117.721 44.392 119.555 43.5861 121.431 42.8913C121.557 42.8496 121.725 42.9191 121.977 42.9607C121.893 43.2248 121.879 43.5305 121.711 43.6972C121.249 44.128 120.759 44.4615 120.395 45.0451C120.031 45.6426 119.317 46.0317 118.911 46.6014C118.239 47.5463 117.483 48.3939 116.559 49.1165C116.111 49.4639 115.761 49.9363 115.383 50.3671C114.991 50.7839 114.249 50.8812 114.207 51.6177C112.961 52.4792 112.247 53.8132 111.267 54.9109C110.189 56.1198 109.363 57.4677 108.467 58.7878C107.22 60.5942 105.89 62.3589 104.588 64.1237C104.252 64.5683 103.65 64.7907 103.412 65.3882C103.328 65.5966 102.964 65.68 102.572 65.9301L102.586 65.9162Z" fill="#FF8200"/>
<path d="M90.1121 60.0238C90.0981 59.6347 90.1121 59.4124 90.0701 59.19C89.7341 57.1474 89.4681 55.0908 89.0341 53.076C88.7541 51.8115 88.3341 50.5748 87.788 49.3659C87.186 48.0597 86.626 46.7257 85.94 45.4751C84.9879 43.7243 83.9799 42.0151 82.8878 40.3477C82.4398 39.6668 81.8798 39.0276 81.4177 38.3467C81.3337 38.2355 81.1657 38.18 80.9697 38.041C81.1377 38.9581 81.2777 39.7502 81.3757 40.2226C80.9277 41.8762 80.9837 43.2796 80.7737 44.6553C80.0737 44.5441 79.5277 44.0856 78.8976 43.7521C77.4836 42.9878 75.9855 42.3764 74.4594 41.8484C74.3614 41.8067 74.2214 41.8762 74.0254 41.9179C74.0954 42.1263 74.1234 42.3764 74.2494 42.5015C74.6274 42.835 75.0334 43.099 75.3275 43.5575C75.6355 44.03 76.2095 44.3218 76.5595 44.7804C77.1195 45.5307 77.7496 46.1977 78.5056 46.7535C78.8696 47.0314 79.1636 47.4066 79.4856 47.7401C79.8077 48.0736 80.4097 48.1292 80.4517 48.7267C81.4737 49.3937 82.0758 50.4636 82.8878 51.3252C83.7839 52.27 84.4699 53.3539 85.2259 54.3961C86.262 55.8273 87.368 57.2169 88.4601 58.6203C88.7401 58.9816 89.2301 59.1344 89.4401 59.6069C89.5101 59.7736 89.8041 59.8431 90.1261 60.0238H90.1121Z" fill="#FF8200"/>
<path d="M94.4103 64.2906C94.8863 64.0682 95.1103 63.8459 95.2923 63.429C95.9083 61.97 96.6784 60.5943 97.2804 59.1353C98.0924 57.1344 98.8905 55.1195 99.5485 53.063C99.8985 51.9791 100.319 50.9092 100.613 49.7975C100.907 48.672 101.229 47.5603 101.495 46.4348C102.041 44.1559 102.125 41.8215 102.391 39.5009C102.629 37.4166 102.447 35.3322 102.139 33.2618C101.957 32.0946 101.915 30.9135 101.719 29.7462C101.467 28.3011 101.131 26.8699 100.823 25.4386C100.823 25.4247 100.753 25.4108 100.627 25.3691C100.487 25.6471 100.305 25.9111 100.207 26.2168C99.8425 27.3979 99.5345 28.6068 99.2825 29.8157C99.2405 30.038 99.1565 30.2604 99.0445 30.4549C98.5545 31.2053 98.4984 32.1085 98.1764 33.0256C97.7424 32.4837 97.3644 31.9695 96.9304 31.4971C96.2723 30.7606 95.6563 29.9547 94.8583 29.3988C94.3122 29.0237 93.9902 28.4956 93.5842 28.1482C93.2482 28.0927 92.9682 28.0371 92.5762 27.9676C92.7302 28.4817 92.8282 28.9125 92.9962 29.3294C93.8362 31.4276 94.0182 32.2335 94.4103 34.9015C94.5363 35.7491 94.8723 36.5689 94.8723 37.4583C94.8723 38.028 95.0123 38.6116 94.9563 39.1813C94.8443 40.2791 95.1103 41.3351 95.1383 42.4051C95.1663 43.4195 95.1103 44.4338 95.1663 45.4482C95.2643 47.2129 95.0823 48.9777 95.1383 50.7285C95.1663 51.9096 95.0823 53.0769 95.1103 54.258C95.1803 57.4817 94.6903 60.6499 94.3823 63.832C94.3823 63.9432 94.4103 64.0543 94.4523 64.2906H94.4103Z" fill="#F2B100"/>
<path d="M104.701 17.8106C105.681 19.6031 72.2192 44.5178 66.0449 48.4641C59.8706 52.4105 19.2687 66.9313 17.2946 65.25C15.3205 63.5686 53.5003 39.6266 59.4506 36.4167C65.4149 33.2068 104.085 16.6989 104.687 17.8245L104.701 17.8106Z" fill="#ED8A00"/>
<path d="M66.0595 48.4639C68.3136 46.1989 100.935 18.4078 104.715 17.8103C108.481 17.2128 115.51 30.6776 115.58 33.0954C115.65 35.5132 78.7441 61.5813 74.8239 64.4993C70.9037 67.4174 63.6094 67.4452 63.6094 67.4452L66.0595 48.4639Z" fill="#FFCD41"/>
<path d="M66.0585 48.4629C71.1827 57.5089 73.8428 62.7058 74.8229 64.4983C75.8029 66.2909 28.9007 81.5621 26.0726 81.2842C23.2445 81.0062 17.1962 67.4859 17.3082 65.2487C17.4202 62.9976 66.0585 48.4629 66.0585 48.4629Z" fill="#FAA500"/>
<path d="M61.003 40.7232C38.4479 38.3331 33.4497 33.2891 32.4836 30.4961C31.7276 28.3006 32.5676 26.0078 34.9897 23.6733C37.6919 21.0888 40.73 20.0049 44.0062 20.4357C52.5326 21.5612 60.1489 32.7888 63.0331 37.555C63.4531 38.2359 63.4391 39.0835 63.005 39.7644C62.809 40.0701 62.543 40.3202 62.235 40.4869C61.871 40.6815 61.437 40.7788 61.003 40.7232ZM36.8658 25.5909C35.2557 27.1333 34.6397 28.4951 35.0317 29.6206C36.2358 33.0945 46.0363 36.3322 60.1489 37.9441C57.4748 33.692 50.6425 23.9929 43.6841 23.0758C42.0881 22.8674 40.576 23.1453 39.1479 23.9096C38.3779 24.3264 37.6219 24.8822 36.8798 25.5909H36.8658Z" fill="black"/>
<path d="M62.8946 40.5986C61.9846 40.4319 61.3126 39.751 61.1726 38.8478C60.1645 32.5114 58.3864 17.1291 63.5107 11.1679C64.9667 9.48652 66.8288 8.625 69.0689 8.625C71.771 8.625 73.1151 9.90339 73.7451 10.9872C77.0773 16.6149 69.769 31.2886 65.1207 39.5426C64.9107 39.9039 64.6167 40.1957 64.2807 40.3763C63.8747 40.5986 63.3847 40.682 62.8946 40.5986ZM65.5408 12.9048C61.4526 17.6571 62.7406 30.8857 63.5807 36.8191C70.133 24.8828 73.2131 15.3504 71.435 12.349C71.169 11.8905 70.637 11.2929 69.0689 11.2929C68.2429 11.2929 67.5149 11.4597 66.8708 11.821C66.3808 12.085 65.9468 12.4463 65.5408 12.9048Z" fill="black"/>
<path d="M29.8383 54.3543C28.6202 53.7707 27.1361 52.4784 26.9681 49.5743C26.8281 47.1286 27.6682 45.0026 29.5022 43.2657C37.2726 35.8732 61.1297 38.1382 62.1378 38.2355L65.6939 38.5829L62.7818 40.6394C62.7818 40.6394 56.5935 45.0026 49.6352 48.8378C49.3132 49.0184 48.9772 49.1991 48.6551 49.3658C39.4147 54.3404 33.2544 55.9662 29.8383 54.3543ZM49.0192 40.5838C40.2547 40.9451 34.1505 42.5431 31.3643 45.1972C30.1183 46.3783 29.5582 47.7678 29.6562 49.4353C29.7543 51.1722 30.4823 51.7142 31.0143 51.9643C35.3545 54.0347 48.7811 46.7951 58.0776 40.6394C55.7115 40.5283 52.4773 40.4449 49.0192 40.5838Z" fill="black"/>
<path d="M64.6852 39.8479L61.7871 41.3764L62.7672 38.2777C63.0052 37.5274 68.7174 19.6994 77.6779 15.6002C80.1 14.4886 82.5501 14.433 84.9442 15.4474C87.6883 16.6007 88.3183 18.3237 88.3744 19.5604C88.5284 22.8954 84.6082 27.2169 76.4038 32.7751C71.2796 36.249 66.0573 39.0976 64.8953 39.7229C64.7412 39.8062 64.6572 39.8479 64.6572 39.8479H64.6852ZM66.5193 35.7904C75.4237 30.7186 85.8822 23.2983 85.7142 19.6716C85.7142 19.4076 85.6722 18.6294 83.9221 17.893C82.2141 17.1843 80.548 17.2121 78.8259 18.0041C78.6579 18.0875 78.4899 18.1709 78.3219 18.2543C72.8056 21.2279 68.4934 30.7186 66.5193 35.7904Z" fill="black"/>
<path d="M95.8669 60.7054C95.9649 60.6498 96.0489 60.5942 96.1329 60.5108C96.679 60.0106 96.721 59.1769 96.217 58.6349C94.9009 57.2176 94.2569 55.3 93.5568 53.2574C92.9688 51.5204 92.3528 49.7279 91.2887 48.116C88.8666 44.4754 84.1484 42.4466 79.8082 43.1831C79.5562 43.2248 79.3042 43.2804 79.0382 43.3359C78.5341 43.4332 78.0581 43.5305 77.6381 43.5444C76.504 43.5583 75.342 42.9469 74.1239 42.3077L73.6199 42.0436C69.7277 40.0427 66.2416 38.8616 62.9514 38.4169L62.5174 38.3613L62.1254 38.5698C54.257 42.8357 49.5108 51.979 50.5748 60.8165C50.6168 61.1222 50.6588 61.4418 50.7008 61.7475C50.8128 62.5257 50.9108 63.2482 50.9108 63.9569C50.9108 64.749 50.7428 65.5688 50.5888 66.4442C50.2808 68.1117 49.9308 70.0154 50.6588 71.8496C50.9248 72.5305 51.7089 72.8779 52.3949 72.6138C53.0809 72.3498 53.4309 71.5717 53.1649 70.8908C52.7169 69.7514 52.9689 68.3757 53.2349 66.9167C53.4029 65.9718 53.585 64.9991 53.599 63.9847C53.599 63.0676 53.4869 62.2061 53.3749 61.3723C53.3329 61.0805 53.2909 60.7887 53.2629 60.4969C52.3389 52.8683 56.3571 44.9617 63.0634 41.1265C65.9195 41.5712 68.9857 42.6551 72.4158 44.4198L72.9059 44.6699C74.3059 45.4064 75.888 46.2262 77.7081 46.2123C78.3941 46.2123 79.0241 46.0734 79.6262 45.9483C79.8502 45.9066 80.0742 45.851 80.2982 45.8232C83.6164 45.2674 87.2285 46.8237 89.0906 49.6028C89.9727 50.9229 90.5047 52.4792 91.0647 54.1189C91.8207 56.3283 92.5908 58.6071 94.2849 60.4413C94.7049 60.8999 95.3909 60.9972 95.9089 60.7054H95.8669Z" fill="black"/>
<path d="M0.0175781 63.2339C0.0595801 63.4423 0.115582 63.7202 0.213586 64.2204C0.353593 64.3316 0.703611 64.6373 1.08163 64.8735C2.5377 65.749 4.16177 65.9435 5.82785 65.9713C6.47188 65.9713 7.12991 66.0547 7.77394 66.0963C8.38997 66.138 8.992 65.9991 9.60803 66.2075C10.056 66.3465 10.6021 66.2075 11.3021 66.2075C11.0921 65.9018 11.0081 65.6378 10.8681 65.5961C9.73403 65.2765 8.69798 64.7207 7.61993 64.2899C7.14391 64.0954 6.62589 64.012 6.10786 63.9286C5.09982 63.748 4.13377 63.3728 3.15372 63.0949C2.6217 62.9421 2.08968 62.7892 1.54365 62.7197C1.05363 62.6502 0.549603 62.7197 0.0315791 63.2478L0.0175781 63.2339Z" fill="#F2B100"/>
<path d="M0.647547 37.7491C0.521541 38.3327 0.395537 38.8469 0.269531 39.4027C3.64369 43.2935 8.27791 44.8081 13.1081 46.1837C13.1641 46.142 13.3321 46.017 13.4721 45.878C13.5702 45.7808 13.6542 45.6696 13.7382 45.5584C13.6962 45.4334 13.6962 45.2666 13.6122 45.1971C12.6461 44.2522 11.7641 43.1962 10.686 42.418C8.61392 40.9312 6.75183 39.1387 4.38572 38.0687C2.66364 37.2906 2.57964 37.2211 0.661548 37.7491H0.647547Z" fill="#FF8E47"/>
<path d="M174.731 31.3574C174.787 31.7465 174.857 32.2328 174.983 33.136C174.801 33.4139 174.409 34.1365 173.905 34.7479C171.959 37.0963 169.327 38.3885 166.527 39.4307C165.435 39.8337 164.371 40.3339 163.307 40.8064C162.299 41.251 161.193 41.3622 160.255 42.0848C159.569 42.5989 158.574 42.6962 157.398 43.0852C157.566 42.4321 157.552 41.9458 157.776 41.7791C159.513 40.5701 160.927 39.0138 162.495 37.6243C163.181 37.0129 164.021 36.5682 164.847 36.1097C166.443 35.2204 167.857 33.9975 169.369 32.9415C170.181 32.3718 170.993 31.7882 171.875 31.3435C172.673 30.9405 173.555 30.746 174.773 31.3435L174.731 31.3574Z" fill="#F2B100"/>
<path d="M140.878 20.1445C141.2 20.6448 141.48 21.1033 141.788 21.5897C139.912 26.3836 136.048 29.3295 131.96 32.2198C131.89 32.192 131.694 32.1364 131.512 32.053C131.386 31.9974 131.274 31.9141 131.148 31.8446C131.148 31.7195 131.092 31.5528 131.148 31.4555C131.736 30.2466 132.212 28.9682 132.982 27.8705C134.438 25.7861 135.586 23.4795 137.476 21.6869C138.834 20.3947 138.89 20.2835 140.878 20.1445Z" fill="#FF8E47"/>
<path d="M123.307 17.059C123.573 17.4203 123.755 17.8232 124.063 18.1567C124.329 18.4346 124.483 18.8098 124.707 19.185C124.525 19.2267 124.399 19.2545 124.329 19.2684C123.363 18.921 122.467 18.5875 121.557 18.254C121.557 18.4346 121.557 18.6292 121.557 18.8237C121.557 19.2684 121.529 19.6991 121.529 20.1438C121.529 20.5468 121.557 20.9636 121.375 21.3249C121.291 21.3805 121.206 21.4222 121.122 21.4778C120.66 20.7135 120.198 19.9632 119.736 19.2128C119.722 19.185 119.694 19.1572 119.694 19.1433C119.708 18.8515 119.47 18.6848 119.386 18.4624C118.42 18.4346 117.468 18.4069 116.488 18.3791C116.572 18.254 116.628 18.1567 116.698 18.0595C116.726 18.0178 116.796 17.99 116.852 17.9622C117.23 17.7399 117.594 17.4759 117.986 17.2813C118.392 17.0729 118.7 16.7394 119.106 16.4893C119.05 15.5166 118.77 14.53 118.896 13.5156C119.414 13.6546 119.736 14.0992 120.17 14.3632C120.604 14.6412 120.982 15.0024 121.389 15.322C121.767 15.1275 122.075 14.8913 122.453 14.7801C122.691 14.7106 122.873 14.5161 123.097 14.4049C123.307 14.2938 123.531 14.2243 123.769 14.127C123.797 14.1826 123.839 14.2382 123.895 14.3355C123.825 14.4883 123.741 14.6412 123.699 14.8218C123.643 15.0163 123.489 15.1414 123.391 15.3081C123.181 15.6694 123.027 16.0585 122.817 16.4893C122.971 16.6699 123.125 16.8506 123.279 17.0312L123.307 17.059ZM122.495 17.2952C122.495 17.2952 122.467 17.3091 122.453 17.323C122.481 17.3786 122.509 17.4203 122.551 17.4759C122.551 17.4759 122.579 17.462 122.593 17.4481C122.565 17.3925 122.537 17.3508 122.495 17.2952ZM122.719 17.5592C122.719 17.5592 122.733 17.5592 122.747 17.5453C122.733 17.5175 122.719 17.4897 122.705 17.4759C122.705 17.4759 122.691 17.4759 122.677 17.4898C122.691 17.5175 122.705 17.5453 122.719 17.5592Z" fill="#FF8200"/>
<path d="M29.2929 104.101C29.5309 104.407 29.6709 104.754 29.9509 105.032C30.1889 105.268 30.3149 105.588 30.5109 105.907C30.3429 105.949 30.2029 105.991 30.1469 106.005C29.2509 105.755 28.4108 105.518 27.5708 105.268C27.5708 105.435 27.5428 105.602 27.5428 105.782C27.5288 106.171 27.4588 106.56 27.4308 106.963C27.4168 107.325 27.4168 107.7 27.2068 108.033C27.1228 108.089 27.0388 108.131 26.9548 108.186C26.5627 107.533 26.1707 106.894 25.7787 106.255C25.7787 106.227 25.7367 106.213 25.7367 106.185C25.7647 105.921 25.5547 105.796 25.4847 105.602C24.5607 105.643 23.6506 105.671 22.7266 105.713C22.8106 105.602 22.8666 105.504 22.9506 105.421C22.9926 105.379 23.0486 105.365 23.1046 105.324C23.4826 105.101 23.8466 104.851 24.2386 104.643C24.6307 104.434 24.9527 104.115 25.3587 103.865C25.3587 103.003 25.1627 102.142 25.3447 101.225C25.8347 101.322 26.1147 101.683 26.5067 101.905C26.9128 102.128 27.2488 102.42 27.5988 102.684C27.9768 102.489 28.2848 102.253 28.6488 102.128C28.8728 102.044 29.0689 101.864 29.2929 101.753C29.5029 101.641 29.7269 101.558 29.9509 101.461C29.9789 101.503 30.0069 101.558 30.0629 101.641C29.9929 101.78 29.8949 101.933 29.8389 102.086C29.7689 102.267 29.6149 102.378 29.5169 102.531C29.2929 102.864 29.1249 103.212 28.9009 103.615C29.0409 103.767 29.1809 103.92 29.3069 104.073L29.2929 104.101ZM28.4948 104.351C28.4948 104.351 28.4668 104.365 28.4528 104.379C28.4808 104.421 28.5088 104.462 28.5368 104.504C28.5368 104.504 28.5648 104.49 28.5788 104.476C28.5508 104.434 28.5228 104.393 28.4948 104.351ZM28.7048 104.587C28.7048 104.587 28.7188 104.587 28.7328 104.573C28.7328 104.546 28.7048 104.532 28.6908 104.504C28.6908 104.504 28.6768 104.504 28.6628 104.518C28.6628 104.546 28.6908 104.56 28.7048 104.587Z" fill="#F2B100"/>
</svg>
