<svg width="35" height="34" viewBox="0 0 35 34" fill="none" xmlns="http://www.w3.org/2000/svg">
<path d="M11.9747 18.8989L15.9839 14.8897L6.03892 4.95888C4.97831 6.02361 4.38281 7.46521 4.38281 8.96805C4.38281 10.4709 4.97831 11.9125 6.03892 12.9772L11.9747 18.8989ZM21.5797 16.3347C23.7472 17.3405 26.7931 16.6322 29.0456 14.3797C31.7514 11.6739 32.2756 7.79222 30.1931 5.70972C28.1247 3.64138 24.2431 4.15138 21.5231 6.85722C19.2706 9.10972 18.5622 12.1555 19.5681 14.323L5.74142 28.1497L7.73892 30.1472L17.4997 20.4147L27.2464 30.1614L29.2439 28.1639L19.4972 18.4172L21.5797 16.3347Z" fill="#B1BEBE"/>
</svg>
