<svg width="35" height="34" viewBox="0 0 35 34" fill="none" xmlns="http://www.w3.org/2000/svg">
<path d="M11.9747 18.8984L15.9839 14.8892L6.03892 4.95839C4.97831 6.02312 4.38281 7.46472 4.38281 8.96756C4.38281 10.4704 4.97831 11.912 6.03892 12.9767L11.9747 18.8984ZM21.5797 16.3342C23.7472 17.3401 26.7931 16.6317 29.0456 14.3792C31.7514 11.6734 32.2756 7.79173 30.1931 5.70923C28.1247 3.6409 24.2431 4.1509 21.5231 6.85673C19.2706 9.10923 18.5622 12.1551 19.5681 14.3226L5.74142 28.1492L7.73892 30.1467L17.4997 20.4142L27.2464 30.1609L29.2439 28.1634L19.4972 18.4167L21.5797 16.3342Z" fill="#CE0A24"/>
</svg>
