<svg width="162" height="298" viewBox="0 0 162 298" fill="none" xmlns="http://www.w3.org/2000/svg">
<path d="M104.798 295.32C105.79 296.06 105.215 297.628 103.979 297.549C12.8353 291.702 -30.4807 212.834 23.9339 133.974C34.5033 118.657 47.8046 105.149 62.8646 86.5409C71.4913 75.8823 86.3179 42.5169 67.8819 21.4076C67.5059 20.9783 67.9406 20.3143 68.4886 20.4743C125.882 37.1823 143.483 84.9676 139.75 123.452C137.717 144.404 132.105 161.312 126.017 170.729C125.785 171.089 126.117 171.556 126.529 171.44C142.191 167.053 152.955 151.642 155.794 147.188C156.119 146.676 156.881 146.753 157.098 147.32C158.805 151.774 163.59 167.081 159.551 190.313C152.249 232.314 130.062 240.977 105.774 259.386C84.1859 275.749 96.8593 289.396 104.798 295.32ZM42.7073 41.1689L42.7046 41.1663C26.3153 28.3809 25.2353 8.58493 24.8326 0.532928C24.8099 0.0862732 25.3793 -0.116394 25.6326 0.251617C27.5499 3.01962 32.5166 9.42361 40.0099 13.6823C66.6073 28.8023 59.7313 58.0676 57.1913 66.2049C56.8419 67.3223 56.4419 67.2703 56.3326 66.1049C55.3073 55.1516 48.3326 46.6116 42.7073 41.1689Z" fill="#CE0A24"/>
</svg>
