<svg width="35" height="34" viewBox="0 0 35 34" fill="none" xmlns="http://www.w3.org/2000/svg">
<path d="M20.2071 33.7449C20.3179 33.8295 20.2537 34.0087 20.1157 33.9997C9.93384 33.3315 5.09496 24.3177 11.1737 15.3049C12.3544 13.5543 13.8403 12.0104 15.5227 9.88374C16.4864 8.66557 18.1427 4.85228 16.0832 2.43971C16.0412 2.39064 16.0897 2.31475 16.1509 2.33304C22.5624 4.24258 24.5287 9.70393 24.1116 14.1022C23.8845 16.4968 23.2576 18.4292 22.5775 19.5055C22.5515 19.5467 22.5886 19.6 22.6347 19.5867C24.3844 19.0854 25.5868 17.3241 25.9039 16.815C25.9403 16.7565 26.0253 16.7653 26.0496 16.8301C26.2403 17.3392 26.7748 19.0886 26.3237 21.7438C25.5079 26.5441 23.0294 27.5341 20.3161 29.6381C17.9045 31.5082 19.3203 33.0678 20.2071 33.7449ZM13.2709 4.69821L13.2706 4.69791C11.4397 3.23668 11.3191 0.974216 11.2741 0.0539589C11.2715 0.00291061 11.3351 -0.0202484 11.3634 0.0218086C11.5776 0.338161 12.1325 1.07007 12.9696 1.55679C15.9408 3.28484 15.1727 6.62955 14.8889 7.55956C14.8499 7.68726 14.8052 7.68132 14.793 7.54813C14.6784 6.29628 13.8993 5.32025 13.2709 4.69821Z" fill="#B3B3B3"/>
</svg>
