<svg width="233" height="211" viewBox="0 0 233 211" fill="none" xmlns="http://www.w3.org/2000/svg">
<g clip-path="url(#clip0_1563_15027)">
<path d="M232.922 139.316C233.316 130.832 232.4 122.08 228.57 114.52C222.84 103.205 211.222 95.9436 199.18 92.2481C187.139 88.5526 174.418 87.8969 161.914 86.4267C135.734 83.3571 108.56 75.8072 90.3059 56.6244C73.6272 39.0908 64.9432 12.5668 42.9379 2.71216C35.7801 -0.496551 26.9583 -1.38068 20.4207 2.98038C17.6048 4.85792 15.419 7.55999 13.568 10.4111C6.32154 21.4975 3.54504 34.9085 1.68419 48.0613C-0.196354 61.3332 -1.24985 75.1118 2.60969 87.9466C6.19355 99.8476 13.7354 110.04 19.7216 120.918C25.7079 131.796 30.2664 144.501 27.1256 156.532C24.8119 165.373 18.4811 173.241 18.6189 182.39C18.8158 195.324 31.8024 204.275 44.1687 207.682C68.5665 214.398 94.3427 208.596 119.508 206.023C142.311 203.689 165.646 203.341 188.439 205.586C205.452 207.265 218.577 185.132 224.838 171.701C229.564 161.568 232.4 150.521 232.922 139.326V139.316Z" fill="#E6E6E6"/>
<path d="M132.78 127.543C132.711 127.593 132.642 127.652 132.574 127.702C128.862 110.387 116.712 94.8001 100.339 88.0946C100.319 88.0946 100.299 88.0946 100.27 88.0946C96.4691 85.8694 92.6195 83.7832 89.0356 81.2004C88.0412 80.4851 87.096 79.7202 86.1606 78.9354C85.3434 78.2499 84.5459 77.5446 83.7681 76.8194C83.0592 76.1638 82.2913 76.1439 82.1042 77.1473C82.055 77.3857 82.055 77.634 82.0648 77.8923C82.0648 77.8923 82.0648 77.8824 82.0648 77.8725C82.0648 77.8923 82.0648 77.9122 82.0648 77.9321C82.0648 78.0513 82.0845 78.1804 82.1042 78.2996C82.1239 78.4586 82.1436 78.6076 82.1731 78.7665C82.2026 78.8957 82.2223 79.0248 82.2617 79.154C82.3011 79.3328 82.3602 79.5116 82.4094 79.6805C82.4389 79.7798 82.4685 79.8891 82.5079 79.9884C82.6063 80.2666 82.7048 80.5447 82.8131 80.8129C82.0943 80.2467 81.3953 79.6705 80.6962 79.0844C77.7327 76.5612 75.2417 73.6803 73.5285 70.1636C71.7858 66.5873 71.0769 62.5839 69.2948 59.0474C69.1964 58.8586 69.0979 58.6897 68.9896 58.5407C68.9601 58.4911 68.9207 58.4513 68.8912 58.4016C68.8124 58.3023 68.7435 58.2129 68.6549 58.1334C68.6155 58.0937 68.5761 58.054 68.5269 58.0142C68.4481 57.9447 68.3595 57.8851 68.2807 57.8354C68.2413 57.8155 68.202 57.7857 68.1626 57.7559C68.0444 57.6963 67.9263 57.6566 67.8081 57.6367C67.7589 57.6367 67.7097 57.6367 67.6604 57.6367C67.5817 57.6367 67.5128 57.6367 67.434 57.6367C67.3749 57.6367 67.3158 57.6566 67.2568 57.6765C67.1878 57.6963 67.1189 57.7261 67.0599 57.7559C67.0008 57.7857 66.9417 57.8155 66.8826 57.8553C66.8728 57.8553 66.8629 57.8652 66.8432 57.8751C66.5971 58.044 66.3608 58.2924 66.1343 58.6599C64.9233 60.5971 64.7855 63.4382 64.7855 65.6237C64.7855 68.5046 65.455 71.4153 66.6759 74.018C66.666 73.9982 66.6562 73.9882 66.6463 73.9684C66.6759 74.028 66.7153 74.0876 66.7349 74.1472C67.0106 74.7233 67.306 75.2896 67.6309 75.826C68.1626 76.7002 68.773 77.5049 69.4524 78.2599C68.8616 78.1307 68.2315 78.0811 67.7097 77.9023C67.1878 77.7334 66.4002 77.644 65.9965 78.1208C65.3762 78.8559 65.0513 79.8394 64.6673 80.7136C64.6673 80.7235 64.6575 80.7434 64.6476 80.7533C64.0569 82.0944 63.4662 83.4852 63.1609 84.9257C62.9345 85.9985 62.6588 87.3694 62.8262 88.4523C62.9443 89.2569 64.0175 89.7437 64.6083 90.1112C65.2285 90.4887 65.8291 90.906 66.41 91.353C66.0851 91.5716 65.8094 91.8298 65.5535 92.1179C65.4747 92.2073 65.4058 92.2967 65.3368 92.3862C65.1695 92.6047 65.0021 92.8233 64.8544 93.0517C64.8347 93.0915 64.8052 93.1213 64.7756 93.1511C64.7756 93.1511 64.7855 93.1511 64.7953 93.1411C64.5098 93.618 64.244 94.1147 64.0077 94.6114C63.3086 96.1015 62.6391 97.8499 62.708 99.5288C62.7769 101.347 64.3523 102.032 65.7701 102.718C66.2328 102.936 66.7054 103.145 67.178 103.343H67.1485C67.4045 103.453 67.6604 103.562 67.9164 103.671C67.69 105.181 66.9417 106.691 66.9122 108.221C66.9122 108.241 66.922 108.261 66.922 108.281C66.922 108.31 66.9417 108.32 66.9417 108.35C66.9515 108.41 66.9614 108.469 66.9909 108.509C67.0008 108.529 67.0205 108.539 67.0303 108.559C67.0697 108.599 67.0992 108.648 67.1485 108.678C67.1682 108.688 67.1878 108.698 67.1977 108.708C67.2568 108.738 67.306 108.767 67.3749 108.787C67.3848 108.787 67.4045 108.787 67.4241 108.797C67.5029 108.817 67.5718 108.837 67.6506 108.847C67.6506 108.847 67.6703 108.847 67.6801 108.847C68.0543 108.887 68.4678 108.847 68.6844 108.847C69.8954 108.827 71.4412 108.638 72.9082 108.211C72.5046 108.956 72.0713 109.671 71.6184 110.377C71.4511 110.645 71.2738 110.913 71.0966 111.181C70.7422 111.718 70.3877 112.264 70.0234 112.801C69.4819 113.605 68.9502 114.41 68.4383 115.235C68.1921 115.632 67.5423 116.665 67.8771 117.192C68.1429 117.619 68.5269 117.728 68.9502 117.728C68.9404 117.728 68.9207 117.728 68.9109 117.738C68.9995 117.738 69.0881 117.728 69.1865 117.718C69.2456 117.718 69.2948 117.718 69.3539 117.708C69.5213 117.688 69.6887 117.658 69.8659 117.629C72.4061 117.182 75.2121 115.264 77.0238 112.89C77.3782 113.645 77.7622 114.37 78.156 115.095C78.1954 115.175 78.2348 115.254 78.2742 115.334C78.2742 115.334 78.2742 115.324 78.2742 115.314C79.0717 116.745 79.948 118.135 80.903 119.466C81.8974 120.847 83.2168 122.526 84.9102 123.033C85.1071 123.092 85.2647 123.082 85.4025 123.033C85.4025 123.033 85.4124 123.023 85.4222 123.013C85.5404 122.963 85.6388 122.894 85.7176 122.794C85.7176 122.784 85.7373 122.765 85.7471 122.755C85.816 122.655 85.8751 122.536 85.9145 122.407C85.9145 122.397 85.9145 122.387 85.9243 122.367C85.9637 122.228 85.9933 122.089 86.013 121.95C86.013 121.92 86.013 121.9 86.013 121.871C86.0228 121.741 86.0326 121.612 86.0326 121.493C86.0031 120.569 85.5108 119.526 85.1958 118.672C84.9595 118.026 84.6838 117.38 84.4081 116.754C85.1662 117.668 85.9834 118.523 86.8203 119.357C87.0271 119.556 87.2338 119.765 87.4406 119.963C88.1889 120.678 88.9667 121.384 89.7839 122.049C89.8626 122.119 89.9414 122.198 90.0202 122.268C90.0202 122.268 90.0103 122.248 90.0005 122.238C90.8571 122.933 91.7333 123.619 92.649 124.275C93.1019 124.602 94.9923 126.391 95.6815 125.526C95.7307 125.467 95.7504 125.407 95.7799 125.347C95.7799 125.347 95.7799 125.347 95.7898 125.357C95.8095 125.328 95.7996 125.298 95.8095 125.278C95.8193 125.238 95.839 125.198 95.839 125.159C95.839 125.099 95.839 125.049 95.839 124.99C95.839 124.95 95.839 124.92 95.8193 124.881C95.7996 124.821 95.7701 124.761 95.7406 124.692C95.7209 124.662 95.711 124.632 95.7012 124.602C95.652 124.513 95.5929 124.414 95.524 124.314C95.2483 123.877 94.9431 123.44 94.6181 123.023C96.9614 124.781 99.61 126.152 102.406 127.265C103.735 127.791 105.035 128.328 106.423 128.665C107.319 128.884 108.245 129.242 109.072 128.665C109.741 128.199 109.485 127.434 108.944 126.679C111.454 127.96 114.132 128.904 116.879 129.53C119.813 130.195 122.984 130.464 125.987 130.215C127.907 130.056 130.565 129.639 132.259 128.397C132.396 128.397 132.534 128.268 132.593 128.129C132.721 128.01 132.849 127.891 132.967 127.771C133.154 127.563 132.997 127.295 132.751 127.503L132.78 127.543Z" fill="#231F20"/>
<path d="M160.762 100.086C160.712 100.145 160.673 100.205 160.634 100.264C174.999 103.394 187.936 113.665 193.499 127.494C193.499 127.514 193.499 127.533 193.499 127.543C195.34 130.752 197.083 134.01 199.219 137.03C199.81 137.865 200.44 138.67 201.1 139.464C201.671 140.15 202.252 140.825 202.852 141.491C203.394 142.087 203.414 142.733 202.577 142.901C202.38 142.941 202.173 142.941 201.956 142.941C201.956 142.941 201.956 142.941 201.976 142.941C201.956 142.941 201.947 142.941 201.927 142.941C201.828 142.941 201.72 142.921 201.622 142.911C201.494 142.892 201.366 142.882 201.228 142.852C201.12 142.832 201.021 142.812 200.913 142.782C200.765 142.743 200.617 142.703 200.47 142.653C200.381 142.623 200.302 142.603 200.214 142.574C199.987 142.494 199.751 142.405 199.534 142.315C200.007 142.921 200.48 143.517 200.972 144.103C203.069 146.607 205.452 148.713 208.376 150.153C211.339 151.624 214.667 152.23 217.601 153.73C217.759 153.809 217.897 153.899 218.025 153.988C218.064 154.018 218.103 154.048 218.133 154.077C218.212 154.137 218.291 154.206 218.359 154.276C218.399 154.306 218.428 154.346 218.458 154.385C218.517 154.455 218.566 154.524 218.606 154.594C218.625 154.624 218.655 154.663 218.665 154.693C218.714 154.793 218.743 154.892 218.763 154.991C218.763 155.031 218.763 155.071 218.763 155.12C218.763 155.18 218.763 155.25 218.763 155.309C218.763 155.359 218.743 155.408 218.724 155.458C218.704 155.518 218.684 155.567 218.655 155.627C218.635 155.677 218.606 155.726 218.576 155.776C218.576 155.776 218.576 155.796 218.556 155.806C218.409 156.014 218.212 156.213 217.907 156.402C216.302 157.425 213.949 157.534 212.127 157.544C209.735 157.544 207.322 156.978 205.156 155.945C205.166 155.945 205.186 155.965 205.196 155.975C205.146 155.955 205.097 155.925 205.048 155.895C204.575 155.667 204.103 155.418 203.65 155.14C202.921 154.693 202.252 154.167 201.631 153.6C201.74 154.097 201.779 154.634 201.927 155.071C202.065 155.508 202.143 156.183 201.75 156.521C201.139 157.048 200.322 157.316 199.593 157.644C199.584 157.644 199.574 157.644 199.564 157.664C198.451 158.16 197.299 158.657 196.098 158.915C195.202 159.104 194.07 159.342 193.164 159.203C192.504 159.104 192.091 158.2 191.796 157.693C191.481 157.167 191.136 156.66 190.762 156.173C190.585 156.442 190.358 156.68 190.132 156.899C190.063 156.968 189.984 157.018 189.905 157.077C189.728 157.226 189.551 157.356 189.354 157.485C189.324 157.505 189.295 157.524 189.265 157.544C189.265 157.544 189.265 157.534 189.275 157.524C188.881 157.773 188.468 157.991 188.054 158.19C186.814 158.776 185.366 159.342 183.978 159.293C182.472 159.233 181.901 157.902 181.33 156.7C181.142 156.312 180.975 155.905 180.808 155.508V155.528C180.719 155.309 180.621 155.091 180.532 154.872C179.272 155.071 178.031 155.697 176.761 155.716C176.741 155.716 176.732 155.716 176.712 155.707C176.692 155.707 176.672 155.697 176.653 155.687C176.604 155.687 176.554 155.667 176.515 155.647C176.495 155.647 176.485 155.617 176.476 155.607C176.436 155.577 176.407 155.548 176.377 155.508C176.377 155.498 176.367 155.478 176.357 155.468C176.328 155.418 176.308 155.369 176.288 155.319C176.288 155.309 176.288 155.289 176.288 155.279C176.269 155.22 176.259 155.15 176.249 155.081C176.249 155.081 176.249 155.061 176.249 155.051C176.21 154.733 176.249 154.385 176.249 154.197C176.269 153.173 176.426 151.862 176.781 150.62C176.17 150.958 175.57 151.326 174.989 151.713C174.762 151.862 174.546 152.011 174.319 152.15C173.876 152.448 173.423 152.746 172.98 153.054C172.311 153.511 171.641 153.968 170.962 154.395C170.637 154.604 169.771 155.15 169.337 154.872C168.983 154.644 168.894 154.326 168.894 153.968C168.894 153.978 168.894 153.988 168.884 154.008C168.884 153.928 168.884 153.859 168.904 153.779C168.904 153.73 168.904 153.69 168.914 153.64C168.934 153.501 168.953 153.352 168.983 153.213C169.347 151.067 170.942 148.703 172.911 147.163C172.291 146.865 171.681 146.537 171.08 146.21C171.021 146.17 170.952 146.14 170.883 146.11C170.883 146.11 170.893 146.11 170.903 146.11C169.712 145.435 168.56 144.69 167.457 143.885C166.305 143.05 164.917 141.938 164.493 140.497C164.444 140.329 164.454 140.199 164.493 140.08C164.493 140.08 164.503 140.07 164.503 140.06C164.542 139.961 164.602 139.882 164.69 139.812C164.7 139.812 164.71 139.802 164.72 139.792C164.808 139.733 164.897 139.683 165.005 139.653C165.015 139.653 165.025 139.653 165.035 139.643C165.143 139.613 165.261 139.583 165.379 139.574C165.399 139.574 165.419 139.574 165.448 139.574C165.557 139.564 165.665 139.554 165.763 139.564C166.531 139.583 167.398 140.011 168.107 140.269C168.648 140.468 169.18 140.696 169.702 140.935C168.944 140.289 168.235 139.603 167.545 138.898C167.378 138.729 167.211 138.55 167.043 138.372C166.443 137.736 165.862 137.08 165.31 136.395C165.251 136.325 165.192 136.266 165.133 136.196C165.133 136.196 165.153 136.206 165.153 136.216C164.572 135.491 164.011 134.756 163.469 133.981C163.203 133.593 161.707 132.004 162.426 131.418C162.475 131.378 162.524 131.358 162.573 131.338C162.573 131.338 162.573 131.338 162.563 131.328C162.583 131.318 162.613 131.318 162.632 131.308C162.662 131.298 162.701 131.289 162.731 131.279C162.78 131.279 162.819 131.279 162.869 131.279C162.898 131.279 162.928 131.279 162.957 131.298C163.007 131.318 163.056 131.338 163.115 131.368C163.144 131.378 163.164 131.388 163.194 131.408C163.272 131.447 163.351 131.497 163.43 131.557C163.794 131.795 164.149 132.053 164.503 132.322C163.046 130.335 161.904 128.11 160.978 125.745C160.535 124.623 160.102 123.52 159.817 122.348C159.629 121.583 159.334 120.808 159.817 120.113C160.201 119.546 160.84 119.765 161.461 120.222C160.397 118.106 159.61 115.841 159.098 113.516C158.546 111.033 158.32 108.361 158.527 105.818C158.655 104.188 159.009 101.943 160.033 100.523C160.033 100.413 160.141 100.284 160.26 100.235C160.358 100.125 160.457 100.016 160.555 99.9167C160.732 99.7577 160.949 99.8869 160.781 100.095L160.762 100.086Z" fill="#231F20"/>
<path d="M220.753 65.4752C208.249 54.7464 188.36 51.8655 174.182 60.8062C159.315 70.1442 158.626 85.8401 161.777 99.4498C159.807 99.1518 157.641 98.9531 155.377 98.8537C155.968 91.8999 157.149 79.5816 158.232 64.5812C159.217 51.6668 155.081 46.2031 151.242 43.8189C151.143 43.8189 151.045 43.7196 150.946 43.7196C150.946 42.5275 151.143 41.236 151.635 40.2426C152.62 38.0571 153.9 36.567 156.854 35.5736C161.973 33.7855 165.715 37.0637 166.404 37.6598C168.57 39.6466 168.865 40.938 168.767 40.8387C168.964 40.938 169.358 40.64 170.342 39.7459C175.265 35.1763 177.234 27.825 175.954 21.1692C174.773 15.0101 170.835 9.94368 165.813 6.56609C164.533 5.8707 161.973 4.47993 159.118 3.6852C151.34 1.79773 136.768 1.79773 130.959 15.9041C125.15 30.2092 134.405 40.8387 136.67 43.1235C136.867 43.3222 136.965 43.4215 137.162 43.5209C117.864 50.4946 133.322 94.2841 133.519 98.8537C108.216 99.8472 106.739 118.424 108.412 127.265C109.988 135.709 118.258 146.438 120.326 149.319C123.289 153.372 131.54 162.75 134.898 166.475H153.634C157.228 162.74 166.178 153.312 169.358 149.22C171.524 146.438 177.727 138.987 179.991 131.835C180.385 130.742 180.877 129.848 181.37 127.166C182.157 123.292 182.256 117.331 179.696 111.867C180.287 111.172 180.976 110.576 181.665 109.98C185.899 106.702 191.905 106.801 196.138 109.98C200.569 113.457 202.341 119.715 201.356 125.179C201.061 126.769 200.569 128.259 199.781 129.55C199.683 129.649 199.584 129.947 199.387 130.245C199.19 130.543 199.486 130.941 199.781 130.842C202.341 130.245 204.999 129.649 207.559 128.855C211.596 127.563 215.633 125.775 219.079 123.093C222.525 120.51 225.282 117.132 227.448 113.457C228.137 112.165 228.826 110.874 229.417 109.583C236.21 94.7808 233.355 76.204 220.753 65.4752Z" fill="#231F20"/>
<path d="M147.205 41.4349C147.303 39.8454 147.402 36.8652 151.143 33.7856C153.998 31.5008 158.133 30.9047 158.823 30.9047C160.496 30.9047 162.072 31.1034 163.549 31.5008C165.616 32.0968 167.487 33.1896 169.161 34.779L169.259 34.8784C170.539 32.8916 170.834 31.9975 171.13 30.7061C171.228 30.5074 171.228 30.3087 171.327 30.0107C171.721 28.5206 172.114 26.1364 171.819 22.8581C171.327 16.8977 167.487 13.1227 165.813 11.732C161.579 8.25503 158.133 6.9636 152.521 6.86426H151.734C145.925 6.86426 141.1 8.95042 137.359 13.1227C133.913 17.0964 132.534 22.8581 133.617 28.9179C134.602 34.3817 137.359 39.0507 141.1 42.1303C142.873 41.8322 145.039 41.8322 147.205 42.2296V41.4349ZM134.897 114.947C128.104 115.543 123.476 123.888 132.731 137.001C141.691 149.617 144.251 150.213 144.448 150.213C144.645 150.213 147.205 149.617 156.164 137.001C165.419 123.987 160.792 115.543 153.998 114.947C147.303 114.252 144.546 120.312 144.448 120.51C144.349 120.312 141.593 114.351 134.897 114.947ZM172.016 67.7602C166.404 73.0253 165.616 78.191 164.533 84.0521C163.746 88.6218 164.533 96.9664 166.502 101.337C168.176 101.735 169.259 102.132 171.031 103.026C173.296 104.218 174.773 105.212 176.939 107.596C180.286 105.212 185.899 100.443 195.646 104.318C202.046 106.801 204.212 112.265 205.295 116.835C206.279 120.808 205.393 124.583 205.492 124.583C211.005 123.391 215.436 120.908 219.669 116.537C228.924 107 231.386 90.5093 225.675 78.489C218.882 64.3826 202.439 57.7268 187.375 60.3096C181.862 61.3031 176.25 63.7866 172.016 67.7602Z" fill="#CE0A24"/>
<path d="M183.633 66.5684C182.057 66.5684 180.777 67.8598 180.777 69.4492C180.777 71.0387 182.057 72.3301 183.633 72.3301C185.208 72.3301 186.488 71.0387 186.488 69.4492C186.488 67.8598 185.208 66.5684 183.633 66.5684Z" fill="white"/>
<path d="M175.658 79.4825C177.233 79.4825 178.513 78.191 178.513 76.6016C178.513 75.0121 177.233 73.7207 175.658 73.7207C174.083 73.7207 172.803 75.0121 172.803 76.6016C172.803 78.191 174.083 79.4825 175.658 79.4825Z" fill="white"/>
<path d="M172.803 83.8535C171.326 83.8535 170.046 85.1449 169.947 86.7344C169.947 88.3238 171.227 89.6153 172.803 89.6153C174.378 89.6153 175.658 88.3238 175.658 86.7344C175.658 85.1449 174.378 83.8535 172.803 83.8535Z" fill="white"/>
<path d="M213.17 110.277C211.594 110.277 210.314 111.569 210.314 113.158C210.314 114.748 211.594 116.039 213.17 116.039C214.745 116.039 216.025 114.748 216.025 113.158C216.025 111.569 214.745 110.277 213.17 110.277Z" fill="white"/>
<path d="M219.176 101.934C217.699 101.934 216.419 103.225 216.32 104.814C216.32 106.404 217.6 107.695 219.176 107.695C220.751 107.695 222.031 106.404 222.031 104.814C222.031 103.225 220.751 101.934 219.176 101.934Z" fill="white"/>
<path d="M218.783 94.7813C218.783 96.2714 220.063 97.5628 221.638 97.6622C223.214 97.6622 224.494 96.3707 224.494 94.7813C224.494 93.1918 223.214 91.9004 221.638 91.9004C220.063 91.9004 218.783 93.1918 218.783 94.7813Z" fill="white"/>
<path d="M220.26 87.2305C221.835 87.2305 223.115 85.9391 223.115 84.3496C223.115 82.7602 221.835 81.4688 220.26 81.4688C218.684 81.4688 217.404 82.7602 217.404 84.3496C217.404 85.9391 218.684 87.2305 220.26 87.2305Z" fill="white"/>
<path d="M214.746 78.1915C216.321 78.1915 217.601 76.9 217.601 75.3106C217.601 73.7211 216.321 72.4297 214.746 72.4297C213.171 72.4297 211.891 73.7211 211.891 75.3106C211.891 76.9 213.171 78.1915 214.746 78.1915Z" fill="white"/>
<path d="M205.49 66.4688C204.013 66.4688 202.733 67.7602 202.635 69.3496C202.635 70.9391 203.915 72.2305 205.49 72.2305C207.065 72.2305 208.345 70.9391 208.345 69.3496C208.345 67.7602 207.065 66.4688 205.49 66.4688Z" fill="white"/>
<path d="M194.465 64.2832C192.988 64.2832 191.708 65.5746 191.609 67.1641C191.609 68.7535 192.889 70.045 194.465 70.045C196.04 70.045 197.32 68.7535 197.32 67.1641C197.32 65.5746 196.04 64.2832 194.465 64.2832Z" fill="white"/>
<path d="M174.871 93.9863C173.296 93.9863 172.016 95.2778 172.016 96.8672C172.016 98.4567 173.296 99.7481 174.871 99.7481C176.446 99.7481 177.726 98.4567 177.726 96.8672C177.726 95.2778 176.446 93.9863 174.871 93.9863Z" fill="white"/>
<path d="M154.076 67.1452C154.165 67.2048 154.657 67.8406 154.933 68.5161C155.317 69.3208 156.006 71.3274 156.341 72.291C156.41 72.6487 156.498 72.6983 156.429 72.7182C156.37 72.8076 156.292 72.748 156.026 72.5096C155.238 71.854 153.623 70.7115 152.905 70.046C152.452 69.6188 152.087 69.2512 151.891 68.9929C151.891 68.9929 151.802 68.9333 151.792 68.8638C151.792 68.8638 151.703 68.8042 151.694 68.7347L151.605 68.675C151.251 68.0095 151.379 67.175 151.959 66.7578C152.59 66.2611 153.574 66.4299 154.086 67.1353" fill="white"/>
<path d="M140.687 161.727C140.687 161.727 135.478 194.191 135.606 195.989C135.734 197.787 136.482 201.215 135.449 202.139C134.07 203.38 126.282 204.89 124.825 204.89C123.368 204.89 120.414 205.447 124.392 201.374C127.434 198.254 132.278 196.774 132.564 194.658C132.593 192.403 132.2 157.803 132.2 157.803L140.687 161.727Z" fill="#231F20"/>
<path d="M145.068 154.325L154.963 197.916C154.963 197.916 151.783 201.582 154.491 203.37C157.198 205.158 159.945 206.926 163.342 208.138C167.093 209.479 171.15 208.774 169.417 206.519C164.701 200.4 161.993 197.419 159.374 197.36L156.174 151.613L145.078 154.325H145.068Z" fill="#231F20"/>
<path d="M65.1391 210.998C99.4825 210.998 127.323 209.762 127.323 208.236C127.323 206.711 99.4825 205.475 65.1391 205.475C30.7958 205.475 2.95508 206.711 2.95508 208.236C2.95508 209.762 30.7958 210.998 65.1391 210.998Z" fill="black"/>
<path d="M103.211 65.2315L18.3782 69.8917C12.8514 70.1953 8.60864 74.6316 8.90167 79.8005L15.6344 198.562C15.9274 203.73 20.6453 207.675 26.172 207.371L111.005 202.711C116.531 202.407 120.774 197.971 120.481 192.802L113.748 74.0409C113.455 68.872 108.738 64.9279 103.211 65.2315Z" fill="white" stroke="black" stroke-miterlimit="10"/>
<path d="M106.202 69.1458L15.8457 74.1094L22.8213 197.154L113.177 192.19L106.202 69.1458Z" fill="white"/>
<path d="M32.4641 97.7843L25.3379 98.1758L25.7303 105.098L32.8566 104.707L32.4641 97.7843Z" stroke="black" stroke-width="0.5" stroke-linecap="round" stroke-linejoin="round"/>
<path d="M36.0938 104.529L98.573 101.097" stroke="black" stroke-width="0.5" stroke-linecap="round" stroke-linejoin="round"/>
<path d="M33.0208 107.612L25.8945 108.004L26.287 114.926L33.4132 114.535L33.0208 107.612Z" stroke="black" stroke-width="0.5" stroke-linecap="round" stroke-linejoin="round"/>
<path d="M36.6504 114.357L99.1296 110.925" stroke="black" stroke-width="0.5" stroke-linecap="round" stroke-linejoin="round"/>
<path d="M33.5813 117.443L26.4551 117.834L26.8475 124.757L33.9738 124.365L33.5813 117.443Z" stroke="black" stroke-width="0.5" stroke-linecap="round" stroke-linejoin="round"/>
<path d="M37.2109 124.189L99.6902 120.757" stroke="black" stroke-width="0.5" stroke-linecap="round" stroke-linejoin="round"/>
<path d="M34.138 127.284L27.0117 127.676L27.4042 134.598L34.5304 134.207L34.138 127.284Z" stroke="black" stroke-width="0.5" stroke-linecap="round" stroke-linejoin="round"/>
<path d="M37.7656 134.033L100.245 130.601" stroke="black" stroke-width="0.5" stroke-linecap="round" stroke-linejoin="round"/>
<path d="M34.6966 137.112L27.5703 137.504L27.9628 144.426L35.089 144.035L34.6966 137.112Z" stroke="black" stroke-width="0.5" stroke-linecap="round" stroke-linejoin="round"/>
<path d="M38.3281 143.857L100.807 140.425" stroke="black" stroke-width="0.5" stroke-linecap="round" stroke-linejoin="round"/>
<path d="M35.2532 146.943L28.127 147.334L28.5194 154.257L35.6456 153.865L35.2532 146.943Z" stroke="black" stroke-width="0.5" stroke-linecap="round" stroke-linejoin="round"/>
<path d="M38.8809 153.688L101.36 150.255" stroke="black" stroke-width="0.5" stroke-linecap="round" stroke-linejoin="round"/>
<path d="M35.8118 156.775L28.6855 157.166L29.078 164.089L36.2042 163.697L35.8118 156.775Z" stroke="black" stroke-width="0.5" stroke-linecap="round" stroke-linejoin="round"/>
<path d="M39.4434 163.521L101.923 160.089" stroke="black" stroke-width="0.5" stroke-linecap="round" stroke-linejoin="round"/>
<path d="M36.3684 166.61L29.2422 167.002L29.6346 173.924L36.7609 173.533L36.3684 166.61Z" stroke="black" stroke-width="0.5" stroke-linecap="round" stroke-linejoin="round"/>
<path d="M39.998 173.355L102.477 169.923" stroke="black" stroke-width="0.5" stroke-linecap="round" stroke-linejoin="round"/>
<path d="M36.9231 176.444L29.7969 176.836L30.1893 183.758L37.3156 183.367L36.9231 176.444Z" stroke="black" stroke-width="0.5" stroke-linecap="round" stroke-linejoin="round"/>
<path d="M40.5566 183.188L103.036 179.755" stroke="black" stroke-width="0.5" stroke-linecap="round" stroke-linejoin="round"/>
<path d="M37.1457 93.4739C37.5782 93.3231 38.0555 93.535 38.2202 93.9655C38.3866 94.401 38.1578 94.8697 37.7216 95.0228C34.0046 96.354 30.847 99.2634 29.2872 102.804C29.1852 103.046 28.9612 103.213 28.7259 103.273L28.7028 103.279L28.3098 103.3L28.307 103.251C28.1981 103.225 28.0917 103.182 27.9979 103.112L27.9958 103.11C26.6769 102.112 25.2643 101.186 23.8249 100.363L23.8248 100.362C23.4241 100.138 23.2835 99.6234 23.5298 99.2304C23.7668 98.8528 24.2672 98.7065 24.6717 98.9456L24.6708 98.9457C25.8844 99.6364 27.063 100.39 28.1988 101.205C30.0601 97.6836 33.333 94.8309 37.1447 93.4739L37.1457 93.4739Z" fill="#5DCD11" stroke="#5DCD11" stroke-width="0.5"/>
<path d="M39.3684 132.656C39.8009 132.505 40.2781 132.717 40.4428 133.147C40.6092 133.583 40.3805 134.051 39.9442 134.204C36.2272 135.536 33.0696 138.445 31.5098 141.985C31.4078 142.227 31.1839 142.395 30.9485 142.454L30.9254 142.461L30.5325 142.482L30.5296 142.432C30.4208 142.407 30.3143 142.364 30.2205 142.294L30.2185 142.292C28.8995 141.294 27.487 140.368 26.0475 139.545L26.0475 139.544C25.6468 139.32 25.5061 138.805 25.7524 138.412C25.9895 138.034 26.4899 137.888 26.8944 138.127L26.8934 138.127C28.107 138.818 29.2856 139.571 30.4215 140.386C32.2828 136.865 35.5557 134.013 39.3674 132.656L39.3684 132.656Z" fill="#5DCD11" stroke="#5DCD11" stroke-width="0.5"/>
<path d="M40.959 75.3535L79.2666 73.216L79.5044 77.478C79.7526 81.9261 77.9158 85.6317 75.4166 85.7712L46.1923 87.4019C43.6826 87.5419 41.4545 84.0444 41.2073 79.6149L40.9695 75.3529L40.959 75.3535Z" fill="#A4A4A4"/>
<path d="M51.3526 53.4332L66.495 52.5883C68.4902 52.4769 70.2777 55.2523 70.4761 58.807L70.7056 62.9201L48.328 64.1688L48.0985 60.0557C47.9012 56.5195 49.3574 53.5445 51.3631 53.4326L51.3526 53.4332Z" fill="#5DCD11"/>
<path d="M88.1874 60.3732L30.6525 63.5836L28.4217 67.778L29.4333 78.9231L91.1161 75.4812L90.8815 64.2928L88.1874 60.3732Z" fill="#8F8F8F"/>
<path d="M28.4219 67.7754L90.8817 64.2902" stroke="black" stroke-width="0.17" stroke-linecap="round" stroke-linejoin="round"/>
<path d="M79.4287 76.1398L41.1211 78.2773L41.2457 80.5107L79.5533 78.3732L79.4287 76.1398Z" fill="black" stroke="black" stroke-width="0.17" stroke-linecap="round" stroke-linejoin="round"/>
<path d="M70.5084 59.5521L48.1309 60.8008L48.2306 62.5875L70.6081 61.3388L70.5084 59.5521Z" fill="black" stroke="black" stroke-width="0.17" stroke-linecap="round" stroke-linejoin="round"/>
<path d="M147.756 65.3463C147.401 65.8132 147.076 66.2901 146.791 66.7868C148.268 65.0881 149.843 63.4291 151.645 62.088C153.063 61.0349 154.579 60.1707 156.125 59.366C155.682 59.515 155.248 59.664 154.825 59.8329C155.022 59.0779 155.13 58.3229 155.15 57.6375C155.199 54.9751 154.362 52.1439 153.328 49.72C152.708 48.2498 151.921 47.1074 150.877 46.1934C150.05 45.6669 149.164 45.2596 148.189 44.9715C146.889 44.902 145.836 45.2993 144.773 46.4418C143.158 48.1802 142.38 50.7134 141.996 53.0082C141.238 57.5878 142.961 63.6873 147.726 65.3364C147.736 65.3364 147.746 65.3364 147.756 65.3364V65.3463Z" fill="#231F20"/>
<path d="M142.252 55.7311C142.084 53.4661 142.606 51.2012 143.463 49.1249C143.935 47.9925 144.615 46.9494 145.511 46.1149C146.515 45.191 147.716 45.1811 148.957 45.3599C150.365 46.2341 151.438 47.158 152.334 48.7474C153.417 50.6349 153.998 52.8105 154.441 54.9264C154.746 56.4166 154.756 58.2941 154.362 60.0226C153.328 60.4597 152.344 60.9862 151.418 61.7214C150.266 62.6452 149.085 63.7181 148.09 64.9201C144.29 64.0658 142.498 59.1484 142.242 55.7311H142.252Z" fill="white"/>
<path d="M153.162 57.2405C153.162 59.0286 151.724 60.479 149.952 60.479C148.18 60.479 146.742 59.0286 146.742 57.2405C146.742 55.4523 148.18 54.002 149.952 54.002C151.724 54.002 153.162 55.4523 153.162 57.2405Z" fill="#231F20"/>
<path d="M137.694 53.4748C137.605 52.0343 137.369 50.5641 136.177 49.6303C135.193 48.8554 133.716 49.2925 132.859 50.0475C130.309 52.2926 129.285 56.5146 129.335 59.7929C129.335 60.4386 129.394 61.1042 129.522 61.7399C129.285 61.4717 129.059 61.2035 128.803 60.9353C128.685 60.8161 128.448 61.124 128.547 61.2532C129.128 61.9585 129.659 62.7035 130.191 63.4387C130.25 63.5181 130.309 63.6075 130.368 63.687C130.368 63.697 130.388 63.7069 130.398 63.7268C130.802 64.2831 131.254 65.0778 131.885 65.3957C132.022 65.4652 132.2 65.1871 132.15 65.0679C132.111 64.9784 132.062 64.8791 132.003 64.7897C132.968 64.9586 133.982 64.4122 134.691 63.7566C135.921 62.6241 136.542 60.7565 136.965 59.1869C137.487 57.2895 137.989 55.4318 137.684 53.4648L137.694 53.4748Z" fill="#231F20"/>
<path d="M135.635 61.8895C134.828 63.5485 133.194 64.979 131.421 64.0055C131.156 63.6975 130.87 63.3896 130.634 63.0915C130.486 62.9028 130.338 62.724 130.191 62.5352C129.866 61.7206 129.767 60.767 129.728 60.0021C129.57 57.1013 130.398 53.8429 132.032 51.4488C132.977 50.068 134.621 49.154 136.098 50.2964C137.014 51.0018 137.27 52.3031 137.408 53.4853C137.516 56.3463 136.896 59.3067 135.635 61.8895Z" fill="white"/>
<mask id="mask0_1563_15027" style="mask-type:luminance" maskUnits="userSpaceOnUse" x="129" y="49" width="9" height="16">
<path d="M135.635 61.8895C134.828 63.5485 133.194 64.979 131.421 64.0055C131.156 63.6975 130.87 63.3896 130.634 63.0915C130.486 62.9028 130.338 62.724 130.191 62.5352C129.866 61.7206 129.767 60.767 129.728 60.0021C129.57 57.1013 130.398 53.8429 132.032 51.4488C132.977 50.068 134.621 49.154 136.098 50.2964C137.014 51.0018 137.27 52.3031 137.408 53.4853C137.516 56.3463 136.896 59.3067 135.635 61.8895Z" fill="white"/>
</mask>
<g mask="url(#mask0_1563_15027)">
<path d="M137.85 57.8662C137.85 59.4259 136.6 60.6875 135.054 60.6875C133.508 60.6875 132.258 59.4259 132.258 57.8662C132.258 56.3066 133.508 55.0449 135.054 55.0449C136.6 55.0449 137.85 56.3066 137.85 57.8662Z" fill="#231F20"/>
</g>
<path d="M140.675 88.7916C142.694 88.7916 144.495 86.8544 144.328 84.5795C143.974 79.682 140.734 73.4335 140.675 73.3242C140.616 73.4335 137.377 79.692 137.023 84.5795C136.855 86.8445 138.657 88.7817 140.675 88.7916Z" fill="#CE0A24"/>
<path d="M141.385 70.9391C141.385 70.9391 135.635 69.9656 132.436 68.3165C132.436 68.3165 136.64 63.9157 141.897 61.6309C141.897 61.6309 140.44 65.3363 141.385 70.949V70.9391Z" fill="white"/>
<path d="M78.5554 46.4667C77.4073 45.0069 75.7615 44.0803 73.9187 43.8665C72.0448 43.6517 70.1278 44.2174 68.6515 45.4286C66.2761 47.3768 64.5205 49.5744 63.6755 50.7308C61.4448 49.8763 59.3645 49.7961 57.4933 50.514C55.392 51.3218 54.0859 52.928 53.418 53.9896C50.8087 53.0726 48.8456 53.3824 47.4199 54.1117C41.8237 49.9949 38.6873 51.8399 37.3157 53.3308C33.7925 57.1384 34.3198 66.7616 38.2932 71.3972C40.5745 74.0621 43.6158 74.5693 46.763 72.8974C48.2665 75.5056 50.1298 77.2588 51.9007 78.0544C53.7302 78.8738 55.5181 78.6996 56.8049 77.5764C58.1238 76.4229 58.7824 74.4408 58.7577 71.7928C64.2538 81.0846 69.2923 85.8772 73.1923 85.4106C73.8678 85.3321 74.4853 85.0947 75.0222 84.7259C76.0167 84.0328 76.7401 82.8819 77.1027 81.3518C77.677 78.9179 77.2762 75.7709 75.889 72.8996C80.5653 75.1871 84.4044 75.8175 86.8282 74.612C88.2691 73.8989 89.1184 72.5856 89.2042 70.9209C89.3914 67.4727 86.4527 63.3042 81.4976 59.918C81.5505 55.0994 81.1945 49.8436 78.5488 46.4791L78.5554 46.4667Z" fill="#231F20"/>
</g>
<defs>
<clipPath id="clip0_1563_15027">
<rect width="233" height="211" fill="white"/>
</clipPath>
</defs>
</svg>
