<svg width="160" height="103" viewBox="0 0 160 103" fill="none" xmlns="http://www.w3.org/2000/svg">
<path d="M160 0H0V103H160V0Z" fill="#00B8B3"/>
<g style="mix-blend-mode:multiply" opacity="0.35">
<path d="M160.09 31.7099C149.1 30.4299 141.16 34.0299 139.06 36.9599C136.34 40.7599 135.94 46.0999 138.07 50.2599C139.16 52.3799 140.87 54.3399 140.93 56.7199C141.05 61.5499 134.59 64.0599 133.45 68.7599C132.29 73.5599 137.18 78.3299 135.94 83.1099C135.16 86.0999 132.16 88.0199 129.15 88.7099C126.14 89.3999 123 89.1599 119.93 89.4699C114.74 89.9799 109.72 92.0999 105.73 95.4499C103.83 97.0499 102.06 99.1499 102.02 101.63C102.02 102.11 102.09 102.56 102.19 103.01H159.94L160.07 31.7099H160.09Z" fill="#008062"/>
</g>
<path d="M151.381 93.1599L149.201 96.3499C148.931 96.7499 148.381 96.8499 147.981 96.5799C147.581 96.3099 147.481 95.7599 147.751 95.3599L149.931 92.1699C150.201 91.7699 150.751 91.6699 151.151 91.9399C151.551 92.2099 151.651 92.7599 151.381 93.1599Z" fill="white"/>
<path d="M139.5 94.2699L137.32 97.4599C137.05 97.8599 136.5 97.9599 136.1 97.6899C135.7 97.4199 135.6 96.8699 135.87 96.4699L138.05 93.2799C138.32 92.8799 138.87 92.7799 139.27 93.0499C139.67 93.3199 139.77 93.8699 139.5 94.2699Z" fill="white"/>
<path d="M150.609 85.7399L148.429 88.9299C148.159 89.3299 147.609 89.4299 147.209 89.1599C146.809 88.8899 146.709 88.3399 146.979 87.9399L149.159 84.7499C149.429 84.3499 149.979 84.2499 150.379 84.5199C150.779 84.7899 150.879 85.3399 150.609 85.7399Z" fill="white"/>
<path d="M157.961 85.7399L155.781 88.9299C155.511 89.3299 154.961 89.4299 154.561 89.1599C154.161 88.8899 154.061 88.3399 154.331 87.9399L156.511 84.7499C156.781 84.3499 157.331 84.2499 157.731 84.5199C158.131 84.7899 158.231 85.3399 157.961 85.7399Z" fill="white"/>
<path d="M143.26 82.7599L141.08 85.9499C140.81 86.3499 140.26 86.4499 139.86 86.1799C139.46 85.9099 139.36 85.3599 139.63 84.9599L141.81 81.7699C142.08 81.3699 142.63 81.2699 143.03 81.5399C143.43 81.8099 143.53 82.3599 143.26 82.7599Z" fill="white"/>
<path d="M149.43 69.7599L147.25 72.9499C146.98 73.3499 146.43 73.4499 146.03 73.1799C145.63 72.9099 145.53 72.3599 145.8 71.9599L147.98 68.7699C148.25 68.3699 148.8 68.2699 149.2 68.5399C149.6 68.8099 149.7 69.3599 149.43 69.7599Z" fill="white"/>
<path d="M142.32 68.4199L140.14 71.6099C139.87 72.0099 139.32 72.1099 138.92 71.8399C138.52 71.5699 138.42 71.0199 138.69 70.6199L140.87 67.4299C141.14 67.0299 141.69 66.9299 142.09 67.1999C142.49 67.4699 142.59 68.0199 142.32 68.4199Z" fill="white"/>
<path d="M147.731 55.9699L145.551 59.1599C145.281 59.5599 144.731 59.6599 144.331 59.3899C143.931 59.1199 143.831 58.5699 144.101 58.1699L146.281 54.9799C146.551 54.5799 147.101 54.4799 147.501 54.7499C147.901 55.0199 148.001 55.5699 147.731 55.9699Z" fill="white"/>
<path d="M146.789 45.3899L144.609 48.5799C144.339 48.9799 143.789 49.0799 143.389 48.8099C142.989 48.5399 142.889 47.9899 143.159 47.5899L145.339 44.3999C145.609 43.9999 146.159 43.8999 146.559 44.1699C146.959 44.4399 147.059 44.9899 146.789 45.3899Z" fill="white"/>
<path d="M157.789 69.7599L155.609 72.9499C155.339 73.3499 154.789 73.4499 154.389 73.1799C153.989 72.9099 153.889 72.3599 154.159 71.9599L156.339 68.7699C156.609 68.3699 157.159 68.2699 157.559 68.5399C157.959 68.8099 158.059 69.3599 157.789 69.7599Z" fill="white"/>
<path d="M156.09 55.9699L153.91 59.1599C153.64 59.5599 153.09 59.6599 152.69 59.3899C152.29 59.1199 152.19 58.5699 152.46 58.1699L154.64 54.9799C154.91 54.5799 155.46 54.4799 155.86 54.7499C156.26 55.0199 156.36 55.5699 156.09 55.9699Z" fill="white"/>
<path d="M155.15 45.3899L152.97 48.5799C152.7 48.9799 152.15 49.0799 151.75 48.8099C151.35 48.5399 151.251 47.9899 151.521 47.5899L153.7 44.3999C153.97 43.9999 154.52 43.8999 154.92 44.1699C155.32 44.4399 155.42 44.9899 155.15 45.3899Z" fill="white"/>
<path d="M127.75 96.4999L125.57 99.6899C125.3 100.09 124.75 100.19 124.35 99.9199C123.95 99.6499 123.85 99.0999 124.12 98.6999L126.3 95.5099C126.57 95.1099 127.12 95.0099 127.52 95.2799C127.92 95.5499 128.02 96.0999 127.75 96.4999Z" fill="white"/>
<g style="mix-blend-mode:multiply" opacity="0.35">
<path d="M21.53 34.74C25.11 32.06 29.84 31.59 33.94 29.81C38.85 27.68 42.86 23.54 44.83 18.57C46.34 14.76 46.71 10.5 48.8 6.97999C49.8 5.28999 52.64 -0.0100098 52.64 -0.0100098H0V78.88C4.15 78.38 8 75.63 10.35 72.08C13.21 67.78 14.2 62.51 14.58 57.36C15.17 49.21 14.99 39.63 21.52 34.73L21.53 34.74Z" fill="#008062"/>
</g>
<path d="M14.7904 8.17998L11.9704 10.58C11.6204 10.88 11.0804 10.84 10.7804 10.48C10.4804 10.13 10.5204 9.58998 10.8804 9.28998L13.7004 6.88998C14.0504 6.58998 14.5904 6.62998 14.8904 6.98998C15.1904 7.33998 15.1504 7.87998 14.7904 8.17998Z" fill="white"/>
<path d="M11.2996 36.71L8.87962 39.51C8.57962 39.86 8.03962 39.9 7.68962 39.6C7.33962 39.3 7.29962 38.76 7.59962 38.41L10.0196 35.61C10.3196 35.26 10.8596 35.22 11.2096 35.52C11.5596 35.82 11.5996 36.36 11.2996 36.71Z" fill="white"/>
<path d="M20.9797 28.64L18.2997 31.2C17.9697 31.52 17.4297 31.51 17.1097 31.17C16.7897 30.84 16.7997 30.3 17.1397 29.98L19.8197 27.42C20.1497 27.1 20.6897 27.11 21.0097 27.45C21.3297 27.78 21.3197 28.32 20.9797 28.64Z" fill="white"/>
<path d="M34.6802 16.17L32.2102 18.93C31.9002 19.28 31.3702 19.31 31.0202 19C30.6702 18.69 30.6402 18.16 30.9502 17.81L33.4202 15.05C33.7302 14.7 34.2602 14.67 34.6102 14.98C34.9602 15.29 34.9902 15.82 34.6802 16.17Z" fill="white"/>
<path d="M33.2692 7.76L30.4092 10.11C30.0492 10.4 29.5192 10.35 29.2192 9.98999C28.9292 9.62999 28.9792 9.1 29.3392 8.8L32.1992 6.44999C32.5592 6.15999 33.0892 6.21 33.3892 6.57C33.6792 6.93 33.6292 7.46 33.2692 7.76Z" fill="white"/>
<path d="M24.4192 17.2599L21.7892 19.8699C21.4592 20.1999 20.9292 20.1899 20.5992 19.8699C20.2692 19.5399 20.2792 19.0099 20.5992 18.6799L23.2292 16.0699C23.5592 15.7399 24.0892 15.7499 24.4192 16.0699C24.7492 16.3999 24.7392 16.9299 24.4192 17.2599Z" fill="white"/>
<path d="M13.5188 26.27L11.2188 29.18C10.9288 29.54 10.3988 29.61 10.0388 29.32C9.67882 29.03 9.60882 28.5 9.89882 28.14L12.1988 25.23C12.4888 24.87 13.0188 24.8 13.3788 25.09C13.7388 25.38 13.8088 25.91 13.5188 26.27Z" fill="white"/>
<path d="M23.5494 8.32005L20.8294 10.8301C20.4894 11.1401 19.9494 11.1201 19.6394 10.7801C19.3294 10.4401 19.3494 9.90005 19.6894 9.59005L22.4094 7.08005C22.7494 6.77005 23.2894 6.79005 23.5994 7.13005C23.9094 7.47005 23.8894 8.01005 23.5494 8.32005Z" fill="white"/>
<path d="M13.5896 16.96L11.0596 19.67C10.7396 20.01 10.2096 20.03 9.86957 19.71C9.52957 19.39 9.50957 18.86 9.82957 18.52L12.3596 15.81C12.6796 15.47 13.2096 15.45 13.5496 15.77C13.8896 16.09 13.9096 16.62 13.5896 16.96Z" fill="white"/>
<path d="M53.1006 60.9199C53.1006 61.3299 52.7706 61.6499 52.3706 61.6499C51.9706 61.6499 51.6406 61.3199 51.6406 60.9199C51.6406 60.5199 51.9706 60.1899 52.3706 60.1899C52.7706 60.1899 53.1006 60.5199 53.1006 60.9199Z" fill="#F1CE30"/>
<path d="M49.6909 12.9199C49.6909 13.4699 49.2509 13.9099 48.7009 13.9099C48.1509 13.9099 47.7109 13.4699 47.7109 12.9199C47.7109 12.3699 48.1509 11.9299 48.7009 11.9299C49.2509 11.9299 49.6909 12.3699 49.6909 12.9199Z" fill="#F1CE30"/>
<path d="M114.011 53.9099C114.011 54.3099 113.681 54.6399 113.281 54.6399C112.881 54.6399 112.551 54.3099 112.551 53.9099C112.551 53.5099 112.881 53.1799 113.281 53.1799C113.681 53.1799 114.011 53.5099 114.011 53.9099Z" fill="#F1CE30"/>
<path d="M107.371 89.2499C107.371 89.7999 106.931 90.2399 106.381 90.2399C105.831 90.2399 105.391 89.7999 105.391 89.2499C105.391 88.6999 105.831 88.2599 106.381 88.2599C106.931 88.2599 107.371 88.6999 107.371 89.2499Z" fill="#F1CE30"/>
<path d="M112.431 78.9799C112.834 78.9799 113.161 78.6531 113.161 78.2499C113.161 77.8467 112.834 77.5199 112.431 77.5199C112.028 77.5199 111.701 77.8467 111.701 78.2499C111.701 78.6531 112.028 78.9799 112.431 78.9799Z" fill="#F1CE30"/>
<path d="M144.371 73.9199C144.371 74.4699 143.931 74.9099 143.381 74.9099C142.831 74.9099 142.391 74.4699 142.391 73.9199C142.391 73.3699 142.831 72.9299 143.381 72.9299C143.931 72.9299 144.371 73.3699 144.371 73.9199Z" fill="#F1CE30"/>
<path d="M131.771 83.9199C131.771 84.3299 131.441 84.6499 131.041 84.6499C130.641 84.6499 130.311 84.3199 130.311 83.9199C130.311 83.5199 130.641 83.1899 131.041 83.1899C131.441 83.1899 131.771 83.5199 131.771 83.9199Z" fill="#F1CE30"/>
<path d="M134.701 42.9199C134.701 43.4699 134.261 43.9099 133.711 43.9099C133.161 43.9099 132.721 43.4699 132.721 42.9199C132.721 42.3699 133.161 41.9299 133.711 41.9299C134.261 41.9299 134.701 42.3699 134.701 42.9199Z" fill="#F1CE30"/>
<path d="M144.03 53.2499C144.03 53.6599 143.7 53.9799 143.3 53.9799C142.9 53.9799 142.57 53.6499 142.57 53.2499C142.57 52.8499 142.9 52.5199 143.3 52.5199C143.7 52.5199 144.03 52.8499 144.03 53.2499Z" fill="#F1CE30"/>
<path d="M100.371 23.9199C100.371 24.4699 99.9306 24.9099 99.3806 24.9099C98.8306 24.9099 98.3906 24.4699 98.3906 23.9199C98.3906 23.3699 98.8306 22.9299 99.3806 22.9299C99.9306 22.9299 100.371 23.3699 100.371 23.9199Z" fill="#F1CE30"/>
<path d="M109.431 14.58C109.431 14.99 109.101 15.31 108.701 15.31C108.301 15.31 107.971 14.98 107.971 14.58C107.971 14.18 108.301 13.85 108.701 13.85C109.101 13.85 109.431 14.18 109.431 14.58Z" fill="#F1CE30"/>
<path d="M40.0308 90.9199C40.0308 91.4699 39.5908 91.9099 39.0408 91.9099C38.4908 91.9099 38.0508 91.4699 38.0508 90.9199C38.0508 90.3699 38.4908 89.9299 39.0408 89.9299C39.5908 89.9299 40.0308 90.3699 40.0308 90.9199Z" fill="#F1CE30"/>
<path d="M79.0308 13.7099C79.4339 13.7099 79.7608 13.383 79.7608 12.9799C79.7608 12.5767 79.4339 12.2499 79.0308 12.2499C78.6276 12.2499 78.3008 12.5767 78.3008 12.9799C78.3008 13.383 78.6276 13.7099 79.0308 13.7099Z" fill="#F1CE30"/>
<path d="M36.0505 68.2399C36.5973 68.2399 37.0405 67.7966 37.0405 67.2499C37.0405 66.7031 36.5973 66.2599 36.0505 66.2599C35.5038 66.2599 35.0605 66.7031 35.0605 67.2499C35.0605 67.7966 35.5038 68.2399 36.0505 68.2399Z" fill="#F1CE30"/>
<path d="M49.6304 77.9799C50.0336 77.9799 50.3604 77.6531 50.3604 77.2499C50.3604 76.8467 50.0336 76.5199 49.6304 76.5199C49.2272 76.5199 48.9004 76.8467 48.9004 77.2499C48.9004 77.6531 49.2272 77.9799 49.6304 77.9799Z" fill="#F1CE30"/>
<path d="M128.271 58.3099C128.271 58.8599 127.831 59.2999 127.281 59.2999C126.731 59.2999 126.291 58.8599 126.291 58.3099C126.291 57.7599 126.731 57.3199 127.281 57.3199C127.831 57.3199 128.271 57.7599 128.271 58.3099Z" fill="#F1CE30"/>
<path d="M59.0303 22.58C59.0303 22.99 58.7003 23.31 58.3003 23.31C57.9003 23.31 57.5703 22.98 57.5703 22.58C57.5703 22.18 57.9003 21.85 58.3003 21.85C58.7003 21.85 59.0303 22.18 59.0303 22.58Z" fill="#F1CE30"/>
</svg>
