<svg width="24" height="24" viewBox="0 0 24 24" fill="none" xmlns="http://www.w3.org/2000/svg">
<g clip-path="url(#clip0_2865_10235)">
<path d="M23.7904 9.66647C23.6852 9.23037 23.5186 8.82708 23.3039 8.45497C23.3176 8.22374 23.2636 7.98499 23.1863 7.76398C22.854 6.81811 22.3327 5.57649 21.3871 5.21621C21.6191 4.07407 21.6028 3.38685 21.8348 2.24471C21.9443 1.70645 21.9672 1.0531 21.7389 0.552475C21.5107 0.0523853 20.881 -0.187443 20.4616 0.172837C20.0759 0.503541 20.2415 0.920283 20.2976 1.42145C20.3951 2.29365 19.8738 4.40532 19.6695 4.59191C19.3345 4.89734 18.7277 4.85217 18.0898 4.95219C17.6039 5.02801 16.9808 5.16137 16.5701 5.49637C15.8494 5.63941 15.1734 5.94054 14.5998 6.42557C12.6775 8.05221 11.8457 10.6774 10.8777 12.8998C9.32741 16.4602 6.62068 17.7884 3.22487 19.2569C2.44264 19.5951 -0.259735 19.8129 0.0202531 21.2734C0.385763 23.177 2.92363 23.6604 4.53656 23.854C8.98042 24.3869 13.5049 23.455 17.2575 21.0701C21.0264 18.6745 24.9594 14.5141 23.7909 9.6654L23.7904 9.66647Z" fill="white" fill-opacity="0.6"/>
</g>
<defs>
<clipPath id="clip0_2865_10235">
<rect width="24" height="24" fill="white"/>
</clipPath>
</defs>
</svg>
