<svg width="132" height="143" viewBox="0 0 132 143" fill="none" xmlns="http://www.w3.org/2000/svg">
<g style="mix-blend-mode:multiply">
<path d="M88 138C88 140.481 73.4523 142.5 55.5 142.5C37.5477 142.5 23 140.49 23 138C23 135.51 37.5477 133.5 55.5 133.5C73.4523 133.5 88 135.51 88 138Z" fill="#DFD7C0"/>
</g>
<path d="M37.314 117.109C33.609 128.439 28.2686 132.294 32.6461 136.846C32.6461 136.846 36.5991 140.996 45.3638 136.155C47.2538 135.11 50.2504 133.611 53.8379 131.392C45.8371 128.637 40.6632 123.151 37.3173 117.109H37.314Z" fill="#CE2027"/>
<path d="M73.4626 24.4997C73.4626 24.4997 67.0907 22.1571 67.0286 17.7575C66.9405 11.5313 70.9164 9.45158 70.5639 8.39062C70.2113 7.32966 67.7892 6.59965 66.2681 6.49907C64.7469 6.40173 60.9864 8.69561 59.3379 13.2996C57.6927 17.9036 59.1323 19.7432 54.8104 22.196C50.4884 24.6522 45.765 25.5574 40.8653 30.5345C37.3855 34.071 33.0734 41.6307 34.7186 54.2097C35.7729 62.2724 38.6031 69.2578 39.8892 80.2924C50.1587 62.3502 37.4965 54.8456 37.4965 54.8456C73.6095 54.0767 69.4344 92.508 69.4344 92.508C74.6932 89.588 76.2405 82.2067 76.2405 82.2067C81.0162 88.4881 82.0836 95.4897 81.2153 102.242C86.2227 92.7968 90.1366 80.8245 91.599 65.6239C94.7654 32.744 78.1566 27.1375 73.456 24.4899L73.4626 24.4997Z" fill="#CE2027"/>
<path d="M76.2426 82.2181C76.2426 82.2181 74.6953 89.5961 69.4365 92.5195C69.4365 92.5195 73.6115 54.0881 37.4986 54.8571C37.4986 54.8571 50.1575 62.3584 39.8913 80.3039C40.6094 86.4879 40.8445 93.9438 40.0055 103.574C39.529 109.044 38.504 113.466 37.3125 117.116C40.6584 123.154 45.8356 128.644 53.8331 131.399C61.9286 126.389 73.0337 117.7 81.2174 102.26C82.0857 95.5077 81.015 88.506 76.2426 82.2246V82.2181Z" fill="#FFDB00"/>
<path d="M75.9715 53.0488C75.9715 53.0488 62.849 65.5564 75.2141 76.7663C75.2141 76.7663 73.8986 74.5081 75.4133 69.1741C76.9279 63.8401 80.3913 61.079 75.9715 53.0488Z" fill="#FFDB00"/>
<path d="M76.5345 34.3613C76.5345 34.3613 75.1015 47.0863 80.7226 52.2127C86.3437 57.339 84.9597 64.9085 84.9597 64.9085C84.9597 64.9085 92.3272 51.1128 83.9477 43.1507C75.5683 35.1887 76.5378 34.3613 76.5378 34.3613H76.5345Z" fill="#FFDB00"/>
<path d="M9.51318 98.5L6.77254 105.273L0 107.987L6.77254 110.727L9.51318 117.5L12.2275 110.727L19 107.987L12.2275 105.273L9.51318 98.5Z" fill="#FFDB00"/>
<path d="M113.721 27.3469L113.527 38.2994L105.569 45.8631L116.419 45.8734L123.79 53.7927L123.967 42.8374L131.925 35.2737L121.092 35.2662L113.721 27.3469Z" fill="#FFDB00"/>
<path d="M115.806 0.82743L112.382 6.33838L105.861 7.76599L111.589 11.0919L113.048 17.3594L116.493 11.8518L123.014 10.4242L117.286 7.09836L115.806 0.82743Z" fill="#FFDB00"/>
<path d="M94.5099 16.8906L93.328 22.2342L88.9094 24.9833L93.8964 26.2824L96.498 31.0501L97.6631 25.7091L102.084 22.978L97.0947 21.6609L94.5099 16.8906Z" fill="#FFDB00"/>
</svg>
