<svg width="35" height="34" viewBox="0 0 35 34" fill="none" xmlns="http://www.w3.org/2000/svg">
<path d="M5.8125 27.6251C5.8125 28.7523 6.26027 29.8333 7.0573 30.6303C7.85433 31.4273 8.93533 31.8751 10.0625 31.8751H16.1719C16.2423 31.8751 16.3099 31.8471 16.3597 31.7973C16.4095 31.7475 16.4375 31.6799 16.4375 31.6095V19.3907C16.4375 19.3203 16.4095 19.2527 16.3597 19.2029C16.3099 19.1531 16.2423 19.1251 16.1719 19.1251H6.34375C6.20285 19.1251 6.06773 19.1811 5.9681 19.2807C5.86847 19.3803 5.8125 19.5154 5.8125 19.6563V27.6251ZM16.4375 16.7345V9.56259H18.5625V16.7345C18.5625 16.8049 18.5905 16.8725 18.6403 16.9223C18.6901 16.9721 18.7577 17.0001 18.8281 17.0001H28.125C28.487 17.0001 28.8463 16.9384 29.1875 16.8175C29.8084 16.597 30.346 16.1899 30.7264 15.6519C31.1068 15.114 31.3116 14.4715 31.3125 13.8126V12.7501C31.3125 11.9047 30.9767 11.094 30.3789 10.4962C29.7811 9.89842 28.9704 9.56259 28.125 9.56259H25.4329C25.4098 9.56222 25.3871 9.55582 25.3672 9.54401C25.3473 9.53221 25.3309 9.51541 25.3195 9.49528C25.3081 9.47515 25.3021 9.45239 25.3022 9.42925C25.3023 9.40612 25.3084 9.38341 25.32 9.36338C25.9348 8.32537 26.1345 7.09331 25.879 5.91425C25.6235 4.73519 24.9318 3.6963 23.9424 3.00588C22.9531 2.31547 21.7393 2.02457 20.5445 2.19153C19.3497 2.35848 18.2622 2.97095 17.5 3.90611C16.7378 2.97095 15.6503 2.35848 14.4555 2.19153C13.2607 2.02457 12.0469 2.31547 11.0576 3.00588C10.0682 3.6963 9.37647 4.73519 9.12099 5.91425C8.8655 7.09331 9.06519 8.32537 9.68 9.36338C9.69157 9.38341 9.69771 9.40612 9.6978 9.42925C9.6979 9.45239 9.69195 9.47515 9.68054 9.49528C9.66913 9.51541 9.65267 9.53221 9.63277 9.54401C9.61288 9.55582 9.59024 9.56222 9.56711 9.56259H6.875C6.02962 9.56259 5.21887 9.89842 4.6211 10.4962C4.02333 11.094 3.6875 11.9047 3.6875 12.7501V13.8126C3.68844 14.4715 3.89316 15.114 4.2736 15.6519C4.65404 16.1899 5.19158 16.597 5.8125 16.8175C6.1537 16.9384 6.51302 17.0001 6.875 17.0001H16.1719C16.2423 17.0001 16.3099 16.9721 16.3597 16.9223C16.4095 16.8725 16.4375 16.8049 16.4375 16.7345ZM18.5625 6.90634C18.5625 6.38099 18.7183 5.86743 19.0102 5.43061C19.302 4.99379 19.7169 4.65333 20.2022 4.45229C20.6876 4.25124 21.2217 4.19864 21.737 4.30113C22.2522 4.40363 22.7255 4.65661 23.097 5.02809C23.4685 5.39957 23.7215 5.87287 23.824 6.38814C23.9265 6.9034 23.8738 7.43748 23.6728 7.92285C23.4718 8.40821 23.1313 8.82306 22.6945 9.11494C22.2577 9.40681 21.7441 9.56259 21.2188 9.56259H18.5625V6.90634ZM13.5913 4.25673C13.9552 4.23065 14.3206 4.27981 14.6647 4.40115C15.0087 4.52249 15.3241 4.71341 15.5912 4.962C15.8582 5.21059 16.0712 5.51153 16.2168 5.84605C16.3624 6.18057 16.4375 6.54151 16.4375 6.90634V9.56259H13.7812C13.0944 9.56083 12.4349 9.29308 11.9413 8.81554C11.4476 8.338 11.1581 7.68779 11.1335 7.00138C11.1089 6.31497 11.3512 5.64573 11.8095 5.13411C12.2677 4.62249 12.9064 4.30827 13.5913 4.2574V4.25673ZM18.8281 31.8751H24.9375C26.0647 31.8751 27.1457 31.4273 27.9427 30.6303C28.7397 29.8333 29.1875 28.7523 29.1875 27.6251V19.6563C29.1875 19.5154 29.1315 19.3803 29.0319 19.2807C28.9323 19.1811 28.7971 19.1251 28.6562 19.1251H18.8281C18.7577 19.1251 18.6901 19.1531 18.6403 19.2029C18.5905 19.2527 18.5625 19.3203 18.5625 19.3907V31.6095C18.5625 31.6799 18.5905 31.7475 18.6403 31.7973C18.6901 31.8471 18.7577 31.8751 18.8281 31.8751Z" fill="#B3B3B3"/>
</svg>
