<svg width="35" height="34" viewBox="0 0 35 34" fill="none" xmlns="http://www.w3.org/2000/svg">
<path d="M5.8125 27.6241C5.8125 28.7513 6.26027 29.8323 7.0573 30.6293C7.85433 31.4263 8.93533 31.8741 10.0625 31.8741H16.1719C16.2423 31.8741 16.3099 31.8461 16.3597 31.7963C16.4095 31.7465 16.4375 31.6789 16.4375 31.6085V19.3897C16.4375 19.3193 16.4095 19.2517 16.3597 19.2019C16.3099 19.1521 16.2423 19.1241 16.1719 19.1241H6.34375C6.20285 19.1241 6.06773 19.1801 5.9681 19.2797C5.86847 19.3793 5.8125 19.5145 5.8125 19.6554V27.6241ZM16.4375 16.7335V9.56162H18.5625V16.7335C18.5625 16.8039 18.5905 16.8715 18.6403 16.9213C18.6901 16.9711 18.7577 16.9991 18.8281 16.9991H28.125C28.487 16.9991 28.8463 16.9374 29.1875 16.8165C29.8084 16.596 30.346 16.1889 30.7264 15.651C31.1068 15.113 31.3116 14.4705 31.3125 13.8116V12.7491C31.3125 11.9037 30.9767 11.093 30.3789 10.4952C29.7811 9.89744 28.9704 9.56162 28.125 9.56162H25.4329C25.4098 9.56125 25.3871 9.55484 25.3672 9.54304C25.3473 9.53123 25.3309 9.51443 25.3195 9.4943C25.3081 9.47417 25.3021 9.45141 25.3022 9.42828C25.3023 9.40514 25.3084 9.38243 25.32 9.3624C25.9348 8.32439 26.1345 7.09234 25.879 5.91328C25.6235 4.73422 24.9318 3.69532 23.9424 3.00491C22.9531 2.31449 21.7393 2.0236 20.5445 2.19055C19.3497 2.35751 18.2622 2.96997 17.5 3.90513C16.7378 2.96997 15.6503 2.35751 14.4555 2.19055C13.2607 2.0236 12.0469 2.31449 11.0576 3.00491C10.0682 3.69532 9.37647 4.73422 9.12099 5.91328C8.8655 7.09234 9.06519 8.32439 9.68 9.3624C9.69157 9.38243 9.69771 9.40514 9.6978 9.42828C9.6979 9.45141 9.69195 9.47417 9.68054 9.4943C9.66913 9.51443 9.65267 9.53123 9.63277 9.54304C9.61288 9.55484 9.59024 9.56125 9.56711 9.56162H6.875C6.02962 9.56162 5.21887 9.89744 4.6211 10.4952C4.02333 11.093 3.6875 11.9037 3.6875 12.7491V13.8116C3.68844 14.4705 3.89316 15.113 4.2736 15.651C4.65404 16.1889 5.19158 16.596 5.8125 16.8165C6.1537 16.9374 6.51302 16.9991 6.875 16.9991H16.1719C16.2423 16.9991 16.3099 16.9711 16.3597 16.9213C16.4095 16.8715 16.4375 16.8039 16.4375 16.7335ZM18.5625 6.90537C18.5625 6.38001 18.7183 5.86645 19.0102 5.42963C19.302 4.99282 19.7169 4.65236 20.2022 4.45131C20.6876 4.25027 21.2217 4.19766 21.737 4.30016C22.2522 4.40265 22.7255 4.65563 23.097 5.02712C23.4685 5.3986 23.7215 5.8719 23.824 6.38716C23.9265 6.90242 23.8738 7.4365 23.6728 7.92187C23.4718 8.40724 23.1313 8.82209 22.6945 9.11396C22.2577 9.40583 21.7441 9.56162 21.2188 9.56162H18.5625V6.90537ZM13.5913 4.25576C13.9552 4.22967 14.3206 4.27883 14.6647 4.40017C15.0087 4.52151 15.3241 4.71243 15.5912 4.96102C15.8582 5.20962 16.0712 5.51056 16.2168 5.84508C16.3624 6.1796 16.4375 6.54053 16.4375 6.90537V9.56162H13.7812C13.0944 9.55985 12.4349 9.29211 11.9413 8.81456C11.4476 8.33702 11.1581 7.68682 11.1335 7.00041C11.1089 6.314 11.3512 5.64476 11.8095 5.13314C12.2677 4.62151 12.9064 4.30729 13.5913 4.25642V4.25576ZM18.8281 31.8741H24.9375C26.0647 31.8741 27.1457 31.4263 27.9427 30.6293C28.7397 29.8323 29.1875 28.7513 29.1875 27.6241V19.6554C29.1875 19.5145 29.1315 19.3793 29.0319 19.2797C28.9323 19.1801 28.7971 19.1241 28.6562 19.1241H18.8281C18.7577 19.1241 18.6901 19.1521 18.6403 19.2019C18.5905 19.2517 18.5625 19.3193 18.5625 19.3897V31.6085C18.5625 31.6789 18.5905 31.7465 18.6403 31.7963C18.6901 31.8461 18.7577 31.8741 18.8281 31.8741Z" fill="#CE0A24"/>
</svg>
