<svg width="24" height="24" viewBox="0 0 24 24" fill="none" xmlns="http://www.w3.org/2000/svg">
<g clip-path="url(#clip0_1563_8877)">
<path d="M23.9958 8H0V9C0 9.53043 0.210714 10.0391 0.585786 10.4142C0.960859 10.7893 1.46957 11 2 11H5C5.53043 11 6.03914 10.7893 6.41421 10.4142C6.78929 10.0391 7 9.53043 7 9C7 9.53043 7.21071 10.0391 7.58579 10.4142C7.96086 10.7893 8.46957 11 9 11H15C15.5304 11 16.0391 10.7893 16.4142 10.4142C16.7893 10.0391 17 9.53043 17 9C17 9.53043 17.2107 10.0391 17.5858 10.4142C17.9609 10.7893 18.4696 11 19 11H22C22.5304 11 23.0391 10.7893 23.4142 10.4142C23.7893 10.0391 24 9.53043 24 9V8H23.9958Z" fill="black"/>
<path d="M23.7544 7L21.9617 0.725C21.9019 0.516107 21.7758 0.332356 21.6023 0.201547C21.4288 0.0707382 21.2174 -1.21163e-05 21.0002 1.55638e-09L16.4199 1.55638e-09L17.8199 7H23.7544Z" fill="black"/>
<path d="M7.58059 1.55638e-09H3.00034C2.78307 -1.21163e-05 2.57171 0.0707382 2.39823 0.201547C2.22475 0.332356 2.09859 0.516107 2.03884 0.725L0.246094 7H6.18059L7.58059 1.55638e-09Z" fill="black"/>
<path d="M14.3812 0H9.6207L8.2207 7H15.7812L14.3812 0Z" fill="black"/>
<path d="M19 12.0001C18.2616 12.0007 17.5492 11.728 17 11.2344C16.4508 11.728 15.7384 12.0007 15 12.0001H9C8.26162 12.0007 7.54917 11.728 7 11.2344C6.45083 11.728 5.73838 12.0007 5 12.0001H2C1.65911 11.9994 1.32087 11.9402 1 11.8251V23.0001C1 23.2653 1.10536 23.5197 1.29289 23.7072C1.48043 23.8948 1.73478 24.0001 2 24.0001H4V15.0001C4 14.7349 4.10536 14.4806 4.29289 14.293C4.48043 14.1055 4.73478 14.0001 5 14.0001H10C10.2652 14.0001 10.5196 14.1055 10.7071 14.293C10.8946 14.4806 11 14.7349 11 15.0001V24.0001H22C22.2652 24.0001 22.5196 23.8948 22.7071 23.7072C22.8946 23.5197 23 23.2653 23 23.0001V11.8251C22.6791 11.9402 22.3409 11.9994 22 12.0001H19Z" fill="black"/>
<path d="M17.001 15.2807C17.0194 15.2363 17.6772 13.872 19.2644 14.0098C20.8745 14.152 21.9555 16.054 19.7704 19.0048C17.6723 21.8396 17.0458 21.9893 17.0018 21.9998L17.001 22L17.0003 21.9998C16.9568 21.9894 16.3351 21.8407 14.2316 19.0048C12.0418 16.054 13.1275 14.152 14.7376 14.0098C16.3247 13.872 16.978 15.2363 17.001 15.2807Z" fill="white"/>
</g>
<defs>
<clipPath id="clip0_1563_8877">
<rect width="24" height="24" fill="white"/>
</clipPath>
</defs>
</svg>
